<svg xmlns="http://www.w3.org/2000/svg" viewBox="0 0 415.14 509.73"><title>Ресурс 2</title><g id="Слой_2" data-name="Слой 2"><g id="Слой_1-2" data-name="Слой 1"><path d="M410.38,123.53Q350.47,64.16,290.84,4.5A46.09,46.09,0,0,1,287.27,0h-213c-3,.85-6,1.62-8.94,2.56C42.2,9.87,27.42,30.48,27.4,55.74q-.11,96.29,0,192.58v6.28c-2.44.12-4.53.18-6.62.33C9.64,255.72,1.06,264,.48,275.08c-.43,8.1-.24,16.25-.25,24.37C.21,333.62.74,367.8,0,402c-.38,17.93,6.77,29.75,27.39,29.44,0,8.22-.15,16.45,0,24.68.38,18.11,8,32.59,22.52,43.33,10.08,7.45,21.61,10.33,34.1,10.32q137.08-.11,274.19-.08a76.81,76.81,0,0,0,12.85-1c23.71-4,42.52-25.39,43.73-49.44.15-3,.2-6,.2-8.95q0-157.75.12-315.5A14.33,14.33,0,0,0,410.38,123.53ZM54.47,321.82A43,43,0,0,1,64.09,307a40.23,40.23,0,0,1,14.56-9.17A52.49,52.49,0,0,1,97,294.71a58.13,58.13,0,0,1,10.4.85,66.21,66.21,0,0,1,8.19,1.95,39.7,39.7,0,0,1,5.85,2.27c1.56.78,2.69,1.39,3.38,1.82L119,318a49.23,49.23,0,0,0-9.68-3.77,46.29,46.29,0,0,0-12.55-1.56,27.74,27.74,0,0,0-9.17,1.56,20.72,20.72,0,0,0-7.93,5,24.93,24.93,0,0,0-5.52,8.9A37.29,37.29,0,0,0,72,341.38,47.39,47.39,0,0,0,73.38,353a24.8,24.8,0,0,0,4.42,9.29,21.33,21.33,0,0,0,8,6.18,28.55,28.55,0,0,0,12,2.27,54.1,54.1,0,0,0,7.93-.52,59,59,0,0,0,6.24-1.23,32.88,32.88,0,0,0,4.81-1.63c1.38-.6,2.64-1.17,3.77-1.69l5.59,16.25A47,47,0,0,1,114,386.62a70.35,70.35,0,0,1-18.07,2.08q-22,0-33.48-12.22T51,341.77A53.36,53.36,0,0,1,54.47,321.82ZM357.33,476.53q-136.11,0-272.24,0c-16.25,0-24.58-8.32-24.62-24.46,0-6.76,0-13.53,0-21h6.21c83.28,0,166.56-.24,249.84.2,16.9.08,26.73-10.24,26.53-26.64-.5-41.3-.16-82.61-.16-123.92,0-17.5-8.42-25.89-26-25.89H60.46v-5.6q0-95.82,0-191.62c0-7.45,1.63-14.1,7.49-19.23,4.37-3.84,9.59-5.17,15.18-5.18q93.81-.15,187.63-.21c.8,0,1.6.18,3.08.36,0,2.24,0,4.33,0,6.42.15,22.73-.19,45.46.6,68.16.61,17.54,16.05,32.76,33.68,33.29,21.88.66,43.79.22,65.68.25h7c.11,2,.28,3.76.28,5.51q.44,152.53.83,305.08C381.88,468.29,373.65,476.53,357.33,476.53Zm-181-121.82q-4.17-2.93-14.3-6.31-4.42-1.56-8.84-3.57a32.92,32.92,0,0,1-7.93-5.07,24.28,24.28,0,0,1-5.72-7.41,23.16,23.16,0,0,1-2.21-10.6,26.19,26.19,0,0,1,2.34-11.24,24,24,0,0,1,6.63-8.52,30.33,30.33,0,0,1,10.4-5.39,46.52,46.52,0,0,1,13.78-1.89A55.1,55.1,0,0,1,197.08,301l-5.85,16a54.93,54.93,0,0,0-8.39-3.44,36.15,36.15,0,0,0-11.11-1.5c-4.86,0-8.34.67-10.47,2a6.79,6.79,0,0,0-3.18,6.17,7.11,7.11,0,0,0,1.17,4.16,11.32,11.32,0,0,0,3.31,3.06,29.54,29.54,0,0,0,4.94,2.47c1.87.73,3.92,1.49,6.18,2.27q7,2.61,12.22,5.14a32.67,32.67,0,0,1,8.64,5.91,21.52,21.52,0,0,1,5.14,7.93,32.06,32.06,0,0,1,1.69,11.05q0,12.61-8.84,19.57t-26.65,6.95a74.72,74.72,0,0,1-10.79-.71,68.92,68.92,0,0,1-8.52-1.76A48.52,48.52,0,0,1,140.2,384a47,47,0,0,1-4.48-2.21l5.72-16.12a50.43,50.43,0,0,0,9.94,4,51.67,51.67,0,0,0,14.5,1.75,29.55,29.55,0,0,0,7.08-.71,13.19,13.19,0,0,0,4.49-1.95,6.65,6.65,0,0,0,2.34-2.93,10.46,10.46,0,0,0,.65-3.77Q180.44,357.64,176.28,354.71Zm30.29-57.92h22.36q2.52,7.83,5.62,16.85t6.31,18q3.21,9,6.16,17.17T252.65,363q2.55-5.93,5.55-14.14t6.23-17.16q3.21-9,6.3-18t5.64-16.89H298q-3,8.63-7,19.53t-8.62,22.86q-4.68,12-9.87,24.18t-10.56,23.52H242.6q-5.39-11.34-10.61-23.56t-9.94-24.15q-4.71-12-8.66-22.88T206.57,296.79Z"/></g></g></svg>