<svg xmlns="http://www.w3.org/2000/svg" viewBox="0 0 415.13 509.77"><title>Ресурс 1</title><g id="Слой_2" data-name="Слой 2"><g id="Слой_1-2" data-name="Слой 1"><path d="M141.7,367.26q8.76-9,8.75-25.27,0-16.51-8.54-25.34t-26.46-8.82a102.82,102.82,0,0,0-11.2.42V376c1,.09,2.38.16,4.06.21s4,.07,6.86.07Q133,376.29,141.7,367.26Z"/><path d="M235.29,330.16q5.75-2.87,5.74-10.29,0-7-5.95-9.94T219.61,307c-2.7,0-5.11.05-7.21.14s-3.89.23-5.39.42V333h12.46Q229.55,333,235.29,330.16Z"/><path d="M239.21,350.11q-6-3.23-16.66-3.22H207v29.54q2.94.29,6.3.42c2.24.09,4.3.14,6.16.14a68.38,68.38,0,0,0,10.15-.7,26.28,26.28,0,0,0,8.12-2.45,14.47,14.47,0,0,0,5.46-4.69,13,13,0,0,0,2-7.56Q245.23,353.33,239.21,350.11Z"/><path d="M410.39,123.53Q350.48,64.16,290.85,4.5A47,47,0,0,1,287.28,0h-213c-3,.85-6,1.62-8.94,2.56C42.21,9.87,27.43,30.48,27.41,55.74q-.11,96.29,0,192.58v6.28c-2.44.12-4.53.18-6.62.33C9.65,255.72,1.07,264,.49,275.08c-.43,8.1-.24,16.25-.25,24.37C.22,333.62.75,367.8,0,402c-.38,17.93,6.77,29.75,27.39,29.44,0,8.22-.15,16.45,0,24.68.38,18.11,8,32.59,22.52,43.33C60,506.9,71.53,509.78,84,509.77q137.09-.11,274.19-.08a76.7,76.7,0,0,0,12.85-1c23.71-4,42.52-25.39,43.73-49.44.15-3,.2-6,.2-8.95q0-157.76.12-315.5A14.31,14.31,0,0,0,410.39,123.53Zm-53.05,353H85.1c-16.25,0-24.58-8.32-24.62-24.46v-21h6.21c83.28,0,166.56-.24,249.84.2,16.9.08,26.73-10.24,26.53-26.64-.5-41.3-.16-82.61-.16-123.92,0-17.5-8.42-25.89-26-25.89H60.47V57.6c0-7.45,1.63-14.1,7.49-19.23,4.37-3.84,9.59-5.17,15.18-5.18Q177,33,270.77,33c.8,0,1.6.18,3.08.36v6.42c.15,22.73-.19,45.46.6,68.16.61,17.54,16.05,32.76,33.68,33.29,21.88.66,43.79.22,65.68.25h7c.11,2,.28,3.76.28,5.51q.45,152.54.83,305.08C381.89,468.29,373.66,476.53,357.34,476.53ZM86.61,389.17V295a84.65,84.65,0,0,1,14.28-2q7.56-.42,13.44-.42a81.26,81.26,0,0,1,22.26,2.87,45.76,45.76,0,0,1,17.29,9A40.11,40.11,0,0,1,165,319.8q3.93,9.31,3.92,22.19,0,12.6-3.92,21.91a41.31,41.31,0,0,1-11.13,15.54,46.29,46.29,0,0,1-17.36,9.24,79,79,0,0,1-22.47,3q-5.88,0-13.3-.49A89.82,89.82,0,0,1,86.61,389.17Zm172.48-42q4.2,5.74,4.2,14.56,0,15-10.92,22.47t-33.46,7.49q-7.69,0-15.54-.49a72.51,72.51,0,0,1-13.72-2V295q3.09-.56,6.58-1.05c2.34-.33,4.72-.58,7.14-.77s4.83-.33,7.21-.42,4.65-.14,6.79-.14a94.32,94.32,0,0,1,16.38,1.33,41.66,41.66,0,0,1,13.09,4.41,22.85,22.85,0,0,1,8.61,8.12,23.42,23.42,0,0,1,3.08,12.46,20.56,20.56,0,0,1-3.29,11.76,23.27,23.27,0,0,1-9.17,7.84Q254.89,341.43,259.09,347.17Z"/></g></g></svg>