<svg xmlns="http://www.w3.org/2000/svg" viewBox="0 0 21.76 24"><title>Ресурс 1</title><g id="Слой_2" data-name="Слой 2"><g id="Слой_1-2" data-name="Слой 1"><path d="M14.57,16.1a4.48,4.48,0,0,1,1,3.29c0,1.18,0,2.37,0,3.55,0,.4,0,.81.5,1L16,24H7.2c.46-.16.54-.51.53-.93,0-.8,0-1.6,0-2.42a5.93,5.93,0,0,1-3.42-.17,3.39,3.39,0,0,1-1.93-1.91A5,5,0,0,0,.45,16.13c-.2-.12-.3-.39-.45-.59a2.4,2.4,0,0,1,.76-.21,3,3,0,0,1,2.35,1.56A3.42,3.42,0,0,0,5,18.48a3.77,3.77,0,0,0,2.56-.21.41.41,0,0,0,.2-.26,3.47,3.47,0,0,1,.93-1.86c-.77-.17-1.53-.3-2.26-.5-3.27-.91-4.59-3.2-4.86-6.08a6.75,6.75,0,0,1,.7-4.16l.06-.12c.27-.38.68-.73.76-1.14s-.18-.9-.24-1.36A5.34,5.34,0,0,1,3.24.26.56.56,0,0,1,3.68,0,5.69,5.69,0,0,1,6.21.8a9.36,9.36,0,0,1,1.06.61,1,1,0,0,0,.9.14,15,15,0,0,1,7,0A1,1,0,0,0,16,1.42,8.82,8.82,0,0,1,19,.08C19.86-.09,20,0,20.2.76a5.81,5.81,0,0,1,0,3.15.6.6,0,0,0,.1.49,6.61,6.61,0,0,1,1.35,5.31,7.36,7.36,0,0,1-1.26,3.6,6.77,6.77,0,0,1-4.19,2.49C15.7,15.92,15.15,16,14.57,16.1Z"/></g></g></svg>