<svg xmlns="http://www.w3.org/2000/svg" viewBox="0 0 415.14 509.73"><title>Ресурс 3</title><g id="Слой_2" data-name="Слой 2"><g id="Слой_1-2" data-name="Слой 1"><path d="M410.38,123.53Q350.47,64.16,290.84,4.5A46.09,46.09,0,0,1,287.27,0h-213c-3,.85-6,1.62-8.94,2.56C42.2,9.87,27.42,30.48,27.4,55.74q-.11,96.29,0,192.58v6.28c-2.44.12-4.53.18-6.62.33C9.64,255.72,1.06,264,.48,275.08c-.43,8.1-.24,16.25-.25,24.37C.21,333.62.74,367.8,0,402c-.38,17.93,6.77,29.75,27.39,29.44,0,8.22-.15,16.45,0,24.68.38,18.11,8,32.59,22.52,43.33,10.08,7.45,21.61,10.33,34.1,10.32q137.08-.11,274.19-.08a76.81,76.81,0,0,0,12.85-1c23.71-4,42.52-25.39,43.73-49.44.15-3,.2-6,.2-8.95q0-157.75.12-315.5A14.33,14.33,0,0,0,410.38,123.53Zm-53.05,353q-136.11,0-272.24,0c-16.25,0-24.58-8.32-24.62-24.46,0-6.76,0-13.53,0-21h6.21c83.28,0,166.56-.24,249.84.2,16.9.08,26.73-10.24,26.53-26.64-.5-41.3-.16-82.61-.16-123.92,0-17.5-8.42-25.89-26-25.89H60.46v-5.6q0-95.82,0-191.62c0-7.45,1.63-14.1,7.49-19.23,4.37-3.84,9.59-5.17,15.18-5.18q93.81-.15,187.63-.21c.8,0,1.6.18,3.08.36,0,2.24,0,4.33,0,6.42.15,22.73-.19,45.46.6,68.16.61,17.54,16.05,32.76,33.68,33.29,21.88.66,43.79.22,65.68.25h7c.11,2,.28,3.76.28,5.51q.44,152.53.83,305.08C381.88,468.29,373.65,476.53,357.33,476.53Zm-233-120.46a31.77,31.77,0,0,1,1.82,11.44V384.8q0,5.46,2,8.06c1.34,1.74,4,2.6,7.87,2.6h3.25v15.47h-2.61A51.28,51.28,0,0,1,123,409.37a21.78,21.78,0,0,1-8.84-4.55,16.69,16.69,0,0,1-4.74-7.34,31.69,31.69,0,0,1-1.43-10V367.9a14.08,14.08,0,0,0-2.61-8.84q-2.6-3.37-8.44-3.38V340.34c3.9,0,6.71-1.12,8.44-3.38a14.06,14.06,0,0,0,2.61-8.84V308.49a31.63,31.63,0,0,1,1.43-9.94,16.77,16.77,0,0,1,4.74-7.35,21.91,21.91,0,0,1,8.84-4.55,51.28,51.28,0,0,1,13.71-1.56h2.61v15.47h-3.25c-3.9,0-6.53.87-7.87,2.6s-2,4.42-2,8.06v17.29A31.73,31.73,0,0,1,124.35,340q-1.83,4.68-7.28,8.06Q122.52,351.4,124.35,356.07ZM219.24,340a31.73,31.73,0,0,1-1.82-11.44V311.22c0-3.64-.67-6.32-2-8.06s-4-2.6-7.87-2.6h-3.25V285.09h2.6a51.36,51.36,0,0,1,13.72,1.56,21.91,21.91,0,0,1,8.84,4.55,16.77,16.77,0,0,1,4.74,7.35,31.92,31.92,0,0,1,1.43,9.94v19.63a14.12,14.12,0,0,0,2.6,8.84c1.73,2.26,4.55,3.38,8.45,3.38v15.34q-5.85,0-8.45,3.38a14.14,14.14,0,0,0-2.6,8.84v19.63a32,32,0,0,1-1.43,10,16.69,16.69,0,0,1-4.74,7.34,21.78,21.78,0,0,1-8.84,4.55,51.36,51.36,0,0,1-13.72,1.56h-2.6V395.46h3.25c3.9,0,6.52-.86,7.87-2.6s2-4.42,2-8.06V367.51a31.77,31.77,0,0,1,1.82-11.44q1.81-4.68,7.28-8.06Q221.06,344.64,219.24,340Z"/></g></g></svg>