<svg xmlns="http://www.w3.org/2000/svg" viewBox="0 0 415.14 509.73"><title>Ресурс 1</title><g id="Слой_2" data-name="Слой 2"><g id="Слой_1-2" data-name="Слой 1"><path d="M189.47,363q7.35-7.66,7.35-21.19,0-14.16-7-21.45T167.57,313c-1.39,0-2.82,0-4.29.07a40.45,40.45,0,0,0-4.16.32v56.94c.95.09,2.06.16,3.31.2s2.75.06,4.49.06Q182.13,370.63,189.47,363Z"/><path d="M97.63,336.57q5.33-2.85,5.33-10.66a12.81,12.81,0,0,0-1.37-6.24,10.37,10.37,0,0,0-3.9-4,17.52,17.52,0,0,0-6.17-2.08,51.06,51.06,0,0,0-8.06-.59c-1.48,0-2.93,0-4.36.13s-2.66.18-3.7.26v26h6.37Q92.3,339.43,97.63,336.57Z"/><path d="M410.38,123.53Q350.47,64.16,290.84,4.5A46.09,46.09,0,0,1,287.27,0h-213c-3,.85-6,1.62-8.94,2.56C42.2,9.87,27.42,30.48,27.4,55.74q-.11,96.29,0,192.58v6.28c-2.44.12-4.53.18-6.62.33C9.64,255.72,1.06,264,.48,275.08c-.43,8.1-.24,16.25-.25,24.37C.21,333.62.74,367.8,0,402c-.38,17.93,6.77,29.75,27.39,29.44,0,8.22-.15,16.45,0,24.68.38,18.11,8,32.59,22.52,43.33,10.08,7.45,21.61,10.33,34.1,10.32q137.08-.11,274.19-.08a76.81,76.81,0,0,0,12.85-1c23.71-4,42.52-25.39,43.73-49.44.15-3,.2-6,.2-8.95q0-157.75.12-315.5A14.33,14.33,0,0,0,410.38,123.53ZM55.12,298.09a116.72,116.72,0,0,1,14-1.82q7.41-.51,13-.52,20.15,0,30.94,7.09T123.89,326q0,16.26-10.92,23.47t-31.2,7.21H75.4v30.16H55.12ZM357.33,476.53q-136.11,0-272.24,0c-16.25,0-24.58-8.32-24.62-24.46,0-6.76,0-13.53,0-21h6.21c83.28,0,166.56-.24,249.84.2,16.9.08,26.73-10.24,26.53-26.64-.5-41.3-.16-82.61-.16-123.92,0-17.5-8.42-25.89-26-25.89H60.46v-5.6q0-95.82,0-191.62c0-7.45,1.63-14.1,7.49-19.23,4.37-3.84,9.59-5.17,15.18-5.18q93.81-.15,187.63-.21c.8,0,1.6.18,3.08.36,0,2.24,0,4.33,0,6.42.15,22.73-.19,45.46.6,68.16.61,17.54,16.05,32.76,33.68,33.29,21.88.66,43.79.22,65.68.25h7c.11,2,.28,3.76.28,5.51q.44,152.53.83,305.08C381.88,468.29,373.65,476.53,357.33,476.53ZM138.84,385.71V298a120.05,120.05,0,0,1,14.62-1.75q7.6-.46,13.07-.46a79,79,0,0,1,21,2.6,43.14,43.14,0,0,1,16.19,8.19,36.57,36.57,0,0,1,10.4,14.3q3.63,8.71,3.64,20.93a52.76,52.76,0,0,1-3.64,20.41,37.73,37.73,0,0,1-10.34,14.43,43.86,43.86,0,0,1-16.31,8.58,75.57,75.57,0,0,1-21.58,2.86q-5.46,0-12.74-.45A104,104,0,0,1,138.84,385.71Zm151.71-53v17H254.93v37.18H234.65V296.79H295v17h-40v18.85Z"/></g></g></svg>