<svg xmlns="http://www.w3.org/2000/svg" viewBox="0 0 415.14 509.73"><title>Ресурс 4</title><g id="Слой_2" data-name="Слой 2"><g id="Слой_1-2" data-name="Слой 1"><path d="M410.38,123.53Q350.47,64.16,290.84,4.5A46.09,46.09,0,0,1,287.27,0h-213c-3,.85-6,1.62-8.94,2.56C42.2,9.87,27.42,30.48,27.4,55.74q-.11,96.29,0,192.58v6.28c-2.44.12-4.53.18-6.62.33C9.64,255.72,1.06,264,.48,275.08c-.43,8.1-.24,16.25-.25,24.37C.21,333.62.74,367.8,0,402c-.38,17.93,6.77,29.75,27.39,29.44,0,8.22-.15,16.45,0,24.68.38,18.11,8,32.59,22.52,43.33,10.08,7.45,21.61,10.33,34.1,10.32q137.08-.11,274.19-.08a76.81,76.81,0,0,0,12.85-1c23.71-4,42.52-25.39,43.73-49.44.15-3,.2-6,.2-8.95q0-157.75.12-315.5A14.33,14.33,0,0,0,410.38,123.53ZM47.32,314.08V296.79h74.62v17.29H94.77v72.8H74.49v-72.8Zm310,162.45q-136.11,0-272.24,0c-16.25,0-24.58-8.32-24.62-24.46,0-6.76,0-13.53,0-21h6.21c83.28,0,166.56-.24,249.84.2,16.9.08,26.73-10.24,26.53-26.64-.5-41.3-.16-82.61-.16-123.92,0-17.5-8.42-25.89-26-25.89H60.46v-5.6q0-95.82,0-191.62c0-7.45,1.63-14.1,7.49-19.23,4.37-3.84,9.59-5.17,15.18-5.18q93.81-.15,187.63-.21c.8,0,1.6.18,3.08.36,0,2.24,0,4.33,0,6.42.15,22.73-.19,45.46.6,68.16.61,17.54,16.05,32.76,33.68,33.29,21.88.66,43.79.22,65.68.25h7c.11,2,.28,3.76.28,5.51q.44,152.53.83,305.08C381.88,468.29,373.65,476.53,357.33,476.53ZM130.52,296.79h24.57l17.16,26.09,17.55-26.09h23.14L183.7,340.27a276.31,276.31,0,0,1,18.94,26.42q7.43,12,11.73,20.19H190.11q-3.81-7.53-8.33-15.24a55.32,55.32,0,0,0-10.39-13.06q-1.81,2-4.61,5.59t-5.58,7.6q-2.79,4-5.22,8.34c-1.63,2.88-2.83,5.14-3.62,6.77H129.22a235.85,235.85,0,0,1,13.42-21.79q7.74-11.23,17.27-23.86Zm91.13,17.29V296.79h74.62v17.29H269.1v72.8H248.81v-72.8Z"/></g></g></svg>