<svg xmlns="http://www.w3.org/2000/svg" viewBox="0 0 24 24"><defs><style>.cls-1{fill:#0253b4;}.cls-2{fill:#d70229;}.cls-3{fill:#fff;}</style></defs><title>Ресурс 1</title><g id="Слой_2" data-name="Слой 2"><g id="Слой_1-2" data-name="Слой 1"><circle class="cls-1" cx="12" cy="12" r="12"/><path class="cls-2" d="M.07,13.58C.05,13,0,12.51,0,12s.05-1,.07-1.51l0,0,0,0H10.37l0,0,0,0V.11a11.39,11.39,0,0,1,3.14,0V10.42H23.89a11.57,11.57,0,0,1,0,3.11l0,0H13.63l0,0,0,0V23.88a11,11,0,0,1-3.14,0V13.58Z"/><path class="cls-2" d="M19.69,2.83a3.57,3.57,0,0,1,.77.66c-.17.26-5,5.1-5.28,5.29,0,0,0,0,0-.06V7.39Z"/><path class="cls-2" d="M8.8,8.84H7.37L2.82,4.32a3.63,3.63,0,0,1,.66-.78C3.72,3.69,8.55,8.5,8.8,8.84Z"/><path class="cls-2" d="M21.18,19.72l-.64.72c-.27-.17-5.06-4.94-5.33-5.3H16.5c.15,0,.22.11.3.19.79.78,1.57,1.57,2.36,2.36l1.75,1.75A3.69,3.69,0,0,1,21.18,19.72Z"/><path class="cls-2" d="M8.85,15.17c0,.48,0,.88,0,1.27a.48.48,0,0,1-.18.35c-.67.66-1.33,1.32-2,2S5.27,20.19,4.57,20.9a2.1,2.1,0,0,0-.25.31l-.74-.65v-.09s0,0,0,0l4.95-5Z"/><path class="cls-3" d="M1,16.83c0,.07.07.14.1.22C1.08,17,1,16.9,1,16.83Z"/><path class="cls-3" d="M1.25,17.35l.12.22Z"/><path class="cls-3" d="M.54,8.43a12.65,12.65,0,0,0-.44,2h0l0,0H10.37l0,0,0,0V.11A14,14,0,0,0,8.83.43V6.56l-4.1-4.1A11.65,11.65,0,0,0,3.49,3.55c.38.29,5.06,5,5.31,5.29H7.37L2.82,4.32l.06-.11c-.19.22-.37.45-.54.68l.11-.14L6.53,8.84H.47A2.05,2.05,0,0,1,.54,8.43Z"/><path class="cls-3" d="M1.13,17.09l.1.22Z"/><path class="cls-3" d="M21.62,4.84v0Z"/><path class="cls-3" d="M15.25.46A11.78,11.78,0,0,0,13.56.11V10.42H23.89c0,.23.06.47.08.7a11.45,11.45,0,0,0-.4-2.28H17.44l4.1-4.1A11.56,11.56,0,0,0,20.46,3.5c-.25.33-5,5.09-5.28,5.28,0,0,0,0,0-.06V7.39l4.55-4.56.11.06-.54-.43c-.16.24-3.66,3.78-4.11,4.14V.46Z"/><path class="cls-3" d="M23.51,15.39A11.62,11.62,0,0,0,24,12.81c0,.24,0,.48-.07.72l0,0H13.63l0,0,0,0V23.88a11,11,0,0,1-3.14,0V13.58H.1a11.63,11.63,0,0,0,.32,1.58H6.55l-4.1,4.1a11.27,11.27,0,0,1-1.07-1.67,11.88,11.88,0,0,0,2.2,3v-.08s0,0,0,0l4.95-5,.31-.3c0,.48,0,.88,0,1.27a.48.48,0,0,1-.18.35c-.67.66-1.33,1.32-2,2S5.27,20.19,4.57,20.9a2.1,2.1,0,0,0-.25.31l-.65-.57a12,12,0,0,0,4.25,2.65,12,12,0,0,1-3.2-1.77l4.11-4.11v6.11a2.82,2.82,0,0,1-.76-.18,12,12,0,0,0,12.46-2.91c-.27-.18-5.05-4.93-5.32-5.29H16.5c.15,0,.22.11.3.19.79.78,1.57,1.57,2.36,2.36l1.75,1.75a3.69,3.69,0,0,1,.27.28l-.62.69a12,12,0,0,0,2.91-4.89,11.9,11.9,0,0,1-1.93,3.74c-.23-.14-3.75-3.62-4.14-4.11h6.15A1.72,1.72,0,0,1,23.51,15.39Zm-4.25,6.15a11.76,11.76,0,0,1-4.1,2V17.44Z"/><path class="cls-3" d="M24,12.68v0Z"/><path class="cls-3" d="M.53,15.54l0,.09Z"/><path class="cls-3" d="M0,12c0,.34,0,.67,0,1,0-.35,0-.68,0-1s0-.69,0-1C0,11.31,0,11.66,0,12Z"/><path class="cls-3" d="M.61,15.78.67,16Z"/><path class="cls-3" d="M.79,16.29l.09.24Z"/><path class="cls-3" d="M.69,16l.09.23Z"/><path class="cls-3" d="M.89,16.56a1.6,1.6,0,0,1,.1.23A1.6,1.6,0,0,0,.89,16.56Z"/></g></g></svg>