<svg xmlns="http://www.w3.org/2000/svg" viewBox="0 0 44 44"><defs><style>.cls-1{fill:#0f0f0f;}.cls-2{fill:none;}</style></defs><title>asterisk</title><g id="Слой_2" data-name="Слой 2"><g id="Слой_4" data-name="Слой 4"><g id="asterisk"><path class="cls-1" d="M32.23,28.27a1,1,0,0,1-.85.47,1,1,0,0,1-.52-.14L23,23.79V33a1,1,0,0,1-1,1,1,1,0,0,1-1-1V23.79L13.14,28.6a1,1,0,0,1-.52.14,1,1,0,0,1-.52-1.85l8-4.89-8-4.89a1,1,0,0,1-.33-1.38,1,1,0,0,1,1.37-.33L21,20.21V11a1,1,0,0,1,1-1,1,1,0,0,1,1,1v9.21l7.86-4.81a1,1,0,0,1,1.37.33,1,1,0,0,1-.33,1.38l-8,4.89,8,4.89A1,1,0,0,1,32.23,28.27Z"/><circle class="cls-2" cx="22" cy="22" r="22"/><rect class="cls-2" x="10" y="10" width="24" height="24"/></g></g></g></svg>