<svg xmlns="http://www.w3.org/2000/svg" viewBox="0 0 44 44"><defs><style>.cls-1{fill:#0f0f0f;}.cls-2{fill:none;}</style></defs><title>at</title><g id="Слой_2" data-name="Слой 2"><g id="Слой_4" data-name="Слой 4"><g id="at"><path class="cls-1" d="M22,10A12,12,0,0,0,10,22c-.13,9.57,11.15,15.42,18.89,9.81a1,1,0,1,0-1.11-1.66l0,0C21.3,34.85,11.91,30,12,22c.31-7.46,7.22-11.27,12-9.73A11.38,11.38,0,0,1,32,22v2a2,2,0,0,1-2.11,2A2,2,0,0,1,28,24V22c-.26-7.92-11.75-7.92-12,0a6,6,0,0,0,10.52,3.93A4,4,0,0,0,34,24V22C34,16.77,28.68,9.74,22,10Zm0,16a4,4,0,1,1,4-4A4,4,0,0,1,22,26Z"/><circle class="cls-2" cx="22" cy="22" r="22"/><rect class="cls-2" x="10" y="10" width="24" height="24"/></g></g></g></svg>