<svg xmlns="http://www.w3.org/2000/svg" viewBox="0 0 44 44"><defs><style>.cls-1{fill:#0f0f0f;}.cls-2{fill:none;}</style></defs><title>ban-bug</title><g id="Слой_2" data-name="Слой 2"><g id="Слой_4" data-name="Слой 4"><g id="ban-bug"><path class="cls-1" d="M22,10A12,12,0,1,0,34,22,12,12,0,0,0,22,10ZM32,22a10,10,0,0,1-2.27,6.34l-.86-.86A1,1,0,0,0,29,27a3,3,0,0,0-2-2.83c0-.06,0-.12,0-.18A7.32,7.32,0,0,0,27,23h1a1,1,0,1,0,0-2H26.6l-.24-1A3,3,0,0,0,29,17.05a1,1,0,0,0-.86-1A1,1,0,0,0,27,17a1,1,0,0,1-1,1h-.19c-.11-.36-.2-.62-.23-.69A3.89,3.89,0,0,0,22.05,15a3.83,3.83,0,0,0-3.47,2.19l-2.93-2.93A10,10,0,0,1,32,22Zm-7,1.56L20.2,18.79c.07-.35.13-.61.15-.68a1.84,1.84,0,0,1,3.38,0A29.85,29.85,0,0,1,25,23.57ZM12,22a9.94,9.94,0,0,1,2.26-6.32L28.32,29.74A10,10,0,0,1,12,22Zm11.28,6.86A4.84,4.84,0,0,1,22,29a5.16,5.16,0,0,1-1.16-.13,4.93,4.93,0,0,1-3.33-2.74A1,1,0,0,0,17,27a1,1,0,0,1-1.19,1A1,1,0,0,1,15,27a3,3,0,0,1,2-2.76c0-.12,0-.24,0-.36v-.42a.4.4,0,0,0-.4-.4H16a1,1,0,1,1,0-2h.61A2.41,2.41,0,0,1,19,23.4v.44A3.14,3.14,0,0,0,21.3,27a3.22,3.22,0,0,0,1.48,0,1,1,0,0,1,.5,1.95Z"/><circle class="cls-2" cx="22" cy="22" r="22"/><rect class="cls-2" x="10" y="10" width="24" height="24"/></g></g></g></svg>