<svg xmlns="http://www.w3.org/2000/svg" viewBox="0 0 44 44"><defs><style>.cls-1{fill:#0f0f0f;}.cls-2{fill:none;}</style></defs><title>bolt</title><g id="Слой_2" data-name="Слой 2"><g id="Слой_4" data-name="Слой 4"><g id="bolt"><path class="cls-1" d="M21.27,34a2.23,2.23,0,0,1-2.14-2.83L20.69,26H17a3,3,0,0,1-3-3,3.29,3.29,0,0,1,.13-.88l3-10A3,3,0,0,1,20,10h3.7a2.61,2.61,0,0,1,2.61,2.61,2.58,2.58,0,0,1-.17.91L24.47,18H27a3,3,0,0,1,2.48,4.68L23.11,33A2.2,2.2,0,0,1,21.27,34ZM20,12a1,1,0,0,0-1,.71l-3,10A1,1,0,0,0,16.89,24H22a1,1,0,0,1,1,1,.92.92,0,0,1,0,.29l-1.94,6.43a.19.19,0,0,0,.1.24h0a.19.19,0,0,0,.26-.06h0l6.39-10.28a1,1,0,0,0-.8-1.6H23a1,1,0,0,1-1-1,1.13,1.13,0,0,1,.06-.36l2.2-5.86a.59.59,0,0,0-.35-.77.52.52,0,0,0-.21,0Z"/><circle class="cls-2" cx="22" cy="22" r="22"/><rect class="cls-2" x="10" y="10" width="24" height="24"/></g></g></g></svg>