<svg xmlns="http://www.w3.org/2000/svg" viewBox="0 0 44 44"><defs><style>.cls-1{fill:#0f0f0f;}.cls-2{fill:none;}</style></defs><title>book-person</title><g id="Слой_2" data-name="Слой 2"><g id="Слой_4" data-name="Слой 4"><g id="book-person"><path class="cls-1" d="M21.5,16.5A2.5,2.5,0,1,1,24,19,2.49,2.49,0,0,1,21.5,16.5Zm-1.6,7.35a1,1,0,0,0,1.37-.33,3.2,3.2,0,0,1,5.45,0,1,1,0,0,0,.85.48,1,1,0,0,0,.52-.15,1,1,0,0,0,.34-1.37,5.21,5.21,0,0,0-8.87,0,1,1,0,0,0,.34,1.37ZM32,15V29a5,5,0,0,1-5,5H16a4,4,0,0,1-4-4V15a5,5,0,0,1,5-5H27A5,5,0,0,1,32,15Zm-5-3H18V26H30V15A3,3,0,0,0,27,12ZM14,15V26.61a4,4,0,0,1,2-.56V12.13A3,3,0,0,0,14,15ZM30,29V28H16.09a2,2,0,1,0,0,4H27A3,3,0,0,0,30,29Z"/><circle class="cls-2" cx="22" cy="22" r="22"/><rect class="cls-2" x="10" y="10" width="24" height="24"/></g></g></g></svg>