<svg xmlns="http://www.w3.org/2000/svg" viewBox="0 0 44 44"><defs><style>.cls-1{fill:#0f0f0f;}.cls-2{fill:none;}</style></defs><title>book-primer</title><g id="Слой_2" data-name="Слой 2"><g id="Слой_4" data-name="Слой 4"><g id="book-primer"><path class="cls-1" d="M27,10H17a5,5,0,0,0-5,5V30a4,4,0,0,0,4,4H27a5,5,0,0,0,5-5V15A5,5,0,0,0,27,10Zm3,5V26H18V12h9A3,3,0,0,1,30,15ZM16,12.1V26a3.94,3.94,0,0,0-2,.56V14.94A3,3,0,0,1,16,12.1ZM28,32H15.69a1.51,1.51,0,0,1-1.07-.51A2,2,0,0,1,16.05,28H30V30A2,2,0,0,1,28,32ZM20.8,24h0a1,1,0,0,0,.94-.66L22.22,22h3.59l.48,1.34a1,1,0,1,0,1.88-.68L25.43,15a1.5,1.5,0,0,0-2.82,0l-2.74,7.69A1,1,0,0,0,20.81,24Zm4.3-4H22.94L24,17Z"/><circle class="cls-2" cx="22" cy="22" r="22"/><rect class="cls-2" x="10" y="10" width="24" height="24"/></g></g></g></svg>