<svg xmlns="http://www.w3.org/2000/svg" viewBox="0 0 44 44"><defs><style>.cls-1{fill:#0f0f0f;}.cls-2{fill:none;}</style></defs><title>book-opened</title><g id="Слой_2" data-name="Слой 2"><g id="Слой_4" data-name="Слой 4"><g id="book-opened"><path class="cls-1" d="M32.2,12.69a5,5,0,0,0-4.1-1.08l-3.82.69A4,4,0,0,0,22,13.59a4,4,0,0,0-2.28-1.29l-3.82-.69a5,5,0,0,0-5.82,4,5.29,5.29,0,0,0-.08.9V27.32a5,5,0,0,0,4.11,4.92l6.28,1.14a9.17,9.17,0,0,0,3.22,0l6.29-1.14A5,5,0,0,0,34,27.32V16.53A5,5,0,0,0,32.2,12.69ZM21,31.45l-.25,0-6.29-1.14A3,3,0,0,1,12,27.32V16.53a3,3,0,0,1,3-3,3.27,3.27,0,0,1,.54,0l3.82.7a2,2,0,0,1,1.64,2Zm11-4.13a3,3,0,0,1-2.47,2.95l-6.28,1.14-.25,0V16.24a2,2,0,0,1,1.64-2l3.82-.7A3,3,0,0,1,31.94,16a3.31,3.31,0,0,1,0,.55Z"/><circle class="cls-2" cx="22" cy="22" r="22"/><rect class="cls-2" x="10" y="10" width="24" height="24"/></g></g></g></svg>