<svg xmlns="http://www.w3.org/2000/svg" viewBox="0 0 44 44"><defs><style>.cls-1{fill:#0f0f0f;}.cls-2{fill:none;}</style></defs><title>buildings</title><g id="Слой_2" data-name="Слой 2"><g id="Слой_4" data-name="Слой 4"><g id="buildings"><path class="cls-1" d="M16,24.5H15a1,1,0,0,1-1-.81,1,1,0,0,1,1-1.21h1a1,1,0,0,1,1,1.21A1,1,0,0,1,16,24.5Zm5-2H20a1,1,0,1,0,0,2h1a1,1,0,0,0,1-.81A1,1,0,0,0,21,22.48Zm-5,4H15a1,1,0,1,0,0,2h1a1,1,0,1,0,0-2Zm5,0H20a1,1,0,1,0,0,2h1a1,1,0,1,0,0-2Zm-5-12H15a1,1,0,1,0,0,2h1a1,1,0,1,0,0-2Zm5,0H20a1,1,0,1,0,0,2h1a1,1,0,1,0,0-2Zm-5,4H15a1,1,0,1,0,0,2h1a1,1,0,1,0,0-2Zm5,0H20a1,1,0,1,0,0,2h1a1,1,0,1,0,0-2Zm13,1v9a5,5,0,0,1-5,5H15a5,5,0,0,1-5-5v-14a5,5,0,0,1,5-5h6a5,5,0,0,1,5,5h3A5,5,0,0,1,34,19.53Zm-19,12h9v-17a3,3,0,0,0-3-3H15a3,3,0,0,0-3,3v14A3,3,0,0,0,15,31.53Zm14-15H26v15h3a3,3,0,0,0,3-3v-9A3,3,0,0,0,29,16.53Zm0,6a1,1,0,1,0,1,1A1,1,0,0,0,29,22.51Zm0,4a1,1,0,1,0,1,1A1,1,0,0,0,29,26.51Zm0-8a1,1,0,1,0,1,1A1,1,0,0,0,29,18.51Z"/><circle class="cls-2" cx="22" cy="22" r="22"/><rect class="cls-2" x="10" y="10" width="24" height="24"/></g></g></g></svg>