<svg xmlns="http://www.w3.org/2000/svg" viewBox="0 0 44 44"><defs><style>.cls-1{fill:#0f0f0f;}.cls-2{fill:none;}</style></defs><title>bulb</title><g id="Слой_2" data-name="Слой 2"><g id="Слой_4" data-name="Слой 4"><g id="bulb"><path class="cls-1" d="M27.94,11.76a9,9,0,0,0-12.11,13.3A6.24,6.24,0,0,1,18,29.62v.16a3.69,3.69,0,0,0,3.68,3.69h.56a3.72,3.72,0,0,0,3.73-3.69v-.54a5.27,5.27,0,0,1,1.95-4,8.92,8.92,0,0,0,.85-12.69,9.81,9.81,0,0,0-.79-.79ZM22.25,31.51h-.62a1.71,1.71,0,0,1-1.7-1.71s0-.26,0-.31h4v.31A1.72,1.72,0,0,1,22.25,31.51Zm4.36-7.78a7.6,7.6,0,0,0-2.38,3.75H23V20.27a3,3,0,0,0,2-2.82,1,1,0,0,0-2,0,1,1,0,0,1-2,0,1,1,0,0,0-2,0,3,3,0,0,0,2,2.82v7.21H19.63a8.66,8.66,0,0,0-2.47-3.89,7,7,0,0,1-.35-9.92,7.07,7.07,0,0,1,4.33-2.19,7.81,7.81,0,0,1,.83,0,7,7,0,0,1,5.26,11.68,7.15,7.15,0,0,1-.62.61Z"/><circle class="cls-2" cx="22" cy="22" r="22"/><rect class="cls-2" x="10" y="10" width="24" height="24"/></g></g></g></svg>