<svg xmlns="http://www.w3.org/2000/svg" viewBox="0 0 44 44"><defs><style>.cls-1{fill:#0f0f0f;}.cls-2{fill:none;}</style></defs><title>chart-pie-filled</title><g id="Слой_2" data-name="Слой 2"><g id="Слой_4" data-name="Слой 4"><g id="chart-pie-filled"><path class="cls-1" d="M28.82,21.94H24.07a2,2,0,0,1-2-2V15.16a3,3,0,0,0-1.18-2.4,2.9,2.9,0,0,0-2.5-.53,11.05,11.05,0,1,0,13.39,13.4,2.93,2.93,0,0,0-.53-2.51A3.09,3.09,0,0,0,28.82,21.94Z"/><path class="cls-1" d="M33.93,17.2a10.14,10.14,0,0,0-7.13-7.13,4.92,4.92,0,0,0-.54-.07,1.91,1.91,0,0,0-1.18.37,2.09,2.09,0,0,0-.8,1.19,2.31,2.31,0,0,0-.05.46v4.73a3,3,0,0,0,3,3H32a2,2,0,0,0,1.6-.8A2.09,2.09,0,0,0,34,17.68,2.67,2.67,0,0,0,33.93,17.2Z"/><circle class="cls-2" cx="22" cy="22" r="22"/><rect class="cls-2" x="10" y="10" width="24" height="24"/></g></g></g></svg>