<svg xmlns="http://www.w3.org/2000/svg" viewBox="0 0 44 44"><defs><style>.cls-1{fill:#0f0f0f;}.cls-2{fill:none;}</style></defs><title>chart-histogram-filled</title><g id="Слой_2" data-name="Слой 2"><g id="Слой_4" data-name="Слой 4"><g id="chart-histogram-filled"><path class="cls-1" d="M34,22a3,3,0,0,1-3,3H13a3,3,0,0,1,0-6H31A3,3,0,0,1,34,22ZM13,16H25a3,3,0,0,0,0-6H13a3,3,0,0,0,0,6Zm6,12H13a3,3,0,0,0,0,6h6a3,3,0,0,0,0-6Z"/><circle class="cls-2" cx="22" cy="22" r="22"/><rect class="cls-2" x="10" y="10" width="24" height="24"/></g></g></g></svg>