<svg xmlns="http://www.w3.org/2000/svg" viewBox="0 0 44 44"><defs><style>.cls-1{fill:#0f0f0f;}.cls-2{fill:none;}</style></defs><title>circle-person</title><g id="Слой_2" data-name="Слой 2"><g id="Слой_4" data-name="Слой 4"><g id="circle-person"><path class="cls-1" d="M22,10A12,12,0,1,0,34,22,12,12,0,0,0,22,10ZM18,31.17V31a4,4,0,1,1,8,0v.17a10.1,10.1,0,0,1-8,0Zm10-1.12a6,6,0,0,0-11.85,0,10,10,0,1,1,11.85,0ZM22,15a4,4,0,1,0,4,4A4,4,0,0,0,22,15Zm0,6a2,2,0,1,1,2-2A2,2,0,0,1,22,21Z"/><circle class="cls-2" cx="22" cy="22" r="22"/><rect class="cls-2" x="10" y="10" width="24" height="24"/></g></g></g></svg>