<svg xmlns="http://www.w3.org/2000/svg" viewBox="0 0 44 44"><defs><style>.cls-1{fill:#0f0f0f;}.cls-2{fill:none;}</style></defs><title>circle-loading</title><g id="Слой_2" data-name="Слой 2"><g id="Слой_4" data-name="Слой 4"><g id="circle-loading"><path class="cls-1" d="M23,11v2a1,1,0,1,1-2,0V11a1,1,0,1,1,2,0ZM21,31v2a1,1,0,1,0,2,0V31a1,1,0,1,0-2,0ZM13,21H11a1,1,0,1,0,0,2h2a1,1,0,1,0,0-2Zm20,0H31a1,1,0,1,0,0,2h2a1,1,0,1,0,0-2Zm-5-9.36a1,1,0,0,0-1.36.36h0l-1,1.72A1,1,0,0,0,26,15.09a1,1,0,0,0,.5.13,1,1,0,0,0,.86-.5l1-1.73A1,1,0,0,0,28,11.63ZM18,28.91a1,1,0,0,0-1.36.37l-1,1.72A1,1,0,0,0,16,32.37a1,1,0,0,0,.5.13,1,1,0,0,0,.87-.5l1-1.72A1,1,0,0,0,18,28.91ZM14.72,16.63l-1.72-1a1,1,0,0,0-1,1.73l1.73,1a1,1,0,0,0,1-1.73ZM32,26.64l-1.73-1a1,1,0,0,0-1.35.4,1,1,0,0,0,.35,1.33l1.73,1a1,1,0,0,0,1.5-.86,1,1,0,0,0-.5-.87ZM17.36,12A1,1,0,0,0,16,11.67,1,1,0,0,0,15.63,13l1,1.73a1,1,0,0,0,.87.5,1,1,0,0,0,.5-.13,1,1,0,0,0,.36-1.37Zm10,17.27a1,1,0,0,0-1.73,1l1,1.73a1,1,0,0,0,1.38.32A1,1,0,0,0,28.37,31Zm2.41-10.78a1,1,0,0,0,.5-.14l1.72-1a1,1,0,0,0-1-1.72l-1.73,1a1,1,0,0,0,.5,1.87ZM13.72,25.64l-1.72,1a1,1,0,0,0,.49,1.87,1,1,0,0,0,.5-.14l1.73-1A1,1,0,0,0,15.05,26a1,1,0,0,0-1.33-.36Z"/><circle class="cls-2" cx="22" cy="22" r="22"/><rect class="cls-2" x="10" y="10" width="24" height="24"/></g></g></g></svg>