<svg xmlns="http://www.w3.org/2000/svg" viewBox="0 0 44 44"><defs><style>.cls-1{fill:#0f0f0f;}.cls-2{fill:none;}</style></defs><title>circle-plus</title><g id="Слой_2" data-name="Слой 2"><g id="Слой_4" data-name="Слой 4"><g id="circle-plus"><path class="cls-1" d="M22,10A12,12,0,1,0,34,22,12,12,0,0,0,22,10Zm0,22A10,10,0,1,1,32,22,10,10,0,0,1,22,32Zm4-9H23v3a1,1,0,1,1-2,0V23H18a1,1,0,1,1,0-2h3V18a1,1,0,0,1,.8-1A1,1,0,0,1,23,18v3h3a1,1,0,1,1,0,2Z"/><circle class="cls-2" cx="22" cy="22" r="22"/><rect class="cls-2" x="10" y="10" width="24" height="24"/></g></g></g></svg>