<svg xmlns="http://www.w3.org/2000/svg" viewBox="0 0 44 44"><defs><style>.cls-1{fill:#0f0f0f;}.cls-2{fill:none;}</style></defs><title>clock-check</title><g id="Слой_2" data-name="Слой 2"><g id="Слой_4" data-name="Слой 4"><g id="clock-check"><path class="cls-1" d="M33.71,26.32a1,1,0,0,0-1.42,0L26.67,32,24,29.3a1,1,0,1,0-1.44,1.4l2.75,2.7a1.88,1.88,0,0,0,1.34.6h0A1.88,1.88,0,0,0,28,33.45l5.71-5.71a1,1,0,0,0,0-1.42Z"/><path class="cls-1" d="M21.09,32A10,10,0,1,1,32,22a9.1,9.1,0,0,1,0,.91,1,1,0,0,0,.9,1.09h0A1,1,0,0,0,34,23.11v0c0-.36,0-.72,0-1.09A12,12,0,1,0,20.91,34H21a1,1,0,1,0,.09-2Z"/><path class="cls-1" d="M21,17v4.59l-2.71,2.7a1,1,0,0,0,1.39,1.44l0,0,3-3A1.05,1.05,0,0,0,23,22V17a1,1,0,0,0-2,0Z"/><circle class="cls-2" cx="22" cy="22" r="22"/><rect class="cls-2" x="10" y="10" width="24" height="24"/></g></g></g></svg>