<svg xmlns="http://www.w3.org/2000/svg" viewBox="0 0 44 44"><defs><style>.cls-1{fill:#0f0f0f;}.cls-2{fill:none;}</style></defs><title>display-code</title><g id="Слой_2" data-name="Слой 2"><g id="Слой_4" data-name="Слой 4"><g id="display-code"><path class="cls-1" d="M28.12,17.89a3,3,0,0,1,0,4.24l-2.58,2.58a1,1,0,0,1-.71.3,1,1,0,0,1-.71-.3,1,1,0,0,1,0-1.41l2.59-2.59a1,1,0,0,0,0-1.41l-2.59-2.58a1,1,0,1,1,1.42-1.42l2.58,2.59Zm-8.24-1.17a1,1,0,1,0-1.42-1.42l-2.58,2.59a3,3,0,0,0,0,4.24l2.58,2.58a1,1,0,1,0,1.42-1.41l-2.59-2.59a1,1,0,0,1,0-1.41l2.59-2.58ZM34,16v8a5,5,0,0,1-5,5H23v2h4a1,1,0,1,1,0,2H17a1,1,0,0,1,0-2h4V29H15a5,5,0,0,1-5-5V16a5,5,0,0,1,5-5H29A5,5,0,0,1,34,16Zm-5-3H15a3,3,0,0,0-3,3v8a3,3,0,0,0,3,3H29a3,3,0,0,0,3-3V16A3,3,0,0,0,29,13Z"/><circle class="cls-2" cx="22" cy="22" r="22"/><rect class="cls-2" x="10" y="10" width="24" height="24"/></g></g></g></svg>