<svg xmlns="http://www.w3.org/2000/svg" viewBox="0 0 44 44"><defs><style>.cls-1{fill:#0f0f0f;}.cls-2{fill:none;}</style></defs><title>document-code</title><g id="Слой_2" data-name="Слой 2"><g id="Слой_4" data-name="Слой 4"><g id="document-code"><path class="cls-1" d="M18.3,25a1,1,0,0,0,0,1.41l2,2a1,1,0,0,1,0,1.42,1,1,0,0,1-.71.29,1,1,0,0,1-.7-.29l-2-2a3,3,0,0,1,0-4.24L19,21.47a1,1,0,0,1,1.41,0,1,1,0,0,1,0,1.42L18.3,25Zm6.77-3.48a1,1,0,0,0-1.42,1.42L25.71,25a1,1,0,0,1,0,1.41l-2,2a1,1,0,0,0,0,1.42,1,1,0,0,0,.7.29,1,1,0,0,0,.71-.29l2-2a3,3,0,0,0,0-4.25ZM32,20.08v8.51a5,5,0,0,1-5,5H17a5,5,0,0,1-5-5v-14a5,5,0,0,1,5-5h4.52a7,7,0,0,1,5,2.05L30,15.12A7,7,0,0,1,32,20.08Zm-7-7A5.08,5.08,0,0,0,24,12.26v4.35a1,1,0,0,0,1,1h4.34a4.49,4.49,0,0,0-.8-1.05L25,13.07Zm4.95,7c0-.16,0-.33,0-.49H25a3,3,0,0,1-3-3v-5l-.48,0H17a3,3,0,0,0-3,3v14a3,3,0,0,0,3,3H27a3,3,0,0,0,3-3Z"/><circle class="cls-2" cx="22" cy="22" r="22"/><rect class="cls-2" x="10" y="10" width="24" height="24"/></g></g></g></svg>