<svg xmlns="http://www.w3.org/2000/svg" viewBox="0 0 44 44"><defs><style>.cls-1{fill:#0f0f0f;}.cls-2{fill:none;}</style></defs><title>document-search</title><g id="Слой_2" data-name="Слой 2"><g id="Слой_4" data-name="Слой 4"><g id="document-search"><path class="cls-1" d="M25,16a1,1,0,0,1,0,2H17a1,1,0,0,1,0-2Zm7.71,17.71a1,1,0,0,1-1.42,0l-2.4-2.41A4.49,4.49,0,1,1,31,27.5h0a4.41,4.41,0,0,1-.7,2.39l2.41,2.4A1,1,0,0,1,32.71,33.71ZM26.5,30A2.5,2.5,0,1,0,24,27.5,2.5,2.5,0,0,0,26.5,30ZM22,32H16a3,3,0,0,1-3-3V15a3,3,0,0,1,3-3H28a1,1,0,0,1,1,1v8a1,1,0,0,0,2,0V13a3,3,0,0,0-3-3H16a5,5,0,0,0-5,5V29a5,5,0,0,0,5,5h6a1,1,0,0,0,0-2Z"/><circle class="cls-2" cx="22" cy="22" r="22"/><rect class="cls-2" x="10" y="10" width="24" height="24"/></g></g></g></svg>