<svg xmlns="http://www.w3.org/2000/svg" viewBox="0 0 44 44"><defs><style>.cls-1{fill:#0f0f0f;}.cls-2{fill:none;}</style></defs><title>document-text</title><g id="Слой_2" data-name="Слой 2"><g id="Слой_4" data-name="Слой 4"><g id="document-text"><path class="cls-1" d="M26,24.38H18a1,1,0,1,1,0-2H26a1,1,0,1,1,0,2Zm-3,2H18a1,1,0,0,0-1,.81,1,1,0,0,0,1,1.21h5a1,1,0,1,0,0-2Zm9-6.53v8.52a5,5,0,0,1-5,5H17a5,5,0,0,1-5-5v-14a5,5,0,0,1,5-5h4.51a6.94,6.94,0,0,1,5,2L30,14.91A7,7,0,0,1,32,19.86Zm-7-7A4.48,4.48,0,0,0,24,12.08v4.31a1,1,0,0,0,1,1h4.32a5.3,5.3,0,0,0-.78-1.05Zm4.95,7c0-.16,0-.32,0-.48H25a3,3,0,0,1-3-3v-5c-.17,0-.33,0-.49,0H17a3,3,0,0,0-3,3v14a3,3,0,0,0,3,3H27a3,3,0,0,0,3-3Z"/><circle class="cls-2" cx="22" cy="22" r="22"/><rect class="cls-2" x="10" y="10" width="24" height="24"/></g></g></g></svg>