<svg xmlns="http://www.w3.org/2000/svg" viewBox="0 0 44 44"><defs><style>.cls-1{fill:#0f0f0f;}.cls-2{fill:none;}</style></defs><title>document-exclamation</title><g id="Слой_2" data-name="Слой 2"><g id="Слой_4" data-name="Слой 4"><g id="document-exclamation"><path class="cls-1" d="M27,19.5a7,7,0,1,0,7,7A7,7,0,0,0,27,19.5Zm0,12a5,5,0,1,1,5-5A5,5,0,0,1,27,31.5ZM28.5,24A1.5,1.5,0,1,1,27,22.5,1.5,1.5,0,0,1,28.5,24ZM28,27.49v2a1,1,0,1,1-2,0v-2a1,1,0,1,1,2,0Zm-9.4,2a1.06,1.06,0,0,1-.54,1.95H11a1,1,0,0,1-1-1V14.5a5,5,0,0,1,5-5h5.73a4,4,0,0,1,2.82,1.17l3.24,3.23a4,4,0,0,1,1.15,2.49A1,1,0,0,1,27,17.47H27a1,1,0,0,1-1-.91v-.08H23a2,2,0,0,1-2-2V11.54l-.24,0H15a3,3,0,0,0-3,3V28.85a.62.62,0,0,0,.62.62h5.81A.2.2,0,0,1,18.6,29.53Z"/><circle class="cls-2" cx="22" cy="22" r="22"/><rect class="cls-2" x="10" y="10" width="24" height="24"/></g></g></g></svg>