<svg xmlns="http://www.w3.org/2000/svg" viewBox="0 0 44 44"><defs><style>.cls-1{fill:#0f0f0f;}.cls-2{fill:none;}</style></defs><title>education-hat</title><g id="Слой_2" data-name="Слой 2"><g id="Слой_4" data-name="Слой 4"><g id="education-hat"><path class="cls-1" d="M31.27,15.25l-7.38-3.51a5.22,5.22,0,0,0-5.28-.05l-7.45,3.56-.09,0a3.69,3.69,0,0,0,.09,6.46l2.05,1v4.89a5,5,0,0,0,3.51,4.77A15.47,15.47,0,0,0,21.2,33a15.35,15.35,0,0,0,4.47-.6,5,5,0,0,0,3.51-4.77v-4.9l2-1V30a1,1,0,1,0,2,0V18A3.33,3.33,0,0,0,31.27,15.25ZM27.22,27.62a3,3,0,0,1-2.1,2.87,13.89,13.89,0,0,1-3.9.52,13.89,13.89,0,0,1-3.9-.52,3,3,0,0,1-2.09-2.87V23.68l3.31,1.57a5.15,5.15,0,0,0,2.7.74,5,5,0,0,0,2.58-.69l3.4-1.62Zm3.19-7.68-7.54,3.6a3.3,3.3,0,0,1-3.39-.05L12.11,20a1.69,1.69,0,0,1-.68-2.29,1.72,1.72,0,0,1,.64-.67l7.49-3.58A3.3,3.3,0,0,1,23,13.5L30.32,17a1.74,1.74,0,0,1,.89,1.49,1.7,1.7,0,0,1-.8,1.44Z"/><circle class="cls-2" cx="22" cy="22" r="22"/><rect class="cls-2" x="10" y="10" width="24" height="24"/></g></g></g></svg>