<svg xmlns="http://www.w3.org/2000/svg" viewBox="0 0 44 44"><defs><style>.cls-1{fill:#0f0f0f;}.cls-2{fill:none;}</style></defs><title>emoji-sad</title><g id="Слой_2" data-name="Слой 2"><g id="Слой_4" data-name="Слой 4"><g id="emoji-sad"><path class="cls-1" d="M22,26a6.64,6.64,0,0,1,3.6,1.2,1,1,0,0,1,.21,1.4A1,1,0,0,1,25,29a.94.94,0,0,1-.59-.2A4.74,4.74,0,0,0,22,28a4.69,4.69,0,0,0-2.4.8,1,1,0,1,1-1.19-1.6A6.59,6.59,0,0,1,22,26Zm0-16a12,12,0,0,0-10.69,6.55,1,1,0,0,0,1.78.91,10,10,0,1,1,2.05,11.81,1,1,0,1,0-1.38,1.46A12,12,0,1,0,22,10Zm5.73,9A.84.84,0,0,0,28,19a1,1,0,0,0,.27-2,5,5,0,0,1-2.46-1.62,1,1,0,0,0-1.62,1.16A6.81,6.81,0,0,0,27.73,19Zm-9.54-3.54A5,5,0,0,1,15.73,17,1,1,0,0,0,16,19a.84.84,0,0,0,.27,0,6.81,6.81,0,0,0,3.54-2.38,1,1,0,1,0-1.62-1.16ZM18.5,21A1.5,1.5,0,1,0,20,22.5,1.5,1.5,0,0,0,18.5,21Zm7,3A1.5,1.5,0,1,0,24,22.5,1.5,1.5,0,0,0,25.5,24ZM15,24.5a8.18,8.18,0,0,0-1.92-4.23.75.75,0,0,0-1.15,0A8.34,8.34,0,0,0,10,24.5a2.5,2.5,0,0,0,5,0Z"/><circle class="cls-2" cx="22" cy="22" r="22"/><rect class="cls-2" x="10" y="10" width="24" height="24"/></g></g></g></svg>