<svg xmlns="http://www.w3.org/2000/svg" viewBox="0 0 44 44"><defs><style>.cls-1{fill:#0f0f0f;}.cls-2{fill:none;}</style></defs><title>emoji-happy</title><g id="Слой_2" data-name="Слой 2"><g id="Слой_4" data-name="Слой 4"><g id="emoji-happy"><path class="cls-1" d="M22,34A12,12,0,1,1,34,22,12,12,0,0,1,22,34Zm0-22A10,10,0,1,0,32,22,10,10,0,0,0,22,12Zm5.67,13.75a1,1,0,0,0,.08-1.42,1,1,0,0,0-1.41-.08h0A7.57,7.57,0,0,1,22,26a7.52,7.52,0,0,1-4.33-1.75,1,1,0,0,0-1.34,1.5A9.47,9.47,0,0,0,22,28,9.47,9.47,0,0,0,27.67,25.75ZM16,20c0,1,.89,1,2,1s2,0,2-1a2,2,0,0,0-4,0Zm8,0c0,1,.9,1,2,1s2,0,2-1a2,2,0,0,0-4,0Z"/><circle class="cls-2" cx="22" cy="22" r="22"/><rect class="cls-2" x="10" y="10" width="24" height="24"/></g></g></g></svg>