<svg xmlns="http://www.w3.org/2000/svg" viewBox="0 0 44 44"><defs><style>.cls-1{fill:#0f0f0f;}.cls-2{fill:none;}</style></defs><title>evenlope</title><g id="Слой_2" data-name="Слой 2"><g id="Слой_4" data-name="Слой 4"><g id="evenlope"><path class="cls-1" d="M29,11H15a5,5,0,0,0-5,5V28a5,5,0,0,0,5,5H29a5,5,0,0,0,5-5V16A5,5,0,0,0,29,11ZM15,13H29a3,3,0,0,1,2.78,1.89L24.1,22.57a3,3,0,0,1-4.24,0L12.2,14.91A3,3,0,0,1,15,13ZM29,31H15a3,3,0,0,1-3-3V17.52L18.44,24a5,5,0,0,0,7.08,0L32,17.52V28A3,3,0,0,1,29,31Z"/><circle class="cls-2" cx="22" cy="22" r="22"/><rect class="cls-2" x="10" y="10" width="24" height="24"/></g></g></g></svg>