<svg xmlns="http://www.w3.org/2000/svg" viewBox="0 0 44 44"><defs><style>.cls-1{fill:#0f0f0f;}.cls-2{fill:none;}</style></defs><title>exclamation</title><g id="Слой_2" data-name="Слой 2"><g id="Слой_4" data-name="Слой 4"><g id="exclamation"><path class="cls-1" d="M22,10A12,12,0,1,0,34,22,12,12,0,0,0,22,10Zm0,22A10,10,0,1,1,32,22,10,10,0,0,1,22,32Z"/><path class="cls-1" d="M21,16v8a1,1,0,1,0,2,0V16a1,1,0,1,0-2,0Z"/><path class="cls-1" d="M22,27h0a1,1,0,0,1,1,1h0a1,1,0,0,1-1,1h0a1,1,0,0,1-1-1h0A1,1,0,0,1,22,27Z"/><circle class="cls-2" cx="22" cy="22" r="22"/><rect class="cls-2" x="10" y="10" width="24" height="24"/></g></g></g></svg>