<svg xmlns="http://www.w3.org/2000/svg" viewBox="0 0 44 44"><defs><style>.cls-1{fill:#0f0f0f;}.cls-2{fill:none;}</style></defs><title>extension-json</title><g id="Слой_2" data-name="Слой 2"><g id="Слой_4" data-name="Слой 4"><g id="extension-json"><g id="Слой_1-2" data-name="Слой 1-2"><path class="cls-1" d="M31.41,15.82l-5.63-5.61L25.61,10h-10l-.42.12a2.53,2.53,0,0,0-1.78,2.5q0,4.55,0,9.07V22h-.31a1,1,0,0,0-1,.95c0,.38,0,.77,0,1.15,0,1.61,0,3.22,0,4.83,0,.84.32,1.4,1.29,1.38,0,.39,0,.78,0,1.16a2.46,2.46,0,0,0,1.06,2A2.59,2.59,0,0,0,16,34H29a4.18,4.18,0,0,0,.61,0,2.55,2.55,0,0,0,2.06-2.33V31.2q0-7.43,0-14.85A.66.66,0,0,0,31.41,15.82ZM28.88,32.41H16a1,1,0,0,1-1.16-1.15v-1h.34c3.92,0,7.84,0,11.77,0a1.13,1.13,0,0,0,1.24-1.25c0-1.94,0-3.89,0-5.83A1.06,1.06,0,0,0,27,22H14.93V12.69a1.12,1.12,0,0,1,.35-.9,1.06,1.06,0,0,1,.72-.25h8.81l.15,0v.3c0,1.07,0,2.14,0,3.21a1.67,1.67,0,0,0,1.58,1.57c1,0,2.06,0,3.09,0H30c0,.09,0,.18,0,.26q0,7.17,0,14.36a1,1,0,0,1-1.16,1.15ZM17.94,26.76a3.59,3.59,0,0,1,.1.54v.86a.63.63,0,0,0,.09.37.49.49,0,0,0,.37.11h.15v.71h-.16a2.73,2.73,0,0,1-.64-.07,1.06,1.06,0,0,1-.42-.22.77.77,0,0,1-.22-.34,1.53,1.53,0,0,1-.07-.47v-.93a.62.62,0,0,0-.12-.41.45.45,0,0,0-.39-.16V26a.47.47,0,0,0,.39-.16.63.63,0,0,0,.12-.42v-1a1.43,1.43,0,0,1,.07-.46.76.76,0,0,1,.23-.33,1.08,1.08,0,0,1,.43-.21,2.39,2.39,0,0,1,.66-.07h.12v.7h-.16s-.31.07-.37.15a1.1,1.1,0,0,0-.13.38v.82a1,1,0,0,1,0,.54.86.86,0,0,1-.34.38.8.8,0,0,1,.34.37Zm4.47-.86a1.67,1.67,0,0,1-.09-.55v-.74a.61.61,0,0,0-.09-.37.46.46,0,0,0-.37-.12h-.15v-.7h.11a2.36,2.36,0,0,1,.65.07,1,1,0,0,1,.41.22.77.77,0,0,1,.22.34,1.49,1.49,0,0,1,.07.47v.93a.68.68,0,0,0,.12.41.47.47,0,0,0,.4.16v.72a.5.5,0,0,0-.4.16.69.69,0,0,0-.12.42v.92a1.59,1.59,0,0,1-.07.48.77.77,0,0,1-.22.34,1.09,1.09,0,0,1-.41.22,2.81,2.81,0,0,1-.65.07h-.11V28.6h.15a.46.46,0,0,0,.37-.13.66.66,0,0,0,.09-.39v-.84a1.77,1.77,0,0,1,.09-.56.78.78,0,0,1,.34-.39A.78.78,0,0,1,22.41,25.9Z"/></g><circle class="cls-2" cx="22" cy="22" r="22"/><rect class="cls-2" x="10" y="10" width="24" height="24"/></g></g></g></svg>