<svg xmlns="http://www.w3.org/2000/svg" viewBox="0 0 44 44"><defs><style>.cls-1{fill:#0f0f0f;}.cls-2{fill:none;}</style></defs><title>extension-db</title><g id="Слой_2" data-name="Слой 2"><g id="Слой_4" data-name="Слой 4"><g id="extension-db"><g id="Слой_1-2" data-name="Слой 1-2"><path class="cls-1" d="M19.06,27.18A1.63,1.63,0,0,0,19.47,26a1.66,1.66,0,0,0-.4-1.2,1.69,1.69,0,0,0-1.25-.41,3,3,0,0,0-.52,0v3.19h.51A1.67,1.67,0,0,0,19.06,27.18Z"/><path class="cls-1" d="M23.48,25.43a.5.5,0,0,0,.27-.49.48.48,0,0,0-.28-.46,1.56,1.56,0,0,0-.73-.14H22.4l-.25,0v1.19h.58A1.71,1.71,0,0,0,23.48,25.43Z"/><path class="cls-1" d="M23.66,26.37a1.69,1.69,0,0,0-.78-.15h-.73v1.39l.29,0h.29a3.87,3.87,0,0,0,.48,0,1.29,1.29,0,0,0,.38-.12.7.7,0,0,0,.26-.22.57.57,0,0,0,.09-.36A.54.54,0,0,0,23.66,26.37Z"/><path class="cls-1" d="M31.75,15.7l-5.63-5.6L26,9.89h-10c-.15,0-.29.07-.43.12a2.54,2.54,0,0,0-1.78,2.5v9.36l-.31,0a1,1,0,0,0-1,.95c0,.38,0,.76,0,1.14,0,1.61,0,3.22,0,4.83,0,.85.32,1.4,1.29,1.39,0,.38,0,.77,0,1.16a2.49,2.49,0,0,0,1.06,2,2.61,2.61,0,0,0,1.6.49H29.29a3.08,3.08,0,0,0,.61-.05A2.53,2.53,0,0,0,32,31.51c0-.14,0-.29,0-.42V16.23A.67.67,0,0,0,31.75,15.7ZM29.22,32.34H16.38a1,1,0,0,1-1.15-1.15v-1h.32c3.92,0,7.84,0,11.76,0a1.15,1.15,0,0,0,1.25-1.25c0-2,0-3.89,0-5.84a1.06,1.06,0,0,0-1.22-1.21H15.27V12.62a1.12,1.12,0,0,1,.35-.9,1.07,1.07,0,0,1,.72-.25h8.82l.14,0v.3c0,1.07,0,2.14,0,3.21a1.67,1.67,0,0,0,1.58,1.57c1,0,2.06,0,3.09,0h.33c0,.09,0,.18,0,.26q0,7.19,0,14.36a1,1,0,0,1-1.16,1.15ZM16.5,28.21V23.77a3.73,3.73,0,0,1,.67-.09l.63,0a4.08,4.08,0,0,1,1.05.13,2.18,2.18,0,0,1,.81.43,1.9,1.9,0,0,1,.53.72,2.74,2.74,0,0,1,.18,1,2.71,2.71,0,0,1-.18,1,2,2,0,0,1-.53.73,2,2,0,0,1-.81.43,3.82,3.82,0,0,1-1.06.15l-.63,0A3.74,3.74,0,0,1,16.5,28.21Zm8.12-2a1.15,1.15,0,0,1,.19.69,1.18,1.18,0,0,1-.51,1,2.77,2.77,0,0,1-1.58.36l-.73,0a3.4,3.4,0,0,1-.64-.09V23.77l.31-.05.33,0,.34,0h.32a4.9,4.9,0,0,1,.77.06,2.16,2.16,0,0,1,.62.21,1,1,0,0,1,.55,1,1,1,0,0,1-.16.55,1,1,0,0,1-.43.37A1.23,1.23,0,0,1,24.62,26.23Z"/></g><circle class="cls-2" cx="22" cy="22" r="22"/><rect class="cls-2" x="10" y="10" width="24" height="24"/></g></g></g></svg>