<svg xmlns="http://www.w3.org/2000/svg" viewBox="0 0 44 44"><defs><style>.cls-1{fill:#0f0f0f;}.cls-2{fill:none;}</style></defs><title>eye-slash</title><g id="Слой_2" data-name="Слой 2"><g id="Слой_4" data-name="Слой 4"><g id="eye-slash"><path class="cls-1" d="M33.27,19.41A16,16,0,0,0,29.9,15.5l2.8-2.8a1,1,0,0,0-1.42-1.41l-3,3.05A12,12,0,0,0,22,12.65c-6.19,0-9.72,4.23-11.27,6.76a4.94,4.94,0,0,0,0,5.16,16,16,0,0,0,3.37,3.91l-2.8,2.79a1,1,0,0,0,0,1.42,1,1,0,0,0,1.41,0l0,0,3-3A12.07,12.07,0,0,0,22,31.33c6.19,0,9.72-4.24,11.27-6.76A4.94,4.94,0,0,0,33.27,19.41ZM12.44,23.52a2.93,2.93,0,0,1,0-3.07c1.33-2.16,4.34-5.8,9.56-5.8a10.09,10.09,0,0,1,4.76,1.16l-2,2a5,5,0,0,0-6.92,6.92l-2.3,2.31A13.55,13.55,0,0,1,12.44,23.52ZM25,22a3,3,0,0,1-3,3,3.12,3.12,0,0,1-1.28-.3l4-4A3,3,0,0,1,25,22Zm-6,0a3,3,0,0,1,3-3,2.83,2.83,0,0,1,1.28.3l-4,4A3,3,0,0,1,19,22Zm12.56,1.53c-1.33,2.17-4.34,5.81-9.56,5.81a10.09,10.09,0,0,1-4.76-1.16l2-2a5,5,0,0,0,6.92-6.91l2.3-2.31a13.67,13.67,0,0,1,3.09,3.52,2.93,2.93,0,0,1,0,3.07Z"/><circle class="cls-2" cx="22" cy="22" r="22"/><rect class="cls-2" x="10" y="10" width="24" height="24"/></g></g></g></svg>