<svg xmlns="http://www.w3.org/2000/svg" viewBox="0 0 44 44"><defs><style>.cls-1{fill:#0f0f0f;}.cls-2{fill:none;}</style></defs><title>eye</title><g id="Слой_2" data-name="Слой 2"><g id="Слой_4" data-name="Слой 4"><g id="eye"><path class="cls-1" d="M33.27,19.42c-1.55-2.53-5.08-6.76-11.27-6.76s-9.72,4.23-11.27,6.76a4.94,4.94,0,0,0,0,5.16c1.55,2.53,5.08,6.76,11.27,6.76s9.72-4.23,11.27-6.76A4.94,4.94,0,0,0,33.27,19.42Zm-1.71,4.11c-1.33,2.17-4.34,5.81-9.56,5.81s-8.23-3.64-9.56-5.81a2.91,2.91,0,0,1,0-3.06c1.33-2.17,4.34-5.81,9.56-5.81s8.23,3.64,9.56,5.81a2.91,2.91,0,0,1,0,3.06Z"/><path class="cls-1" d="M22,17a5,5,0,1,0,5,5A5,5,0,0,0,22,17Zm0,8a3,3,0,1,1,3-3A3,3,0,0,1,22,25Z"/><circle class="cls-2" cx="22" cy="22" r="22"/><rect class="cls-2" x="10" y="10" width="24" height="24"/></g></g></g></svg>