<svg xmlns="http://www.w3.org/2000/svg" viewBox="0 0 44 44"><defs><style>.cls-1{fill:#0f0f0f;}.cls-2{fill:none;}</style></defs><title>filter-slash</title><g id="Слой_2" data-name="Слой 2"><g id="Слой_4" data-name="Слой 4"><g id="filter-slash"><path class="cls-1" d="M33.7,32.29l-7.41-7.41,4.34-4.48A4.9,4.9,0,0,0,32,16.85,5,5,0,0,0,27,12H16.94a5,5,0,0,0-2.71.82L11.7,10.29a1,1,0,0,0-1.47.07,1,1,0,0,0,.07,1.36l22,22A1,1,0,0,0,33,34a1,1,0,0,0,.71-.29,1,1,0,0,0,0-1.42ZM16.94,14H27a3,3,0,0,1,3,2.88A3,3,0,0,1,29.2,19l-4.33,4.46L15.7,14.3A3,3,0,0,1,16.94,14Zm8,15v4a1,1,0,0,1-1,1,1,1,0,0,1-.6-.2l-4-3A1,1,0,0,1,19,30V26.09l-5.51-5.67a4.72,4.72,0,0,1-1-1.48,1,1,0,0,1,.51-1.3,1,1,0,0,1,1.3.52,2.77,2.77,0,0,0,.59.89L20.69,25a1,1,0,0,1,.27.69v3.8L23,31V29a1,1,0,1,1,2,0Z"/><circle class="cls-2" cx="22" cy="22" r="22"/><rect class="cls-2" x="10" y="10" width="24" height="24"/></g></g></g></svg>