<svg xmlns="http://www.w3.org/2000/svg" viewBox="0 0 44 44"><defs><style>.cls-1{fill:#0f0f0f;}.cls-2{fill:none;}</style></defs><title>filters</title><g id="Слой_2" data-name="Слой 2"><g id="Слой_4" data-name="Слой 4"><g id="filters"><path class="cls-1" d="M30.16,11H17.84a3.82,3.82,0,0,0-2.7,6.52L21,23.41V27a1,1,0,0,0,.4.8l4,3a1,1,0,0,0,.6.2,1,1,0,0,0,1-1V23.41l5.89-5.86A3.8,3.8,0,0,0,34,14.85,3.84,3.84,0,0,0,30.16,11Zm1.36,5.13-6.2,6.15A1,1,0,0,0,25,23v5l-2-1.49V23a1,1,0,0,0-.29-.71l-6.2-6.15A1.84,1.84,0,0,1,16,14.74,1.9,1.9,0,0,1,17.83,13H30.22a1.84,1.84,0,0,1,1.84,1.83A1.82,1.82,0,0,1,31.52,16.16ZM23,32v2a1,1,0,0,1-1.59.8l-4-3A1,1,0,0,1,17,31V27.45l-5.9-5.91a3.84,3.84,0,0,1,.23-5.65,1,1,0,1,1,1.3,1.53,1.84,1.84,0,0,0-.65,1.4,1.81,1.81,0,0,0,.54,1.3l6.2,6.2A1,1,0,0,1,19,27v3.45L21,32a1,1,0,0,1,2,0Z"/><circle class="cls-2" cx="22" cy="22" r="22"/><rect class="cls-2" x="10" y="10" width="24" height="24"/></g></g></g></svg>