<svg xmlns="http://www.w3.org/2000/svg" viewBox="0 0 44 44"><defs><style>.cls-1{fill:#0253b4;}.cls-2{fill:#d70229;}.cls-3{fill:#fff;}.cls-4{fill:none;}</style></defs><title>flag-uk</title><g id="Слой_2" data-name="Слой 2"><g id="Слой_4" data-name="Слой 4"><g id="flag-uk"><g id="Слой_1-2" data-name="Слой 1-2"><circle class="cls-1" cx="22" cy="22.12" r="12"/><path class="cls-2" d="M10.07,23.7c0-.58-.07-1.07-.07-1.58s.05-1,.07-1.51h10.3V10.23a11.79,11.79,0,0,1,3.14,0V20.54H33.89a11.57,11.57,0,0,1,0,3.11H23.63V34a11,11,0,0,1-3.14,0V23.7Z"/><path class="cls-2" d="M29.69,13a3.25,3.25,0,0,1,.77.66c-.17.26-5,5.1-5.28,5.29V17.51Z"/><path class="cls-2" d="M18.8,19H17.37l-4.55-4.52a3.5,3.5,0,0,1,.66-.78C13.72,13.81,18.55,18.62,18.8,19Z"/><path class="cls-2" d="M31.18,29.84l-.64.72c-.27-.17-5.06-4.94-5.33-5.3H26.5c.15,0,.22.11.3.19l2.36,2.36,1.75,1.75Z"/><path class="cls-2" d="M18.85,25.29v1.27a.48.48,0,0,1-.18.35c-.67.66-1.33,1.32-2,2L14.57,31a2.42,2.42,0,0,0-.25.31l-.74-.65v-.09h0l5-5Z"/><path class="cls-3" d="M11,27c0,.07.07.14.1.22S11,27,11,27Z"/><path class="cls-3" d="M11.25,27.47l.12.22Z"/><path class="cls-3" d="M10.54,18.55a12.3,12.3,0,0,0-.44,2H20.37V10.23a13.58,13.58,0,0,0-1.54.32v6.13l-4.1-4.1a11.65,11.65,0,0,0-1.24,1.09c.38.29,5.06,5,5.31,5.29H17.37l-4.55-4.52.06-.11c-.19.22-.37.45-.54.68l.11-.14L16.53,19H10.47A1.85,1.85,0,0,1,10.54,18.55Z"/><path class="cls-3" d="M11.13,27.21l.1.22Z"/><path class="cls-3" d="M25.25,10.58a12.07,12.07,0,0,0-1.69-.35V20.54H33.89c0,.23.06.47.08.7a11.71,11.71,0,0,0-.4-2.28H27.44l4.1-4.1a11.56,11.56,0,0,0-1.08-1.24c-.25.33-5,5.09-5.28,5.28V17.51L29.73,13l.11.06-.54-.43c-.16.24-3.66,3.78-4.11,4.14V10.58Z"/><path class="cls-3" d="M33.51,25.51A11.88,11.88,0,0,0,34,22.93a2.52,2.52,0,0,1-.07.72H23.63V34a11,11,0,0,1-3.14,0V23.7H10.1a12.28,12.28,0,0,0,.32,1.58h6.13l-4.1,4.1a10.77,10.77,0,0,1-1.07-1.67,11.78,11.78,0,0,0,2.2,3v-.08h0l5-5,.31-.3V26.6a.48.48,0,0,1-.18.35c-.67.66-1.33,1.32-2,2S15.27,30.31,14.57,31a2.42,2.42,0,0,0-.25.31l-.65-.57a11.91,11.91,0,0,0,4.25,2.65,11.93,11.93,0,0,1-3.2-1.77l4.11-4.11v6.11a2.81,2.81,0,0,1-.76-.18,12,12,0,0,0,12.46-2.91c-.27-.18-5.05-4.93-5.32-5.29H26.5c.15,0,.22.11.3.19l2.36,2.36,1.75,1.75.27.28-.62.69a11.91,11.91,0,0,0,2.91-4.89,12,12,0,0,1-1.93,3.74c-.23-.14-3.75-3.62-4.14-4.11h6.15A2,2,0,0,1,33.51,25.51Zm-4.25,6.15a11.69,11.69,0,0,1-4.1,2v-6.1Z"/><path class="cls-3" d="M10.53,25.66v0Z"/><path class="cls-3" d="M10,22.12v0Z"/><path class="cls-3" d="M10.61,25.9l.06.22Z"/><path class="cls-3" d="M10.79,26.41l.09.24Z"/><path class="cls-3" d="M10.69,26.12l.09.23Z"/><path class="cls-3" d="M10.89,26.68a1.6,1.6,0,0,1,.1.23A1.6,1.6,0,0,0,10.89,26.68Z"/></g><circle class="cls-4" cx="22" cy="22" r="22"/><rect class="cls-4" x="10" y="10" width="24" height="24"/></g></g></g></svg>