<svg xmlns="http://www.w3.org/2000/svg" viewBox="0 0 44 44"><defs><style>.cls-1{fill:#0f0f0f;}.cls-2{fill:none;}</style></defs><title>folder</title><g id="Слой_2" data-name="Слой 2"><g id="Слой_4" data-name="Слой 4"><g id="folder"><path class="cls-1" d="M29,12H22.5a1,1,0,0,1-.45-.1l-3.16-1.56A3.06,3.06,0,0,0,17.55,10H15a5,5,0,0,0-5,4.92V27a5,5,0,0,0,5,5H29a5,5,0,0,0,5-5V17A5,5,0,0,0,29,12ZM15,12h2.57a1,1,0,0,1,.45.1l3.18,1.59a3,3,0,0,0,1.35.32H29a3,3,0,0,1,2.76,1.88L12,16V15A3,3,0,0,1,15,12Zm14,18H15a3,3,0,0,1-3-3V18l20-.12V27A3,3,0,0,1,29.05,30Z"/><circle class="cls-2" cx="22" cy="22" r="22"/><rect class="cls-2" x="10" y="10" width="24" height="24"/></g></g></g></svg>