<svg xmlns="http://www.w3.org/2000/svg" viewBox="0 0 44 44"><defs><style>.cls-1{fill:#0f0f0f;}.cls-2{fill:none;}</style></defs><title>git-branch</title><g id="Слой_2" data-name="Слой 2"><g id="Слой_4" data-name="Слой 4"><g id="git-branch"><path class="cls-1" d="M35,14a4.08,4.08,0,0,0-6.47-3.25,2.69,2.69,0,0,0-.8.81,4.06,4.06,0,0,0,2.26,6.31v1.25A1.88,1.88,0,0,1,28.06,21H19a9.63,9.63,0,0,0-3,1V17.89a4,4,0,1,0-2,0v8.25a4,4,0,1,0,2,0V26c0-1.65,3-3,3-3h8a5,5,0,0,0,5-5v-.13A4,4,0,0,0,35,14ZM13,14a2,2,0,1,1,2,2A2,2,0,0,1,13,14Zm4,16a2,2,0,1,1-2-2A2,2,0,0,1,17,30ZM31,16a2,2,0,1,1,2-2A2,2,0,0,1,31,16Z"/><circle class="cls-2" cx="22" cy="22" r="22"/><rect class="cls-2" x="10" y="10" width="24" height="24"/></g></g></g></svg>