<svg xmlns="http://www.w3.org/2000/svg" viewBox="0 0 44 44"><defs><style>.cls-1{fill:#0f0f0f;}.cls-2{fill:none;}</style></defs><title>git-compare-filled</title><g id="Слой_2" data-name="Слой 2"><g id="Слой_4" data-name="Слой 4"><g id="git-compare-filled"><path class="cls-1" d="M34,15a4,4,0,1,0-5,3.88V25a3,3,0,0,1-3,3H22.63l2.2-2.21A1.07,1.07,0,0,0,25,24.47a1,1,0,0,0-1.54-.16l-2.54,2.56A2.62,2.62,0,0,0,20,29a2.76,2.76,0,0,0,.88,2.18l2.54,2.56a1,1,0,0,0,.71.3,1,1,0,0,0,.85-.48,1,1,0,0,0-.15-1.25L22.54,30H26a5,5,0,0,0,5-5V18.76a4,4,0,0,0,3-3.9ZM23.2,17.08A3,3,0,0,0,24.08,15a2.94,2.94,0,0,0-.88-2.12l-2.54-2.55a1,1,0,0,0-1.41,0,1,1,0,0,0,0,1.42l2.25,2.23H18a5,5,0,0,0-5,5v6.12a4,4,0,1,0,2,0V19a3,3,0,0,1,3-3h3.5L19.25,18.2a1,1,0,0,0,1.41,1.42l2.54-2.54Z"/><circle class="cls-2" cx="22" cy="22" r="22"/><rect class="cls-2" x="10" y="10" width="24" height="24"/></g></g></g></svg>