<svg xmlns="http://www.w3.org/2000/svg" viewBox="0 0 44 44"><defs><style>.cls-1{fill:#0f0f0f;}.cls-2{fill:none;}</style></defs><title>git-compare</title><g id="Слой_2" data-name="Слой 2"><g id="Слой_4" data-name="Слой 4"><g id="git-compare"><path class="cls-1" d="M34,15a4,4,0,1,0-5,3.87V25a3,3,0,0,1-3,3H22.64l2.19-2.21A1.06,1.06,0,0,0,25,24.47a1,1,0,0,0-1.55-.16l-2.54,2.56A2.64,2.64,0,0,0,20,29a2.77,2.77,0,0,0,.87,2.18l2.54,2.56a1,1,0,0,0,.71.29,1,1,0,0,0,.85-.47,1,1,0,0,0-.15-1.25L22.55,30H26a5,5,0,0,0,5-5V18.76a4,4,0,0,0,3-3.9Zm-4,2a2,2,0,1,1,2-2A2,2,0,0,1,30,17Zm-6.79.12a3,3,0,0,0,0-4.24L20.66,10.3a1,1,0,0,0-1.41,0,1,1,0,0,0,0,1.41l2.24,2.23H18a5,5,0,0,0-5,5v6.12a4,4,0,1,0,2,0V19a3,3,0,0,1,3-3h3.49l-2.24,2.25a1,1,0,0,0,0,1.41,1,1,0,0,0,.7.29,1,1,0,0,0,.71-.29l2.54-2.54ZM16,29a2,2,0,1,1-2-2A2,2,0,0,1,16,29Z"/><circle class="cls-2" cx="22" cy="22" r="22"/><rect class="cls-2" x="10" y="10" width="24" height="24"/></g></g></g></svg>