<svg xmlns="http://www.w3.org/2000/svg" viewBox="0 0 44 44"><defs><style>.cls-1{fill:#0f0f0f;}.cls-2{fill:none;}</style></defs><title>language</title><g id="Слой_2" data-name="Слой 2"><g id="Слой_4" data-name="Слой 4"><g id="language"><path class="cls-1" d="M34,19a5,5,0,0,0-5-5H15a5,5,0,0,0-5,5v6a5,5,0,0,0,5,5H29a5,5,0,0,0,5-5ZM18.08,26h0a.71.71,0,0,1-.68-.54l-.26-1.15H14.75l-.27,1.15a.7.7,0,0,1-.68.54.69.69,0,0,1-.67-.86l1.4-5.94a1.46,1.46,0,0,1,2.87,0l1.36,5.91a.7.7,0,0,1-.68.85ZM29,28H22V16h7a3,3,0,0,1,3,3v6A3,3,0,0,1,29,28Zm1.5-8.44v.05a.61.61,0,0,1-.61.61h-.32a6.93,6.93,0,0,1-1.62,3.87,4.72,4.72,0,0,0,2,.64.61.61,0,0,1,.55.61v0a.61.61,0,0,1-.68.61A5.57,5.57,0,0,1,27,25a5.68,5.68,0,0,1-2.85,1,.61.61,0,0,1-.68-.61h0s.28-.59.6-.62a4.49,4.49,0,0,0,2-.63,6.64,6.64,0,0,1-.83-1.23.64.64,0,0,1,.55-.92h0a.7.7,0,0,1,.54.35,5.1,5.1,0,0,0,.69,1,5.73,5.73,0,0,0,1.31-3.09h-4.2c-.34,0-.59-.6-.59-.6v-.17A.49.49,0,0,1,24,19h2.37v-.5a.49.49,0,0,1,.49-.49H27a.61.61,0,0,1,.61.62V19h2.25a.61.61,0,0,1,.62.6ZM16,19.49l.78,3.42H15.08l.8-3.42a.08.08,0,0,1,.16,0Z"/><circle class="cls-2" cx="22" cy="22" r="22"/><rect class="cls-2" x="10" y="10" width="24" height="24"/></g></g></g></svg>