<svg xmlns="http://www.w3.org/2000/svg" viewBox="0 0 44 44"><defs><style>.cls-1{fill:#0f0f0f;}.cls-2{fill:none;}</style></defs><title>logo-google</title><g id="Слой_2" data-name="Слой 2"><g id="Слой_4" data-name="Слой 4"><g id="logo-google"><path class="cls-1" d="M22.48,24.27V21H33.53a10.65,10.65,0,0,1,.16,2,10.78,10.78,0,0,1-2.84,7.66A11,11,0,0,1,22.48,34,12.17,12.17,0,0,1,10.31,22,12.17,12.17,0,0,1,22.48,10a11.46,11.46,0,0,1,8.23,3.31l-2.32,2.31a8.32,8.32,0,0,0-5.91-2.34A8.61,8.61,0,0,0,13.87,22a8.61,8.61,0,0,0,8.61,8.72,8,8,0,0,0,6.06-2.4,6.78,6.78,0,0,0,1.78-4.06Z"/><circle class="cls-2" cx="22" cy="22" r="22"/><rect class="cls-2" x="10" y="10" width="24" height="24"/></g></g></g></svg>