<svg xmlns="http://www.w3.org/2000/svg" viewBox="0 0 44 44"><defs><style>.cls-1{fill:#0f0f0f;}.cls-2{fill:none;}</style></defs><title>moon</title><g id="Слой_2" data-name="Слой 2"><g id="Слой_4" data-name="Слой 4"><g id="moon"><path class="cls-1" d="M22,34A12.06,12.06,0,0,1,10,21.86a10.55,10.55,0,0,1,.06-1.13,12.12,12.12,0,0,1,10-10.58,12.9,12.9,0,0,1,5,.21,2.49,2.49,0,0,1,1.8,1.8,2.45,2.45,0,0,1-.7,2.42C21.66,18.75,22.06,25.23,27,29h0a2.5,2.5,0,0,1,.42,3.51,2.42,2.42,0,0,1-1.12.8A13.86,13.86,0,0,1,22,34Zm.08-22a10.56,10.56,0,0,0-1.68.13,10.09,10.09,0,0,0-8.34,8.8,9.92,9.92,0,0,0,2.51,7.77,10.46,10.46,0,0,0,11.1,2.73.5.5,0,0,0,.29-.64.47.47,0,0,0-.16-.21h0c-5.92-4.48-6.39-12.49-.94-17.45a.48.48,0,0,0,.12-.47.46.46,0,0,0-.35-.36A11,11,0,0,0,22.08,12Zm8.41,10a1,1,0,0,1-1-.76l-.36-1.43-1.43-.38a1,1,0,0,1,0-1.94l1.4-.33.35-1.4a1,1,0,0,1,1.94,0l.35,1.42,1.42.35a1,1,0,0,1,0,1.94l-1.42.36-.35,1.41A1,1,0,0,1,30.49,22ZM26,24a1,1,0,1,0,1-1A1,1,0,0,0,26,24Zm6,4a1,1,0,1,0,1-1A1,1,0,0,0,32,28Z"/><circle class="cls-2" cx="22" cy="22" r="22"/><rect class="cls-2" x="10" y="10" width="24" height="24"/></g></g></g></svg>