<svg xmlns="http://www.w3.org/2000/svg" viewBox="0 0 44 44"><defs><style>.cls-1{fill:#0f0f0f;}.cls-2{fill:none;}</style></defs><title>palette</title><g id="Слой_2" data-name="Слой 2"><g id="Слой_4" data-name="Слой 4"><g id="palette"><path class="cls-1" d="M27,18.05a1.5,1.5,0,1,0,1.84,1.07A1.51,1.51,0,0,0,27,18.05Z"/><path class="cls-1" d="M22,15.05a1.5,1.5,0,1,0,1.84,1.07A1.51,1.51,0,0,0,22,15.05Z"/><path class="cls-1" d="M17,18.05a1.5,1.5,0,1,0,1.84,1.07A1.51,1.51,0,0,0,17,18.05Z"/><path class="cls-1" d="M17,24.05a1.5,1.5,0,1,0,1.84,1.07A1.51,1.51,0,0,0,17,24.05Z"/><path class="cls-1" d="M22.42,10A12,12,0,0,0,10,21.58c0,.14,0,.28,0,.42A12,12,0,0,0,22,34c.34,0,.67,0,1,0a1,1,0,0,0,.92-1l0-3.59A3.56,3.56,0,0,1,30,26.8l.1.1a1.9,1.9,0,0,0,1.77.52,1.88,1.88,0,0,0,1.38-1.18A11.93,11.93,0,0,0,34,21.7,12.16,12.16,0,0,0,22.42,10Zm9,15.4,0,0a5.57,5.57,0,0,0-9.5,4l0,2.62A10,10,0,1,1,22,12h.35A10.13,10.13,0,0,1,32,21.75a9.89,9.89,0,0,1-.6,3.65Z"/><circle class="cls-2" cx="22" cy="22" r="22"/><rect class="cls-2" x="10" y="10" width="24" height="24"/></g></g></g></svg>