<svg xmlns="http://www.w3.org/2000/svg" viewBox="0 0 44 44"><defs><style>.cls-1{fill:#0f0f0f;}.cls-2{fill:none;}</style></defs><title>pen-filled</title><g id="Слой_2" data-name="Слой 2"><g id="Слой_4" data-name="Слой 4"><g id="pen-filled"><path class="cls-1" d="M30.26,18,16.2,32.11a3,3,0,0,1-3.45.58l-1,1A1,1,0,0,1,11,34a1,1,0,0,1-.71-.29,1,1,0,0,1,0-1.41l1-1a3,3,0,0,1,.58-3.46l12.5-12.56a3.08,3.08,0,0,0-3.28.63l-3,3a1,1,0,0,1-.71.29,1,1,0,0,1-.71-.29,1,1,0,0,1,0-1.41l3-3A5,5,0,0,1,23.25,13a4.93,4.93,0,0,1,3.19,1.18S30.25,18,30.25,18Zm2.6-7.3a3.11,3.11,0,0,0-4.13.3L27.4,12.28l4.27,4.27,1.42-1.42a3,3,0,0,0-.23-4.48Z"/><circle class="cls-2" cx="22" cy="22" r="22"/><rect class="cls-2" x="10" y="10" width="24" height="24"/></g></g></g></svg>