<svg xmlns="http://www.w3.org/2000/svg" viewBox="0 0 44 44"><defs><style>.cls-1{fill:#0f0f0f;}.cls-2{fill:none;}</style></defs><title>people-woman</title><g id="Слой_2" data-name="Слой 2"><g id="Слой_4" data-name="Слой 4"><g id="people-woman"><path class="cls-1" d="M24.5,23A1.5,1.5,0,1,1,26,21.5,1.5,1.5,0,0,1,24.5,23Zm9.42,5.14a5,5,0,0,1-4.07,5.79A4.8,4.8,0,0,1,29,34H25a1,1,0,0,1-1-1V30.74A8,8,0,0,1,22,31a7.48,7.48,0,0,1-2-.27V33a1,1,0,0,1-1,1H15a5,5,0,0,1-5-5,6.23,6.23,0,0,1,.07-.86l.3-1.74a2.94,2.94,0,0,1,5.34-1.13C17,27.12,19.41,29,22,29h0c3.13,0,6.21-2.78,7.13-5.38a1,1,0,0,1,1-.66h.43A1.46,1.46,0,0,0,32,21.52v0A1.5,1.5,0,0,0,30.77,20a1,1,0,0,1-.82-.88A8,8,0,0,0,22,12c-5.58,0-7.11,3.63-8.34,6.54-.22.53-.43,1-.66,1.49a13.39,13.39,0,0,0,10.19-5.61,1,1,0,1,1,1.62,1.16h0a15,15,0,0,1-4.95,4.47A1.5,1.5,0,1,1,18,21.15a1.14,1.14,0,0,1,.09-.26A15.77,15.77,0,0,1,10.88,22,1,1,0,0,1,10,20.86a1,1,0,0,1,.48-.72,6.6,6.6,0,0,0,1.32-2.37C13.12,14.67,15.1,10,22,10a10,10,0,0,1,9.85,8.27,3.48,3.48,0,0,1,1.3,5.49s0,0,0,.07ZM18,29.94a11.19,11.19,0,0,1-3.94-3.55,1,1,0,0,0-.78-.43h0a1,1,0,0,0-.91.79l-.3,1.74A3,3,0,0,0,14.49,32,4.38,4.38,0,0,0,15,32h3Zm14-1.45-.62-3.62a2.91,2.91,0,0,1-.58.09A11,11,0,0,1,26,30V32h3a3,3,0,0,0,3-3,2.94,2.94,0,0,0-.05-.51Z"/><circle class="cls-2" cx="22" cy="22" r="22"/><rect class="cls-2" x="10" y="10" width="24" height="24"/></g></g></g></svg>