<svg xmlns="http://www.w3.org/2000/svg" viewBox="0 0 44 44"><defs><style>.cls-1{fill:#0f0f0f;}.cls-2{fill:none;}</style></defs><title>pin-filled</title><g id="Слой_2" data-name="Слой 2"><g id="Слой_4" data-name="Слой 4"><g id="pin-filled"><path class="cls-1" d="M33.39,16.23,27.45,10.3A2.57,2.57,0,0,0,24.16,10a2.5,2.5,0,0,0-.59,3.48,2.69,2.69,0,0,0,.27.32l.59.59a.8.8,0,0,1,0,1.14l-2.09,2.1a1.51,1.51,0,0,1-1.43.39l-.82-.21a8.34,8.34,0,0,0-2.9-.22,3.39,3.39,0,0,0-2.84,2.26,3.53,3.53,0,0,0,.82,3.68l1.74,1.8-6.48,6.49a1,1,0,0,0,0,1.41,1,1,0,0,0,1.42,0l0,0,6.46-6.46L19.55,28a4.72,4.72,0,0,0,3.25,1.46,3.55,3.55,0,0,0,1.17-.2,3.13,3.13,0,0,0,2.11-2.7,8,8,0,0,0-.22-2.87l-.21-1a1.52,1.52,0,0,1,.4-1.42l2.09-2.08a.87.87,0,0,1,.59-.24.68.68,0,0,1,.52.21l.51.51a2.56,2.56,0,0,0,3.31.37,2.49,2.49,0,0,0,.59-3.48,2.08,2.08,0,0,0-.27-.32Z"/><circle class="cls-2" cx="22" cy="22" r="22"/><rect class="cls-2" x="10" y="10" width="24" height="24"/></g></g></g></svg>