<svg xmlns="http://www.w3.org/2000/svg" viewBox="0 0 44 44"><defs><style>.cls-1{fill:#0f0f0f;}.cls-2{fill:none;}</style></defs><title>qr-code</title><g id="Слой_2" data-name="Слой 2"><g id="Слой_4" data-name="Слой 4"><g id="qr-code"><path class="cls-1" d="M17,10H14a4,4,0,0,0-4,4v3a4,4,0,0,0,4,4h3a4,4,0,0,0,4-4V14A4,4,0,0,0,17,10Zm2,7a2,2,0,0,1-2,2H14a2,2,0,0,1-2-2V14a2,2,0,0,1,2-2h3a2,2,0,0,1,2,2Zm-2-2v1a1,1,0,0,1-1,1H15a1,1,0,0,1-1-1V15a1,1,0,0,1,1-1h1A1,1,0,0,1,17,15Zm10,6h3a4,4,0,0,0,4-4V14a4,4,0,0,0-4-4H27a4,4,0,0,0-4,4v3A4,4,0,0,0,27,21Zm-2-7a2,2,0,0,1,2-2h3a2,2,0,0,1,2,2v3a2,2,0,0,1-2,2H27a2,2,0,0,1-2-2Zm2,2V15a1,1,0,0,1,1-1h1a1,1,0,0,1,1,1v1a1,1,0,0,1-1,1H28A1,1,0,0,1,27,16ZM17,23H14a4,4,0,0,0-4,4v3a4,4,0,0,0,4,4h3a4,4,0,0,0,4-4V27A4,4,0,0,0,17,23Zm2,7a2,2,0,0,1-2,2H14a2,2,0,0,1-2-2V27a2,2,0,0,1,2-2h3a2,2,0,0,1,2,2Zm-2-2v1a1,1,0,0,1-1,1H15a1,1,0,0,1-1-1V28a1,1,0,0,1,1-1h1A1,1,0,0,1,17,28Zm10-3.5v1A1.5,1.5,0,0,1,25.5,27h-1A1.5,1.5,0,0,1,23,25.5v-1A1.5,1.5,0,0,1,24.5,23h1A1.5,1.5,0,0,1,27,24.5Zm3,4h0A1.5,1.5,0,0,1,28.5,30h0A1.5,1.5,0,0,1,27,28.5h0A1.5,1.5,0,0,1,28.5,27h0A1.5,1.5,0,0,1,30,28.5Zm-3,3v1A1.5,1.5,0,0,1,25.5,34h-1A1.5,1.5,0,0,1,23,32.5v-1A1.5,1.5,0,0,1,24.5,30h1A1.5,1.5,0,0,1,27,31.5Zm7-7v1A1.5,1.5,0,0,1,32.5,27h-1A1.5,1.5,0,0,1,30,25.5v-1A1.5,1.5,0,0,1,31.5,23h1A1.5,1.5,0,0,1,34,24.5Z"/><circle class="cls-2" cx="22" cy="22" r="22"/><rect class="cls-2" x="10" y="10" width="24" height="24"/></g></g></g></svg>