<svg xmlns="http://www.w3.org/2000/svg" viewBox="0 0 44 44"><defs><style>.cls-1{fill:#0f0f0f;}.cls-2{fill:none;}</style></defs><title>settings</title><g id="Слой_2" data-name="Слой 2"><g id="Слой_4" data-name="Слой 4"><g id="settings"><path class="cls-1" d="M11,14.75h2.74a3.72,3.72,0,0,0,7.19,0H33a1,1,0,0,0,0-2H20.93a3.72,3.72,0,0,0-7.19,0H11a1,1,0,0,0,0,2ZM17.33,12a1.75,1.75,0,1,1-1.75,1.75A1.75,1.75,0,0,1,17.33,12Z"/><path class="cls-1" d="M33,21H30.26a3.72,3.72,0,0,0-7.19,0H11a1,1,0,0,0,0,2H23.07a3.72,3.72,0,0,0,7.19,0H33a1,1,0,0,0,0-2Zm-6.33,2.75A1.75,1.75,0,1,1,28.42,22,1.75,1.75,0,0,1,26.67,23.75Z"/><path class="cls-1" d="M33,29.25H20.93a3.72,3.72,0,0,0-7.19,0H11a1,1,0,0,0,0,2h2.74a3.72,3.72,0,0,0,7.19,0H33a1,1,0,0,0,0-2ZM17.33,32a1.75,1.75,0,1,1,1.75-1.75A1.75,1.75,0,0,1,17.33,32Z"/><circle class="cls-2" cx="22" cy="22" r="22"/><rect class="cls-2" x="10" y="10" width="24" height="24"/></g></g></g></svg>