<svg xmlns="http://www.w3.org/2000/svg" viewBox="0 0 44 44"><defs><style>.cls-1{fill:#0f0f0f;}.cls-2{fill:none;}</style></defs><title>share-reverse</title><g id="Слой_2" data-name="Слой 2"><g id="Слой_4" data-name="Слой 4"><g id="share-reverse"><path class="cls-1" d="M33,32.29a1,1,0,0,1-1-1,6,6,0,0,0-6-6H20.17v1.59a2,2,0,0,1-2,2,2,2,0,0,1-1.41-.59l-5.88-5.88a3,3,0,0,1,0-4.24l5.88-5.88a2,2,0,0,1,2.83,0,2,2,0,0,1,.58,1.42v1.58H25a9,9,0,0,1,9,9v7A1,1,0,0,1,33,32.29ZM18.17,13.71l-5.88,5.88a1,1,0,0,0,0,1.41l5.88,5.88V24.29a1,1,0,0,1,1-1H26A8,8,0,0,1,32,26V24.29a7,7,0,0,0-7-7H19.17a1,1,0,0,1-1-1Z"/><circle class="cls-2" cx="22" cy="22" r="22"/><rect class="cls-2" x="10" y="10" width="24" height="24"/></g></g></g></svg>