<svg xmlns="http://www.w3.org/2000/svg" viewBox="0 0 44 44"><defs><style>.cls-1{fill:#0f0f0f;}.cls-2{fill:none;}</style></defs><title>share</title><g id="Слой_2" data-name="Слой 2"><g id="Слой_4" data-name="Слой 4"><g id="share"><path class="cls-1" d="M10,30.85v-7a9,9,0,0,1,9-9h4.83V13.27a2,2,0,0,1,2-2,2,2,0,0,1,1.41.59l5.88,5.87a3,3,0,0,1,0,4.25l-5.88,5.87a2,2,0,0,1-3.41-1.41V24.85H18a6,6,0,0,0-6,6,1,1,0,0,1-2,0Zm15.83-15a1,1,0,0,1-1,1H19a7,7,0,0,0-7,7v1.72a8,8,0,0,1,6-2.72h6.83a1,1,0,0,1,1,1v2.59l5.88-5.88a1,1,0,0,0,0-1.41l-5.88-5.88Z"/><circle class="cls-2" cx="22" cy="22" r="22"/><rect class="cls-2" x="10" y="10" width="24" height="24"/></g></g></g></svg>