<svg xmlns="http://www.w3.org/2000/svg" viewBox="0 0 44 44"><defs><style>.cls-1{fill:#0f0f0f;}.cls-2{fill:none;}</style></defs><title>shield</title><g id="Слой_2" data-name="Слой 2"><g id="Слой_4" data-name="Слой 4"><g id="shield"><g id="_01_align_center" data-name=" 01 align center"><path class="cls-1" d="M30,12.63,22,10l-7.95,2.63A3,3,0,0,0,12,15.47V22c0,7.52,9.2,11.68,9.59,11.85L22,34l.37-.12C22.71,33.75,32,30.57,32,22V15.47A3,3,0,0,0,30,12.63ZM30,22c0,6.26-6.35,9.22-7.95,9.86-1.61-.8-8-4.37-8-9.86V15.47a1,1,0,0,1,.68-1L22,12.1l7.32,2.42a1,1,0,0,1,.68,1Z"/></g><circle class="cls-2" cx="22" cy="22" r="22"/><rect class="cls-2" x="10" y="10" width="24" height="24"/></g></g></g></svg>