<svg xmlns="http://www.w3.org/2000/svg" viewBox="0 0 44 44"><defs><style>.cls-1{fill:#0f0f0f;}.cls-2{fill:none;}</style></defs><title>shield-check-filled</title><g id="Слой_2" data-name="Слой 2"><g id="Слой_4" data-name="Слой 4"><g id="shield-check-filled"><path class="cls-1" d="M28.58,12.14l-6.26-2.09a1,1,0,0,0-.64,0l-6.26,2.09A5,5,0,0,0,12,16.88V22c0,7.56,9.2,11.74,9.59,11.91a1,1,0,0,0,.82,0C22.8,33.74,32,29.56,32,22V16.88A5,5,0,0,0,28.58,12.14Zm-1.86,7.58L22.45,24a1.93,1.93,0,0,1-1.34.55h0a1.88,1.88,0,0,1-1.35-.6l-2.3-2.4a1,1,0,1,1,1.36-1.46l.08.08,2.24,2.34,4.19-4.2a1,1,0,0,1,1.41,0,1,1,0,0,1,0,1.39Z"/><circle class="cls-2" cx="22" cy="22" r="22"/><rect class="cls-2" x="10" y="10" width="24" height="24"/></g></g></g></svg>