<svg xmlns="http://www.w3.org/2000/svg" viewBox="0 0 44 44"><defs><style>.cls-1{fill:#0f0f0f;}.cls-2{fill:none;}</style></defs><title>square-small</title><g id="Слой_2" data-name="Слой 2"><g id="Слой_4" data-name="Слой 4"><g id="square-small"><path class="cls-1" d="M24.5,29h-5A4.51,4.51,0,0,1,15,24.5v-5A4.51,4.51,0,0,1,19.5,15h5A4.51,4.51,0,0,1,29,19.5v5A4.51,4.51,0,0,1,24.5,29Zm-5-12A2.5,2.5,0,0,0,17,19.5v5A2.5,2.5,0,0,0,19.5,27h5A2.5,2.5,0,0,0,27,24.5v-5A2.5,2.5,0,0,0,24.5,17Z"/><circle class="cls-2" cx="22" cy="22" r="22"/><rect class="cls-2" x="10" y="10" width="24" height="24"/></g></g></g></svg>