<svg xmlns="http://www.w3.org/2000/svg" viewBox="0 0 44 44"><defs><style>.cls-1{fill:#0f0f0f;}.cls-2{fill:none;}</style></defs><title>square-check</title><g id="Слой_2" data-name="Слой 2"><g id="Слой_4" data-name="Слой 4"><g id="square-check"><path class="cls-1" d="M29,10H15a5,5,0,0,0-5,5V29a5,5,0,0,0,5,5H29a5,5,0,0,0,5-5V15A5,5,0,0,0,29,10Zm0,22H15a3,3,0,0,1-3-3V15a3,3,0,0,1,3-3H29a3,3,0,0,1,3,3V29A3,3,0,0,1,29,32Z"/><path class="cls-1" d="M19.33,25.9,15.42,22A1,1,0,0,0,14,22h0a1,1,0,0,0,0,1.41l3.92,3.92a2,2,0,0,0,2.83,0h0L30,18.06a1,1,0,0,0,0-1.42h0a1,1,0,0,0-1.41,0Z"/><circle class="cls-2" cx="22" cy="22" r="22"/><rect class="cls-2" x="10" y="10" width="24" height="24"/></g></g></g></svg>