<svg xmlns="http://www.w3.org/2000/svg" viewBox="0 0 44 44"><defs><style>.cls-1{fill:#0f0f0f;}.cls-2{fill:none;}</style></defs><title>square-minus</title><g id="Слой_2" data-name="Слой 2"><g id="Слой_4" data-name="Слой 4"><g id="square-minus"><path class="cls-1" d="M27,22a1,1,0,0,1-1,1H18a1,1,0,0,1,0-2h8A1,1,0,0,1,27,22Zm7-7V29a5,5,0,0,1-5,5H15a5,5,0,0,1-5-5V15a5,5,0,0,1,5-5H29A5,5,0,0,1,34,15Zm-2,0a3,3,0,0,0-3-3H15a3,3,0,0,0-3,3V29a3,3,0,0,0,3,3H29a3,3,0,0,0,3-3Z"/><circle class="cls-2" cx="22" cy="22" r="22"/><rect class="cls-2" x="10" y="10" width="24" height="24"/></g></g></g></svg>