<svg xmlns="http://www.w3.org/2000/svg" viewBox="0 0 44 44"><defs><style>.cls-1{fill:#0f0f0f;}.cls-2{fill:none;}</style></defs><title>sun</title><g id="Слой_2" data-name="Слой 2"><g id="Слой_4" data-name="Слой 4"><g id="sun"><path class="cls-1" d="M22,27a5,5,0,1,1,5-5A5,5,0,0,1,22,27Zm0-8a3,3,0,1,0,3,3A3,3,0,0,0,22,19Zm1-5V11a1,1,0,1,0-2,0v3a1,1,0,0,0,.74,1A1,1,0,0,0,23,14Zm0,19V30a1,1,0,1,0-2,0v3a1,1,0,1,0,2,0ZM14,21H11a1,1,0,1,0,0,2h3a1,1,0,0,0,1-1.27A1,1,0,0,0,14,21Zm19,0H30a1,1,0,0,0-1,.74A1,1,0,0,0,30,23h3a1,1,0,1,0,0-2ZM16.72,16.7a1,1,0,0,0,0-1.41l-2-2a1,1,0,0,0-1.36-.08,1,1,0,0,0-.07,1.47l2,2A1,1,0,0,0,16,17a1,1,0,0,0,.71-.29Zm14,14a1,1,0,0,0,0-1.41l-2-2a1,1,0,0,0-1.36-.07,1,1,0,0,0-.07,1.46l2,2A1,1,0,0,0,30,31a1,1,0,0,0,.71-.29Zm-16,0,2-2a1,1,0,0,0,.08-1.36,1,1,0,0,0-1.47-.06l-2,2a1,1,0,0,0-.06,1.37A1,1,0,0,0,14,31a1,1,0,0,0,.71-.29Zm14-14,2-2a1,1,0,0,0,.07-1.36,1,1,0,0,0-1.46-.07l-2,2a1,1,0,0,0,1.41,1.42Z"/><circle class="cls-2" cx="22" cy="22" r="22"/><rect class="cls-2" x="10" y="10" width="24" height="24"/></g></g></g></svg>