<svg xmlns="http://www.w3.org/2000/svg" viewBox="0 0 44 44"><defs><style>.cls-1{fill:#0f0f0f;}.cls-2{fill:none;}</style></defs><title>trash</title><g id="Слой_2" data-name="Слой 2"><g id="Слой_4" data-name="Слой 4"><g id="trash"><g id="_01_align_center" data-name=" 01 align center"><path class="cls-1" d="M32,14H27V12a2,2,0,0,0-2-2H19a2,2,0,0,0-2,2v2H12v2h2V31a3,3,0,0,0,3,3H27a3,3,0,0,0,3-3V16h2ZM19,12h6v2H19Zm9,19a1,1,0,0,1-1,1H17a1,1,0,0,1-1-1V16H28Z"/><rect class="cls-1" x="19" y="20" width="2" height="8"/><rect class="cls-1" x="23" y="20" width="2" height="8"/></g><circle class="cls-2" cx="22" cy="22" r="22"/><rect class="cls-2" x="10" y="10" width="24" height="24"/></g></g></g></svg>