<svg xmlns="http://www.w3.org/2000/svg" viewBox="0 0 44 44"><defs><style>.cls-1{fill:#0f0f0f;}.cls-2{fill:none;}</style></defs><title>user-minus</title><g id="Слой_2" data-name="Слой 2"><g id="Слой_4" data-name="Слой 4"><g id="user-minus"><path class="cls-1" d="M28.4,33a1,1,0,0,1-1-1,7,7,0,0,0-14,0,1,1,0,0,1-2,0,9,9,0,0,1,18,0A1,1,0,0,1,28.4,33Zm6-11h-6a1,1,0,0,1,0-2h6a1,1,0,0,1,0,2Zm-14-1a6,6,0,1,1,6-6A6,6,0,0,1,20.4,21Zm0-10a4,4,0,1,0,4,4A4,4,0,0,0,20.4,11Z"/><circle class="cls-2" cx="22" cy="22" r="22"/><rect class="cls-2" x="10" y="10" width="24" height="24"/></g></g></g></svg>