<svg xmlns="http://www.w3.org/2000/svg" viewBox="0 0 44 44"><defs><style>.cls-1{fill:#0f0f0f;}.cls-2{fill:none;}</style></defs><title>user-slash</title><g id="Слой_2" data-name="Слой 2"><g id="Слой_4" data-name="Слой 4"><g id="user-slash"><path class="cls-1" d="M21,25a1,1,0,0,1-.72,1.22A7,7,0,0,0,15,33a1,1,0,0,1-2,0,9,9,0,0,1,6.75-8.72A1,1,0,0,1,21,25Zm12.74,8.71a1,1,0,0,1-1.42,0l-22-22a1,1,0,0,1,1.42-1.42l4.43,4.44a6,6,0,1,1,7.13,7.13L33.71,32.29a1,1,0,0,1,0,1.42ZM18.07,16.65l3.28,3.29A4.62,4.62,0,0,0,22,20a4,4,0,1,0-4-4,3.5,3.5,0,0,0,.07.65Z"/><circle class="cls-2" cx="22" cy="22" r="22"/><rect class="cls-2" x="10" y="10" width="24" height="24"/></g></g></g></svg>