<svg xmlns="http://www.w3.org/2000/svg" viewBox="0 0 44 44"><defs><style>.cls-1{fill:#0f0f0f;}.cls-2{fill:none;}</style></defs><title>users-two</title><g id="Слой_2" data-name="Слой 2"><g id="Слой_4" data-name="Слой 4"><g id="users-two"><path class="cls-1" d="M17.5,23A4.5,4.5,0,1,1,22,18.5,4.49,4.49,0,0,1,17.5,23Zm0-7A2.5,2.5,0,1,0,20,18.5,2.5,2.5,0,0,0,17.5,16ZM25,33v-.5a7.5,7.5,0,0,0-15,0V33a1,1,0,0,0,2,0v-.5a5.5,5.5,0,0,1,11,0V33a1,1,0,0,0,2,0Zm9-5a7,7,0,0,0-11.67-5.22,1,1,0,0,0,1.32,1.51l0,0A5,5,0,0,1,32,28a1,1,0,0,0,2,0Zm-6.5-9A4.5,4.5,0,1,1,32,14.5,4.49,4.49,0,0,1,27.5,19Zm0-7A2.5,2.5,0,1,0,30,14.5,2.5,2.5,0,0,0,27.5,12Z"/><circle class="cls-2" cx="22" cy="22" r="22"/><rect class="cls-2" x="10" y="10" width="24" height="24"/></g></g></g></svg>