<svg xmlns="http://www.w3.org/2000/svg" viewBox="0 0 44 44"><defs><style>.cls-1{fill:#0f0f0f;}.cls-2{fill:none;}</style></defs><title>user-cross</title><g id="Слой_2" data-name="Слой 2"><g id="Слой_4" data-name="Слой 4"><g id="user-cross"><path class="cls-1" d="M20,21a6,6,0,1,0-6-6A6,6,0,0,0,20,21Zm0-10a4,4,0,1,1-4,4A4,4,0,0,1,20,11Zm9,21a1,1,0,0,1-2,0,7,7,0,0,0-14,0,1,1,0,1,1-2,0,9,9,0,0,1,18,0Zm5.7-8.7a1,1,0,1,1-1.38,1.44l0,0-1.79-1.8-1.79,1.8a1,1,0,0,1-1.42-1.42l1.8-1.79-1.8-1.79a1,1,0,0,1,1.42-1.42l1.79,1.8,1.79-1.8a1,1,0,0,1,1.41,1.42L32.9,21.5Z"/><circle class="cls-2" cx="22" cy="22" r="22"/><rect class="cls-2" x="10" y="10" width="24" height="24"/></g></g></g></svg>