<svg xmlns="http://www.w3.org/2000/svg" viewBox="0 0 44 44"><defs><style>.cls-1{fill:#0f0f0f;}.cls-2{fill:none;}</style></defs><title>users-three</title><g id="Слой_2" data-name="Слой 2"><g id="Слой_4" data-name="Слой 4"><g id="users-three"><path class="cls-1" d="M22,26a4,4,0,1,1,4-4A4,4,0,0,1,22,26Zm0-6a2,2,0,1,0,2,2A2,2,0,0,0,22,20Zm6,13a6,6,0,0,0-12,0,1,1,0,0,0,2,0,4,4,0,0,1,8,0,1,1,0,0,0,2,0Zm0-15a4,4,0,1,1,4-4A4,4,0,0,1,28,18Zm0-6a2,2,0,1,0,2,2A2,2,0,0,0,28,12Zm6,13a6,6,0,0,0-6-6,1,1,0,0,0,0,2,4,4,0,0,1,4,4,1,1,0,0,0,2,0ZM16,18a4,4,0,1,1,4-4A4,4,0,0,1,16,18Zm0-6a2,2,0,1,0,2,2A2,2,0,0,0,16,12ZM12,25a4,4,0,0,1,4-4,1,1,0,0,0,0-2,6,6,0,0,0-6,6,1,1,0,0,0,2,0Z"/><circle class="cls-2" cx="22" cy="22" r="22"/><rect class="cls-2" x="10" y="10" width="24" height="24"/></g></g></g></svg>