<svg xmlns="http://www.w3.org/2000/svg" viewBox="0 0 44 44"><defs><style>.cls-1{fill:#fff;}.cls-2{fill:none;}</style></defs><title>alarm-clock</title><g id="Слой_2" data-name="Слой 2"><g id="Слой_4" data-name="Слой 4"><g id="alarm-clock"><path class="cls-1" d="M23,11V10a1,1,0,0,0-2,0v1a11,11,0,0,0-7.31,18.12A3,3,0,0,0,12,32a1,1,0,0,0,2,0,1.2,1.2,0,0,1,1.11-1.23.66.66,0,0,0,.2-.06,10.91,10.91,0,0,0,13.39,0l.18.07A1.2,1.2,0,0,1,30,32a1,1,0,1,0,2,0,3,3,0,0,0-1.68-2.82A11,11,0,0,0,23,11ZM13,22a9,9,0,1,1,9,9A9,9,0,0,1,13,22Z"/><path class="cls-1" d="M29.21,9a1,1,0,0,0,0,2A2.59,2.59,0,0,1,32,13.37s0,.08,0,.12a1,1,0,1,0,2,0A4.6,4.6,0,0,0,29.3,9Z"/><path class="cls-1" d="M12,13.49A2.6,2.6,0,0,1,14.67,11h.12a1,1,0,0,0,0-2A4.61,4.61,0,0,0,10,13.4v.09a1,1,0,1,0,2,0Z"/><path class="cls-1" d="M23,20.58V16a1,1,0,1,0-2,0v5a1,1,0,0,0,.3.72l3,3a1,1,0,0,0,1.42-1.43Z"/><circle class="cls-2" cx="22" cy="22" r="22"/><rect class="cls-2" x="10" y="10" width="24" height="24"/></g></g></g></svg>