<svg xmlns="http://www.w3.org/2000/svg" viewBox="0 0 44 44"><defs><style>.cls-1{fill:#fff;}.cls-2{fill:none;}</style></defs><title>arrow-right-circle</title><g id="Слой_2" data-name="Слой 2"><g id="Слой_4" data-name="Слой 4"><g id="arrow-right-circle"><path class="cls-1" d="M10,22A12,12,0,1,0,22,10,12,12,0,0,0,10,22Zm22,0A10,10,0,1,1,22,12,10,10,0,0,1,32,22Zm-8.87-5.75a1,1,0,0,0,0,1.42L26.43,21H16a1,1,0,0,0,0,2H26.43l-3.3,3.3a1,1,0,1,0,1.35,1.48l0,0,0,0,3.6-3.6a3,3,0,0,0,0-4.26h0l-3.6-3.6A1,1,0,0,0,23.13,16.25Z"/><circle class="cls-2" cx="22" cy="22" r="22"/><rect class="cls-2" x="10" y="10" width="24" height="24"/></g></g></g></svg>