<svg xmlns="http://www.w3.org/2000/svg" viewBox="0 0 44 44"><defs><style>.cls-1{fill:#fff;}.cls-2{fill:none;}</style></defs><title>backpack</title><g id="Слой_2" data-name="Слой 2"><g id="Слой_4" data-name="Слой 4"><g id="backpack"><path class="cls-1" d="M20,19h4a1,1,0,1,1,0,2H20a1,1,0,0,1-1-1.21A1,1,0,0,1,20,19Zm14,8v1a5,5,0,0,1-5,5H15a5,5,0,0,1-5-5V27a5,5,0,0,1,4-4.9V21A8.09,8.09,0,0,1,18,14s0,0,0-.07V13a4,4,0,1,1,8,0v1s0,.05,0,.07A8,8,0,0,1,30,21v1.1A5,5,0,0,1,34,27ZM20,13.25a7.93,7.93,0,0,1,4,0V13a2,2,0,0,0-2.12-2A2,2,0,0,0,20,13ZM16,25.53a8.37,8.37,0,0,1,11.83-.17c.06.06.12.11.17.17V21.06A6,6,0,1,0,16,21ZM15,31h.05a4.88,4.88,0,0,1-1-3V24.2A3,3,0,0,0,12,27v1A3,3,0,0,0,15,31Zm10,0a3,3,0,0,0,2.87-2.18,6.43,6.43,0,0,0-11.75,0A3,3,0,0,0,19,31Zm7-4a3,3,0,0,0-2-2.81V28a4.94,4.94,0,0,1-1,3H29a3,3,0,0,0,3-3Z"/><circle class="cls-2" cx="22" cy="22" r="22"/><rect class="cls-2" x="10" y="10" width="24" height="24"/></g></g></g></svg>