<svg xmlns="http://www.w3.org/2000/svg" viewBox="0 0 44 44"><defs><style>.cls-1{fill:#fff;}.cls-2{fill:none;}</style></defs><title>books</title><g id="Слой_2" data-name="Слой 2"><g id="Слой_4" data-name="Слой 4"><g id="books"><path class="cls-1" d="M33.78,29.5l-7-17.63a3,3,0,0,0-3.9-1.65l-.92.38a3.29,3.29,0,0,0-.68.4A3,3,0,0,0,19,10H13a3,3,0,0,0-3,3V31a3,3,0,0,0,3,3h6a3,3,0,0,0,3-3V18.92l5.29,13.22a3,3,0,0,0,3.89,1.63l.92-.37a3,3,0,0,0,1.65-3.9Zm-10.2-12,2.77-1.13,4.16,10.4-2.77,1.13Zm-.94-5,.92-.37a1,1,0,0,1,1.3.54l.75,1.87L22.84,15.6l-.75-1.87a1,1,0,0,1,.55-1.3ZM12,17h3V27H12Zm5,0h3V27H17Zm3-4v2H17V12h2A1,1,0,0,1,20,13Zm-7-1h2v3H12V13A1,1,0,0,1,13,12ZM12,31V29h3v3H13A1,1,0,0,1,12,31Zm7,1H17V29h3v2A1,1,0,0,1,19,32Zm12.9-1a1,1,0,0,1-.54.54h0l-.93.38a1,1,0,0,1-1.3-.54l-.67-1.67,2.78-1.13.66,1.66a1,1,0,0,1,0,.76Z"/><circle class="cls-2" cx="22" cy="22" r="22"/><rect class="cls-2" x="10" y="10" width="24" height="24"/></g></g></g></svg>