<svg xmlns="http://www.w3.org/2000/svg" viewBox="0 0 44 44"><defs><style>.cls-1{fill:#fff;}.cls-2{fill:none;}</style></defs><title>book-bookmark</title><g id="Слой_2" data-name="Слой 2"><g id="Слой_4" data-name="Слой 4"><g id="book-bookmark"><path class="cls-1" d="M27,10H17a5,5,0,0,0-5,5V30a4,4,0,0,0,4,4H27a5,5,0,0,0,5-5V15A5,5,0,0,0,27,10Zm3,5V26H18V12h4v8.35a.64.64,0,0,0,1.16.39L24.48,19l1.34,1.75A.65.65,0,0,0,27,20.37V12A3,3,0,0,1,30,15ZM16,12.13V26.05a4,4,0,0,0-2,.56V15A3,3,0,0,1,16,12.13ZM30,29a3,3,0,0,1-3,3H16.05a2,2,0,0,1,0-4H30Z"/><circle class="cls-2" cx="22" cy="22" r="22"/><rect class="cls-2" x="10" y="10" width="24" height="24"/></g></g></g></svg>