<svg xmlns="http://www.w3.org/2000/svg" viewBox="0 0 44 44"><defs><style>.cls-1{fill:#fff;}.cls-2{fill:none;}</style></defs><title>calculator</title><g id="Слой_2" data-name="Слой 2"><g id="Слой_4" data-name="Слой 4"><g id="calculator"><path class="cls-1" d="M28,34H16a5,5,0,0,1-5-5V15a5,5,0,0,1,5-5H28a5,5,0,0,1,5,5V29A5,5,0,0,1,28,34ZM13,15V29a3,3,0,0,0,3,3H28a3,3,0,0,0,3-3V15a3,3,0,0,0-3-3H16A3,3,0,0,0,13,15Zm13,5H18A3,3,0,1,1,18,14h8a3,3,0,0,1,3,2.87A3,3,0,0,1,26,20Zm-8-4a1,1,0,0,0-1,1.21A1,1,0,0,0,18,18h8a1,1,0,0,0,1-.81A1,1,0,0,0,26,16Zm-2,7a1,1,0,1,0,1,1A1,1,0,0,0,16,23Zm4,0a1,1,0,1,0,1,1A1,1,0,0,0,20,23Zm4,0a1,1,0,1,0,1,1A1,1,0,0,0,24,23Zm-8,4a1,1,0,1,0,1,1A1,1,0,0,0,16,27Zm4,0a1,1,0,1,0,1,1A1,1,0,0,0,20,27Zm8-4a1,1,0,1,0,1,1A1,1,0,0,0,28,23Zm0,4H24a1,1,0,1,0,0,2h4a1,1,0,1,0,0-2Z"/><circle class="cls-2" cx="22" cy="22" r="22"/><rect class="cls-2" x="10" y="10" width="24" height="24"/></g></g></g></svg>