<svg xmlns="http://www.w3.org/2000/svg" viewBox="0 0 44 44"><defs><style>.cls-1{fill:#fff;}.cls-2{fill:none;}</style></defs><title>chart-line</title><g id="Слой_2" data-name="Слой 2"><g id="Слой_4" data-name="Слой 4"><g id="chart-line"><path class="cls-1" d="M33,32H15a2.94,2.94,0,0,1-3-3V11a1,1,0,0,0-1-1,1,1,0,0,0-1,1V29a5,5,0,0,0,5,5H33a1,1,0,0,0,1-1A1,1,0,0,0,33,32Z"/><path class="cls-1" d="M17,29V22a1,1,0,1,0-2,0V29a1,1,0,1,0,2,0Z"/><path class="cls-1" d="M20,20V29a1,1,0,0,0,.81,1A1,1,0,0,0,22,29V20a1,1,0,1,0-2,0Z"/><path class="cls-1" d="M25,23v6a1,1,0,1,0,2,0V23a1,1,0,0,0-.81-1A1,1,0,0,0,25,23Z"/><path class="cls-1" d="M30,19V29a1,1,0,1,0,2,0V19a1,1,0,1,0-2,0Z"/><path class="cls-1" d="M16,19a1,1,0,0,0,.71-.29l3.58-3.59a1,1,0,0,1,1.42,0l2.17,2.17a3,3,0,0,0,4.24,0l5.59-5.58a1,1,0,0,0-1.42-1.42l-5.58,5.59a1,1,0,0,1-1.42,0l-2.17-2.17a3,3,0,0,0-4.24,0l-3.59,3.58a1,1,0,0,0,0,1.42A1,1,0,0,0,16,19Z"/><circle class="cls-2" cx="22" cy="22" r="22"/><rect class="cls-2" x="10" y="10" width="24" height="24"/></g></g></g></svg>