<svg xmlns="http://www.w3.org/2000/svg" viewBox="0 0 44 44"><defs><style>.cls-1{fill:#fff;}.cls-2{fill:none;}</style></defs><title>chart-histogram</title><g id="Слой_2" data-name="Слой 2"><g id="Слой_4" data-name="Слой 4"><g id="chart-histogram"><path class="cls-1" d="M31,19H13a3,3,0,1,0,0,6H31a3,3,0,1,0,0-6Zm0,5H13.08a2,2,0,1,1,0-4H30.92a2,2,0,1,1,0,4ZM13,16H25a3,3,0,1,0,0-6H13a3,3,0,1,0,0,6Zm0-5H24.94a2,2,0,1,1,0,4H13.06a2,2,0,1,1,0-4Zm6,17H13a3,3,0,1,0,0,6h6a3,3,0,1,0,0-6Zm0,5H13.05a2,2,0,1,1,0-4H19a2,2,0,1,1,0,4Z"/><circle class="cls-2" cx="22" cy="22" r="22"/><rect class="cls-2" x="10" y="10" width="24" height="24"/></g></g></g></svg>