<svg xmlns="http://www.w3.org/2000/svg" viewBox="0 0 44 44"><defs><style>.cls-1{fill:#fff;}.cls-2{fill:none;}</style></defs><title>chart-pie</title><g id="Слой_2" data-name="Слой 2"><g id="Слой_4" data-name="Слой 4"><g id="chart-pie"><path class="cls-1" d="M28.89,21.87H24.13a2,2,0,0,1-2-2V15.07a3,3,0,0,0-1.17-2.4,2.91,2.91,0,0,0-2.51-.54A11.09,11.09,0,1,0,31.85,25.57a2.9,2.9,0,0,0-.54-2.51A3.1,3.1,0,0,0,28.89,21.87ZM30,25.05a9.1,9.1,0,1,1-11-11,.87.87,0,0,1,.78.17,1,1,0,0,1,.4.82v4.8a4,4,0,0,0,4.05,4H29a1.05,1.05,0,0,1,.83.41.9.9,0,0,1,.16.78Z"/><path class="cls-1" d="M33.92,17.25a10.17,10.17,0,0,0-7.14-7.15,2.59,2.59,0,0,0-.55-.07,2,2,0,0,0-2,2V16.8a3,3,0,0,0,3,3H32a2,2,0,0,0,1.93-2.58Zm-2.53.55h-4.2a1,1,0,0,1-1-1V12h0A8.18,8.18,0,0,1,32,17.8Z"/><circle class="cls-2" cx="22" cy="22" r="22"/><rect class="cls-2" x="10" y="10" width="24" height="24"/></g></g></g></svg>