<svg xmlns="http://www.w3.org/2000/svg" viewBox="0 0 44 44"><defs><style>.cls-1{fill:#fff;}.cls-2{fill:none;}</style></defs><title>chevron-down</title><g id="Слой_2" data-name="Слой 2"><g id="Слой_4" data-name="Слой 4"><g id="chevron-down"><path class="cls-1" d="M10,21.17a1.05,1.05,0,0,1,.29-.71l8.18-8.17a5,5,0,0,1,7.07,0l8.18,8.17a1,1,0,0,1-1.42,1.42L24.13,13.7a3,3,0,0,0-4.25,0l-8.17,8.18a1,1,0,0,1-1.42,0A1,1,0,0,1,10,21.17Z"/><path class="cls-1" d="M10,31.18a1,1,0,0,1,.29-.71l9.59-9.59a3,3,0,0,1,4.25,0l9.59,9.59a1,1,0,0,1-1.42,1.41l-9.59-9.59a1,1,0,0,0-1.41,0l-9.59,9.59a1,1,0,0,1-1.71-.7Z"/><circle class="cls-2" cx="22" cy="22" r="22"/><rect class="cls-2" x="10" y="10" width="24" height="24"/></g></g></g></svg>