<svg xmlns="http://www.w3.org/2000/svg" viewBox="0 0 44 44"><defs><style>.cls-1{fill:#fff;}.cls-2{fill:none;}</style></defs><title>chevron-up</title><g id="Слой_2" data-name="Слой 2"><g id="Слой_4" data-name="Слой 4"><g id="chevron-up"><path class="cls-1" d="M10.29,22.12a1,1,0,0,1,1.42,0l8.17,8.18a3,3,0,0,0,4.25,0l8.17-8.18a1,1,0,0,1,1.42,1.42l-8.18,8.17a5,5,0,0,1-7.07,0l-8.18-8.17a1,1,0,0,1,0-1.42Z"/><path class="cls-1" d="M10.29,12.12a1,1,0,0,1,1.42,0l9.59,9.59a1,1,0,0,0,1.41,0l9.59-9.59a1,1,0,0,1,1.42,0,1,1,0,0,1,0,1.39l-9.59,9.59a3,3,0,0,1-4.25,0l-9.59-9.59A1,1,0,0,1,10.29,12.12Z"/><circle class="cls-2" cx="22" cy="22" r="22"/><rect class="cls-2" x="10" y="10" width="24" height="24"/></g></g></g></svg>