<svg xmlns="http://www.w3.org/2000/svg" viewBox="0 0 44 44"><defs><style>.cls-1{fill:#fff;}.cls-2{fill:none;}</style></defs><title>circle-info</title><g id="Слой_2" data-name="Слой 2"><g id="Слой_4" data-name="Слой 4"><g id="circle-info"><path class="cls-1" d="M22,10A12,12,0,1,0,34,22,12,12,0,0,0,22,10Zm0,22A10,10,0,1,1,32,22,10,10,0,0,1,22,32Z"/><path class="cls-1" d="M23,20H20.73a.54.54,0,0,0-.4.18A1,1,0,0,0,21,22h1v6.31a.52.52,0,0,0,.18.4A1,1,0,0,0,24,28.05V21A1,1,0,0,0,23,20Z"/><circle class="cls-1" cx="22" cy="16.5" r="1.5"/><circle class="cls-2" cx="22" cy="22" r="22"/><rect class="cls-2" x="10" y="10" width="24" height="24"/></g></g></g></svg>