<svg xmlns="http://www.w3.org/2000/svg" viewBox="0 0 44 44"><defs><style>.cls-1{fill:#fff;}.cls-2{fill:none;}</style></defs><title>circle-dashed</title><g id="Слой_2" data-name="Слой 2"><g id="Слой_4" data-name="Слой 4"><g id="circle-dashed"><path class="cls-1" d="M12.42,16.47a1,1,0,0,1-.24-1.39,12.18,12.18,0,0,1,2.91-2.91,1,1,0,1,1,1.15,1.63,10.2,10.2,0,0,0-2.43,2.43,1,1,0,0,1-.82.42,1,1,0,0,1-.58-.18Zm1.4,11.3a1,1,0,1,0-1.63,1.15,12.18,12.18,0,0,0,2.91,2.91,1,1,0,0,0,1.4-.24,1,1,0,0,0-.24-1.39,10,10,0,0,1-2.43-2.43ZM12,22a9.91,9.91,0,0,1,.16-1.81,1,1,0,1,0-2-.36,11.87,11.87,0,0,0,0,4.34,1,1,0,0,0,1,.82.55.55,0,0,0,.18,0,1,1,0,0,0,.8-1.16A9.91,9.91,0,0,1,12,22Zm18.18,5.77a10,10,0,0,1-2.43,2.43,1,1,0,0,0-.24,1.39,1,1,0,0,0,.82.42,1,1,0,0,0,.58-.18,12.18,12.18,0,0,0,2.91-2.91,1,1,0,0,0-1.63-1.15Zm-6.37,4.07a10.32,10.32,0,0,1-3.62,0,1,1,0,1,0-.36,2,11.87,11.87,0,0,0,4.34,0,1,1,0,0,0-.36-2Zm.36-21.64a11.87,11.87,0,0,0-4.34,0,1,1,0,0,0,.18,2,.55.55,0,0,0,.18,0,10.32,10.32,0,0,1,3.62,0l.18,0a1,1,0,0,0,.18-2Zm6,6a1,1,0,0,0,.82.42,1,1,0,0,0,.58-.18,1,1,0,0,0,.24-1.39,12.18,12.18,0,0,0-2.91-2.91,1,1,0,0,0-1.15,1.63,10,10,0,0,1,2.43,2.43Zm3.62,3.6a1,1,0,1,0-2,.36,10.32,10.32,0,0,1,0,3.62,1,1,0,0,0,.8,1.16l.18,0a1,1,0,0,0,1-.82,11.87,11.87,0,0,0,0-4.34Z"/><circle class="cls-2" cx="22" cy="22" r="22"/><rect class="cls-2" x="10" y="10" width="24" height="24"/></g></g></g></svg>