<svg xmlns="http://www.w3.org/2000/svg" viewBox="0 0 44 44"><defs><style>.cls-1{fill:#fff;}.cls-2{fill:none;}</style></defs><title>clock-check-filled</title><g id="Слой_2" data-name="Слой 2"><g id="Слой_4" data-name="Слой 4"><g id="clock-check-filled"><path class="cls-1" d="M29,33h0a1.92,1.92,0,0,1-1.35-.6l-1.91-1.88a1,1,0,0,1,0-1.42h0a1,1,0,0,1,1.41,0L29,31l3.34-3.34a1,1,0,0,1,1.42,0,1,1,0,0,1,0,1.41l-3.42,3.42A1.89,1.89,0,0,1,29,33Z"/><path class="cls-1" d="M24,30a6,6,0,0,1,9.52-4.8,12,12,0,1,0-14.77,8.35,11.86,11.86,0,0,0,6.42,0A6,6,0,0,1,24,30Zm-1-8a1,1,0,0,1-.29.71l-3,3a1,1,0,0,1-1.41-1.42L21,21.61V17a1,1,0,0,1,2,0Z"/><circle class="cls-2" cx="22" cy="22" r="22"/><rect class="cls-2" x="10" y="10" width="24" height="24"/></g></g></g></svg>