<svg xmlns="http://www.w3.org/2000/svg" viewBox="0 0 44 44"><defs><style>.cls-1{fill:#fff;}.cls-2{fill:none;}</style></defs><title>clock-period</title><g id="Слой_2" data-name="Слой 2"><g id="Слой_4" data-name="Слой 4"><g id="clock-period"><path class="cls-1" d="M34,22a1,1,0,0,1-2,0A10,10,0,0,0,22,12a1,1,0,0,1,0-2A12,12,0,0,1,34,22Zm-8,1a1,1,0,0,0,0-2H23.72a1.91,1.91,0,0,0-.72-.72V17a1,1,0,0,0-2,0v3.28a2,2,0,1,0,2,3.45,2,2,0,0,0,.73-.73ZM11.83,16.78a1,1,0,1,0,1,1A1,1,0,0,0,11.83,16.78ZM12,22a1,1,0,1,0-1,1A1,1,0,0,0,12,22ZM22,32a1,1,0,1,0,1,1A1,1,0,0,0,22,32ZM14.22,13.21a1,1,0,1,0,1,1A1,1,0,0,0,14.22,13.21Zm3.56-2.37a1,1,0,1,0,1,1A1,1,0,0,0,17.78,10.84Zm-6,14.38a1,1,0,1,0,0,2,1,1,0,0,0,1-1h0a1,1,0,0,0-1-1Zm2.39,3.57a1,1,0,1,0,1,1A1,1,0,0,0,14.22,28.79Zm3.56,2.37a1,1,0,1,0,1,1A1,1,0,0,0,17.78,31.16Zm14.39-5.94a1,1,0,1,0,1,1h0a1,1,0,0,0-1-1Zm-2.39,3.57a1,1,0,1,0,1,1A1,1,0,0,0,29.78,28.79Zm-3.56,2.37a1,1,0,1,0,1,1A1,1,0,0,0,26.22,31.16Z"/><circle class="cls-2" cx="22" cy="22" r="22"/><rect class="cls-2" x="10" y="10" width="24" height="24"/></g></g></g></svg>