<svg xmlns="http://www.w3.org/2000/svg" viewBox="0 0 44 44"><defs><style>.cls-1{fill:#fff;}.cls-2{fill:none;}</style></defs><title>clock-duration</title><g id="Слой_2" data-name="Слой 2"><g id="Слой_4" data-name="Слой 4"><g id="clock-duration"><path class="cls-1" d="M33,21a1,1,0,0,0-1,1,10,10,0,1,1-2.9-7L29,15H26a1,1,0,1,0,0,2h3a3,3,0,0,0,3-3V11a1,1,0,1,0-2,0v2.06A12,12,0,1,0,34,22,1,1,0,0,0,33,21Z"/><path class="cls-1" d="M22,16a1,1,0,0,0-1,1v5a1,1,0,0,0,.3.71l3,3a1,1,0,0,0,1.41-1.42L23,21.59V17a1,1,0,0,0-1-1Z"/><circle class="cls-2" cx="22" cy="22" r="22"/><rect class="cls-2" x="10" y="10" width="24" height="24"/></g></g></g></svg>