<svg xmlns="http://www.w3.org/2000/svg" viewBox="0 0 44 44"><defs><style>.cls-1{fill:#fff;}.cls-2{fill:none;}</style></defs><title>cloud-upload</title><g id="Слой_2" data-name="Слой 2"><g id="Слой_4" data-name="Слой 4"><g id="cloud-upload"><path class="cls-1" d="M28.4,16.91a1.12,1.12,0,0,1-.77-.75h0a8,8,0,0,0-15.35,4.53c.08.24.16.47.25.71a1,1,0,0,1-.31,1.23,5.52,5.52,0,0,0-2.16,5.21,5.63,5.63,0,0,0,5.62,4.71H21a1,1,0,0,0,1-1h0a1,1,0,0,0-1-1H15.68a3.6,3.6,0,0,1-3.64-3,3.44,3.44,0,0,1,1.37-3.31,3,3,0,0,0,1-3.56,6.1,6.1,0,0,1-.07-4.13,6,6,0,0,1,4.89-4,6.49,6.49,0,0,1,.77-.05,6,6,0,0,1,5.75,4.28,3,3,0,0,0,2,2,5.94,5.94,0,0,1,.78,11.1,1,1,0,0,0-.53.88h0a1,1,0,0,0,1,1,1,1,0,0,0,.41-.08c4.13-2,6.38-7.22,2.88-12.27A7,7,0,0,0,28.4,16.91Z"/><path class="cls-1" d="M28.72,26.23a1,1,0,0,0,0-1.43l-1.6-1.59a3,3,0,0,0-4.27,0l-1.6,1.59a1,1,0,0,0,1.42,1.43L24,24.93v7.63a1,1,0,1,0,2,0V24.93l1.31,1.3a1,1,0,0,0,1.42,0Z"/><circle class="cls-2" cx="22" cy="22" r="22"/><rect class="cls-2" x="10" y="10" width="24" height="24"/></g></g></g></svg>