<svg xmlns="http://www.w3.org/2000/svg" viewBox="0 0 44 44"><defs><style>.cls-1{fill:#fff;}.cls-2{fill:none;}</style></defs><title>cross-small</title><g id="Слой_2" data-name="Слой 2"><g id="Слой_4" data-name="Слой 4"><g id="cross-small"><path class="cls-1" d="M28.67,15.33h0a1.1,1.1,0,0,0-1.57,0L22,20.43l-5.1-5.1a1.1,1.1,0,0,0-1.57,0h0a1.1,1.1,0,0,0,0,1.57l5.1,5.1-5.1,5.1a1.1,1.1,0,0,0,0,1.57h0a1.1,1.1,0,0,0,1.57,0l5.1-5.1,5.1,5.1a1.1,1.1,0,0,0,1.57,0h0a1.1,1.1,0,0,0,0-1.57L23.57,22l5.1-5.1A1.1,1.1,0,0,0,28.67,15.33Z"/><circle class="cls-2" cx="22" cy="22" r="22"/><rect class="cls-2" x="10" y="10" width="24" height="24"/></g></g></g></svg>