<svg xmlns="http://www.w3.org/2000/svg" viewBox="0 0 44 44"><defs><style>.cls-1{fill:#fff;}.cls-2{fill:none;}</style></defs><title>document-histogram</title><g id="Слой_2" data-name="Слой 2"><g id="Слой_4" data-name="Слой 4"><g id="document-histogram"><path class="cls-1" d="M19,26.41v2a1,1,0,1,1-2,0v-2a1,1,0,0,1,.8-1A1,1,0,0,1,19,26.41Zm7-3a1,1,0,0,0-1,1v4a1,1,0,1,0,2,0v-4A1,1,0,0,0,26,23.39Zm-5-2v7a1,1,0,1,0,2,0v-7a1,1,0,1,0-2,0Zm11-1.5v8.52a5,5,0,0,1-5,5H17a5,5,0,0,1-5-5v-14a5,5,0,0,1,5-5h4.52a7,7,0,0,1,5,2.05L30,15a7,7,0,0,1,2,4.95Zm-7-7A5.14,5.14,0,0,0,24,12.08v4.35a1,1,0,0,0,1,1h4.36a5.08,5.08,0,0,0-.81-1.05l-3.49-3.49Zm4.94,7c0-.16,0-.32,0-.48H25a3,3,0,0,1-3-3v-5a3.87,3.87,0,0,0-.48,0H17a3,3,0,0,0-3,3v14a3,3,0,0,0,3,3H27a3,3,0,0,0,3-3Z"/><circle class="cls-2" cx="22" cy="22" r="22"/><rect class="cls-2" x="10" y="10" width="24" height="24"/></g></g></g></svg>