<svg xmlns="http://www.w3.org/2000/svg" viewBox="0 0 44 44"><defs><style>.cls-1{fill:#fff;}.cls-2{fill:none;}</style></defs><title>document</title><g id="Слой_2" data-name="Слой 2"><g id="Слой_4" data-name="Слой 4"><g id="document"><path class="cls-1" d="M30,15.1l-3.49-3.49a7,7,0,0,0-5-2H17a5,5,0,0,0-5,5v14a5,5,0,0,0,5,5H27a5,5,0,0,0,5-5V20.05A7,7,0,0,0,30,15.1Zm-1.43,1.43a4.78,4.78,0,0,1,.78,1H25a1,1,0,0,1-1-1V12.26A4.78,4.78,0,0,1,25,13ZM30,28.59a3,3,0,0,1-3,3H17a3,3,0,0,1-3-3v-14a3,3,0,0,1,3-3h4.53c.16,0,.32,0,.48,0v5a3,3,0,0,0,3,3H30c0,.17,0,.32,0,.49Z"/><circle class="cls-2" cx="22" cy="22" r="22"/><rect class="cls-2" x="10" y="10" width="24" height="24"/></g></g></g></svg>