<svg xmlns="http://www.w3.org/2000/svg" viewBox="0 0 44 44"><defs><style>.cls-1{fill:#fff;}.cls-2{fill:none;}</style></defs><title>document-export</title><g id="Слой_2" data-name="Слой 2"><g id="Слой_4" data-name="Слой 4"><g id="document-export"><path class="cls-1" d="M30,30.93a1,1,0,0,0-1.41.09,3,3,0,0,1-2.25,1h-10a3,3,0,0,1-3-3V15a3,3,0,0,1,3-3h4.52a4,4,0,0,1,.49,0V17a3,3,0,0,0,3,3h5.8a1,1,0,0,0,1-1.24,7,7,0,0,0-1.83-3.22l-3.47-3.47A7,7,0,0,0,20.86,10h-4.5a5,5,0,0,0-5,5V29a5,5,0,0,0,5,5h10a5,5,0,0,0,3.75-1.67A1,1,0,0,0,30,30.93Zm-6.7-18.26a5.08,5.08,0,0,1,1.05.81L27.85,17A6,6,0,0,1,28.66,18H24.31a1,1,0,0,1-1-1V12.67ZM34.5,28.11l-1.62,1.63a1,1,0,0,1-.72.29,1,1,0,0,1-.71-.29,1,1,0,0,1,0-1.42l1.3-1.3H25.3a1,1,0,1,1,0-2h7.46l-1.29-1.29a1.07,1.07,0,0,1-.14-1.28,1,1,0,0,1,1.55-.15l1.62,1.62a3,3,0,0,1,0,4.22Z"/><circle class="cls-2" cx="22" cy="22" r="22"/><rect class="cls-2" x="10" y="10" width="24" height="24"/></g></g></g></svg>