<svg xmlns="http://www.w3.org/2000/svg" viewBox="0 0 44 44"><defs><style>.cls-1{fill:#fff;}.cls-2{fill:none;}</style></defs><title>extension-pdf</title><g id="Слой_2" data-name="Слой 2"><g id="Слой_4" data-name="Слой 4"><g id="extension-pdf"><g id="Слой_1-2" data-name="Слой 1-2"><path class="cls-1" d="M20.61,27.09a1.38,1.38,0,0,0,.34-1,1.41,1.41,0,0,0-.33-1,1.39,1.39,0,0,0-1-.34h-.4v2.69h.37A1.42,1.42,0,0,0,20.61,27.09Z"/><path class="cls-1" d="M16.28,25.85a.52.52,0,0,0,.25-.51.49.49,0,0,0-.06-.29.55.55,0,0,0-.18-.19,1,1,0,0,0-.29-.1,2.48,2.48,0,0,0-.38,0h-.38V26h.3A1.58,1.58,0,0,0,16.28,25.85Z"/><path class="cls-1" d="M31,15.82l-5.63-5.61L25.21,10h-10l-.42.12A2.53,2.53,0,0,0,13,12.62q0,4.55,0,9.07V22h-.32a1,1,0,0,0-.95.95c0,.38,0,.77,0,1.15,0,1.61,0,3.22,0,4.83,0,.84.32,1.4,1.29,1.38,0,.39,0,.78,0,1.16a2.43,2.43,0,0,0,1.06,2,2.59,2.59,0,0,0,1.6.49H28.55a4.18,4.18,0,0,0,.61,0,2.53,2.53,0,0,0,2.05-2.33c0-.14,0-.28,0-.42q0-7.43,0-14.85A.66.66,0,0,0,31,15.82ZM14.28,24a5,5,0,0,1,.66-.08l.61,0a2.67,2.67,0,0,1,1.46.34,1.2,1.2,0,0,1,.51,1.09,1.21,1.21,0,0,1-.51,1.1,2.67,2.67,0,0,1-1.47.34h-.3v1.42h-1Zm14.23,8.41H15.69a1,1,0,0,1-1.16-1.16v-1h.3c3.92,0,7.84,0,11.76,0a1.14,1.14,0,0,0,1.25-1.25c0-1.94,0-3.89,0-5.83A1.07,1.07,0,0,0,26.61,22H14.53V12.71a1.1,1.1,0,0,1,.36-.9,1,1,0,0,1,.71-.25h8.83l.15,0v.3c0,1.07,0,2.14,0,3.21a1.67,1.67,0,0,0,1.58,1.57c1,0,2.06,0,3.1,0h.32a2.46,2.46,0,0,1,0,.26q0,7.18,0,14.36A1,1,0,0,1,28.51,32.44ZM18.22,28.16V24a5.4,5.4,0,0,1,.69-.08c.24,0,.45,0,.62,0a3.36,3.36,0,0,1,1,.12,2.09,2.09,0,0,1,.76.38,1.85,1.85,0,0,1,.49.68,2.61,2.61,0,0,1,.17,1,2.4,2.4,0,0,1-.17,1,1.78,1.78,0,0,1-.49.68,2,2,0,0,1-.77.41,3.46,3.46,0,0,1-1,.13l-.6,0A4,4,0,0,1,18.22,28.16Zm7.15-2.5v.8H23.69v1.75h-1V24h2.85v.8H23.69v.89Z"/></g><circle class="cls-2" cx="22" cy="22" r="22"/><rect class="cls-2" x="10" y="10" width="24" height="24"/></g></g></g></svg>