<svg xmlns="http://www.w3.org/2000/svg" viewBox="0 0 44 44"><defs><style>.cls-1{fill:#fff;}.cls-2{fill:none;}</style></defs><title>extension-csv</title><g id="Слой_2" data-name="Слой 2"><g id="Слой_4" data-name="Слой 4"><g id="extension-csv"><g id="Слой_1-2" data-name="Слой 1-2"><path class="cls-1" d="M31.72,15.7l-5.63-5.6-.16-.21h-10c-.14,0-.29.07-.42.12a2.54,2.54,0,0,0-1.79,2.5v9.36l-.31,0a1,1,0,0,0-1,.95c0,.38,0,.76,0,1.15,0,1.6,0,3.21,0,4.82,0,.85.32,1.4,1.29,1.39,0,.39,0,.77,0,1.16a2.5,2.5,0,0,0,1.06,2,2.62,2.62,0,0,0,1.61.49h12.9a4.08,4.08,0,0,0,.61,0,2.54,2.54,0,0,0,2.06-2.33c0-.14,0-.28,0-.42V16.23A.67.67,0,0,0,31.72,15.7ZM15,25a2,2,0,0,1,.46-.7,1.92,1.92,0,0,1,.68-.43,2.32,2.32,0,0,1,.86-.14,2,2,0,0,1,.49,0,2.74,2.74,0,0,1,.39.09l.28.1.15.09-.27.77a3.14,3.14,0,0,0-.46-.18A2.32,2.32,0,0,0,17,24.6a1.61,1.61,0,0,0-.43.07.91.91,0,0,0-.37.24,1.14,1.14,0,0,0-.26.42,1.65,1.65,0,0,0-.1.62,2.51,2.51,0,0,0,.06.55,1.19,1.19,0,0,0,.21.44,1.1,1.1,0,0,0,.38.29,1.55,1.55,0,0,0,.56.11,2.43,2.43,0,0,0,.38,0l.29-.06.23-.07.17-.08.27.76a2,2,0,0,1-.57.22,3.55,3.55,0,0,1-.86.1,2.06,2.06,0,0,1-1.57-.57A2.32,2.32,0,0,1,14.81,26,2.51,2.51,0,0,1,15,25ZM29.24,32.3H16.4a1,1,0,0,1-1.16-1.15v-1h.31c3.92,0,7.84,0,11.76,0a1.14,1.14,0,0,0,1.25-1.25c0-1.94,0-3.89,0-5.83a1.05,1.05,0,0,0-1.22-1.21h-12V12.58a1.14,1.14,0,0,1,.35-.91,1,1,0,0,1,.72-.24h8.81l.15,0v.3c0,1.07,0,2.14,0,3.21a1.66,1.66,0,0,0,1.58,1.56c1,0,2.06,0,3.09,0h.33c0,.09,0,.17,0,.25q0,7.18,0,14.36A1,1,0,0,1,29.24,32.3Zm-8.53-5.7a3.16,3.16,0,0,0-.67-.3l-.42-.16a2.35,2.35,0,0,1-.37-.24,1.14,1.14,0,0,1-.27-.35,1.1,1.1,0,0,1-.11-.5,1.4,1.4,0,0,1,.11-.53,1.13,1.13,0,0,1,.32-.4,1.44,1.44,0,0,1,.49-.26,2,2,0,0,1,.64-.08,2.62,2.62,0,0,1,1.26.29l-.28.76a3.29,3.29,0,0,0-.39-.17,1.88,1.88,0,0,0-.53-.07.87.87,0,0,0-.49.1.35.35,0,0,0-.09.48.54.54,0,0,0,.15.15l.23.11.3.11c.21.08.41.16.57.24a1.65,1.65,0,0,1,.41.28,1.12,1.12,0,0,1,.24.37,1.57,1.57,0,0,1,.08.52,1.11,1.11,0,0,1-.42.93,2,2,0,0,1-1.25.32,4.36,4.36,0,0,1-.51,0l-.4-.08L19,28l-.21-.1.27-.76a1.91,1.91,0,0,0,.47.18,2.59,2.59,0,0,0,.68.09,1.24,1.24,0,0,0,.33,0,.4.4,0,0,0,.21-.09.26.26,0,0,0,.11-.14.47.47,0,0,0,0-.17.41.41,0,0,0-.19-.35Zm1.42-2.78h1.06l.26.83.3.84c.1.29.2.56.29.81s.18.48.26.67c.08-.19.17-.41.26-.67s.2-.52.3-.8.2-.57.29-.85l.27-.78h1l-.33.92c-.13.34-.26.7-.41,1.07s-.3.76-.46,1.14-.33.75-.5,1.11h-.9c-.17-.36-.34-.74-.51-1.12s-.32-.77-.47-1.15-.29-.74-.41-1.09-.23-.65-.32-.93Z"/></g><circle class="cls-2" cx="22" cy="22" r="22"/><rect class="cls-2" x="10" y="10" width="24" height="24"/></g></g></g></svg>