<svg xmlns="http://www.w3.org/2000/svg" viewBox="0 0 44 44"><defs><style>.cls-1{fill:#fff;}.cls-2{fill:none;}</style></defs><title>extension-txt</title><g id="Слой_2" data-name="Слой 2"><g id="Слой_4" data-name="Слой 4"><g id="extension-txt"><g id="Слой_1-2" data-name="Слой 1-2"><path class="cls-1" d="M31.55,15.82l-5.63-5.61L25.75,10h-10l-.43.12a2.54,2.54,0,0,0-1.78,2.5V22h-.31a1,1,0,0,0-1,.95c0,.38,0,.77,0,1.15,0,1.61,0,3.22,0,4.83,0,.84.32,1.4,1.29,1.38,0,.39,0,.78,0,1.16a2.46,2.46,0,0,0,1.06,2,2.61,2.61,0,0,0,1.6.49H29.09a4.07,4.07,0,0,0,.61,0,2.55,2.55,0,0,0,2.06-2.33c0-.14,0-.28,0-.42V16.35A.66.66,0,0,0,31.55,15.82Zm-17.09,9V24H18v.82H16.69v3.42h-1V24.79Zm14.59,7.65H16.23a1,1,0,0,1-1.15-1.16v-1h.29c3.92,0,7.84,0,11.76,0a1.14,1.14,0,0,0,1.25-1.25c0-1.94,0-3.89,0-5.83A1.07,1.07,0,0,0,27.15,22H15.08V12.71a1.09,1.09,0,0,1,.35-.9,1,1,0,0,1,.71-.25H25l.14,0v.3c0,1.07,0,2.14,0,3.21a1.67,1.67,0,0,0,1.58,1.57c1,0,2.07,0,3.1,0h.33c0,.09,0,.18,0,.26q0,7.18,0,14.36a1,1,0,0,1-1.16,1.16ZM18.37,24h1.16l.81,1.23L21.16,24h1.09L20.88,26a13.37,13.37,0,0,1,.89,1.24c.23.38.42.7.55.95H21.18c-.12-.23-.25-.47-.39-.71a2.68,2.68,0,0,0-.49-.62,2.71,2.71,0,0,0-.22.27c-.09.11-.17.23-.26.35s-.17.26-.25.4l-.17.31H18.31c.19-.35.41-.69.63-1s.52-.73.82-1.12Zm4.29.82V24h3.52v.82H24.9v3.42h-1V24.79Z"/></g><circle class="cls-2" cx="22" cy="22" r="22"/><rect class="cls-2" x="10" y="10" width="24" height="24"/></g></g></g></svg>