<svg xmlns="http://www.w3.org/2000/svg" viewBox="0 0 44 44"><defs><style>.cls-1{fill:#fff;}.cls-2{fill:none;}</style></defs><title>file-license</title><g id="Слой_2" data-name="Слой 2"><g id="Слой_4" data-name="Слой 4"><g id="file-license"><path class="cls-1" d="M30,15.35l-3.48-3.49a7,7,0,0,0-4.95-2H17c-1.18,0-3.19-.13-4.14.41s-.86,3-.86,4.59v18a1,1,0,0,0,1,1h6.41a.24.24,0,0,0,.14-.05,1.06,1.06,0,0,0-.53-2H14.64a.62.62,0,0,1-.62-.62V12.27a.49.49,0,0,1,.49-.49s7.36,0,7.52,0v7.51a.5.5,0,0,0,.5.49H30a3.93,3.93,0,0,1,0,.49V28.8a3,3,0,0,1-1.5,2.6,1,1,0,0,0,1,1.74A5,5,0,0,0,32,28.81V20.29A6.92,6.92,0,0,0,30,15.35Zm-5,2.89a1,1,0,0,1-1-1l-.08-4.65a.26.26,0,0,1,.45-.19l5.2,5.41a.26.26,0,0,1-.19.44H25Zm-1,4a4,4,0,0,0-2,7.43v3.79a.72.72,0,0,0,1.22.51l.77-.76.77.76A.72.72,0,0,0,26,33.48V29.69a4,4,0,0,0-2-7.43Zm0,6a2,2,0,1,1,2-2,2,2,0,0,1-2,2Z"/><circle class="cls-2" cx="22" cy="22" r="22"/><rect class="cls-2" x="10" y="10" width="24" height="24"/></g></g></g></svg>