<svg xmlns="http://www.w3.org/2000/svg" viewBox="0 0 44 44"><defs><style>.cls-1{fill:#fff;}.cls-2{fill:none;}</style></defs><title>filter</title><g id="Слой_2" data-name="Слой 2"><g id="Слой_4" data-name="Слой 4"><g id="filter"><path class="cls-1" d="M23.39,34.21l-4-3a1,1,0,0,1-.4-.8V24.8l-7-7.89a3.9,3.9,0,0,1,2.91-6.49H29.1A3.9,3.9,0,0,1,32,16.91L25,24.8v8.62a1,1,0,0,1-1.15,1A1.06,1.06,0,0,1,23.39,34.21ZM21,29.92l2,1.5v-7a.93.93,0,0,1,.25-.67l7.26-8.17a1.89,1.89,0,0,0-.16-2.68,1.83,1.83,0,0,0-1.26-.47H14.88A1.87,1.87,0,0,0,13,14.32a2,2,0,0,0,.47,1.26l7.27,8.17a1,1,0,0,1,.24.67Z"/><circle class="cls-2" cx="22" cy="22" r="22"/><rect class="cls-2" x="10" y="10" width="24" height="24"/></g></g></g></svg>