<svg xmlns="http://www.w3.org/2000/svg" viewBox="0 0 44 44"><defs><style>.cls-1{fill:#fff;}.cls-2{fill:none;}</style></defs><title>fingerprint</title><g id="Слой_2" data-name="Слой 2"><g id="Слой_4" data-name="Слой 4"><g id="fingerprint"><path class="cls-1" d="M16,31.3a1,1,0,0,1-.52-1.86C19,27.32,19,22.75,19,20a3,3,0,0,1,6,0,1,1,0,0,1-2,0,1,1,0,0,0-2,0c0,2.94,0,8.43-4.51,11.14A1,1,0,0,1,16,31.3Zm5,1.42c2.28-2.3,3.62-5.53,4-9.62A1,1,0,0,0,24,22h0a1,1,0,0,0-1,.65,1.19,1.19,0,0,0-.05.26c-.31,3.65-1.42,6.4-3.39,8.38a1,1,0,0,0,1.42,1.41Zm5.2-.18a18.61,18.61,0,0,0,1.51-3.19,1,1,0,0,0-1.88-.67,16.54,16.54,0,0,1-1.34,2.82,1,1,0,0,0,1.71,1Zm2.36-6.33A31.41,31.41,0,0,0,29,20a7,7,0,0,0-12.21-4.67,1,1,0,0,0,1.45,1.38l0-.05A5,5,0,0,1,27,20a28.92,28.92,0,0,1-.46,5.8A1,1,0,0,0,27.32,27l.19,0A1,1,0,0,0,28.49,26.21ZM17,20a6,6,0,0,1,.07-.84A1,1,0,0,0,16.31,18a1,1,0,0,0-1.2.75s0,.07,0,.11A7.49,7.49,0,0,0,15,20c0,4.64-1.34,7-4,7a1,1,0,1,0,0,2C14.86,29,17,25.82,17,20Zm13.7,12.41A29.7,29.7,0,0,0,33,20a10.82,10.82,0,0,0-1.1-4.8,1,1,0,0,0-1.8.88h0A8.73,8.73,0,0,1,31,20,27.73,27.73,0,0,1,28.87,31.6a1,1,0,0,0,.5,1.32h0a1.17,1.17,0,0,0,.42.09A1,1,0,0,0,30.69,32.43ZM13,23V20a9,9,0,0,1,9-9,8.84,8.84,0,0,1,5.4,1.8,1,1,0,1,0,1.2-1.6A10.85,10.85,0,0,0,22,9,11,11,0,0,0,11,20v3a1,1,0,0,0,1,1A1,1,0,0,0,13,23Z"/><circle class="cls-2" cx="22" cy="22" r="22"/><rect class="cls-2" x="10" y="10" width="24" height="24"/></g></g></g></svg>