<svg xmlns="http://www.w3.org/2000/svg" viewBox="0 0 44 44"><defs><style>.cls-1{fill:#fff;}.cls-2{fill:none;}</style></defs><title>flame-filled</title><g id="Слой_2" data-name="Слой 2"><g id="Слой_4" data-name="Слой 4"><g id="flame-filled"><path class="cls-1" d="M25.75,28.27c0-1.5-1-3.55-2.91-5.77a1.07,1.07,0,0,0-.84-.39h0a1.14,1.14,0,0,0-.86.39h0c-2,2.4-3,4.52-2.87,6.14a3.68,3.68,0,0,0,1.58,2.56A3.6,3.6,0,0,0,22,32,3.76,3.76,0,0,0,25.75,28.27Z"/><path class="cls-1" d="M26.63,12.9c-.79-.67-1.61-1.37-2.45-2.13A2.94,2.94,0,0,0,21.8,10a2.85,2.85,0,0,0-2,1.3,20.43,20.43,0,0,0-2.49,6.45A5.12,5.12,0,0,1,16.8,17,2,2,0,0,0,14.13,16a2.15,2.15,0,0,0-.64.48,9.08,9.08,0,0,0-2.58,6.42,11,11,0,0,0,8.22,10.74,11.83,11.83,0,0,0,2.78.35,5.46,5.46,0,0,1-3.28-1.23,5.62,5.62,0,0,1-2.35-3.93c-.23-2.21.89-4.79,3.34-7.65h0A3.11,3.11,0,0,1,22,20.09h0a3.13,3.13,0,0,1,2.36,1.1c1.54,1.83,3.38,4.54,3.38,7.07A5.76,5.76,0,0,1,22.39,34a11.06,11.06,0,0,0,10.7-11.07C33.09,18.39,30.09,15.85,26.63,12.9Z"/><circle class="cls-2" cx="22" cy="22" r="22"/><rect class="cls-2" x="10" y="10" width="24" height="24"/></g></g></g></svg>