<svg xmlns="http://www.w3.org/2000/svg" viewBox="0 0 44 44"><defs><style>.cls-1{fill:#fff;}.cls-2{fill:none;}</style></defs><title>floppy-disk-cross</title><g id="Слой_2" data-name="Слой 2"><g id="Слой_4" data-name="Слой 4"><g id="floppy-disk-cross"><path class="cls-1" d="M30.23,26.27l-1.29,1.29,1.27,1.27a1,1,0,0,1,.06,1.37,1,1,0,0,1-.75.34,1,1,0,0,1-.71-.29L27.52,29l-1.29,1.29a1,1,0,0,1-.71.29,1,1,0,0,1-.71-.29,1,1,0,0,1,0-1.41l1.29-1.28-1.27-1.28a1,1,0,0,1-.08-1.36,1,1,0,0,1,1.47-.06l1.29,1.29,1.27-1.28a1,1,0,0,1,1.36-.07,1,1,0,0,1,.07,1.47Zm4.28,1.26a7,7,0,1,1-7-7A7,7,0,0,1,34.51,27.53Zm-2,0a5,5,0,1,0-5,5A5,5,0,0,0,32.51,27.53Zm-14,3a1,1,0,0,1-1,1h-2a5,5,0,0,1-5-5v-11a5,5,0,0,1,5-5s10.21,0,10.32,0a3.11,3.11,0,0,1,1.57.89l3.24,3.26a5.37,5.37,0,0,1,.86,2.11v.71a1,1,0,1,1-2,0V16.8a1,1,0,0,0-.29-.7l-2.71-2.73v3.17a2,2,0,0,1-2,2h-7a2,2,0,0,1-2-2v-4a3,3,0,0,0-3,3v11a3,3,0,0,0,3,3h2S18.52,30,18.52,30.53Zm6-14v-4h-7v4Zm-3.78,6.05a1,1,0,0,0-.4-2,3.6,3.6,0,0,0-1.78.95,3.53,3.53,0,0,0-.95,3.17,1,1,0,0,0,1,.8.68.68,0,0,0,.2,0,1,1,0,0,0,.78-1.18,1.5,1.5,0,0,1,1.17-1.77Z"/><circle class="cls-2" cx="22" cy="22" r="22"/><rect class="cls-2" x="10" y="10" width="24" height="24"/></g></g></g></svg>