<svg xmlns="http://www.w3.org/2000/svg" viewBox="0 0 44 44"><defs><style>.cls-1{fill:#fff;}.cls-2{fill:none;}</style></defs><title>floppy-disk</title><g id="Слой_2" data-name="Слой 2"><g id="Слой_4" data-name="Слой 4"><g id="floppy-disk"><path class="cls-1" d="M22,20a4,4,0,1,0,4,4A4,4,0,0,0,22,20Zm0,6a2,2,0,1,1,2-2A2,2,0,0,1,22,26Z"/><path class="cls-1" d="M32.54,14.12l-2.66-2.66A5,5,0,0,0,26.34,10H15a5,5,0,0,0-5,5V29a5,5,0,0,0,5,5H29a5,5,0,0,0,5-5V17.66A5,5,0,0,0,32.54,14.12ZM27,12.1V13a3,3,0,0,1-3,3H20a3,3,0,0,1-3-3V12h9.33A2.48,2.48,0,0,1,27,12.1ZM32,29a3,3,0,0,1-3,3H15a3,3,0,0,1-3-3V15a3,3,0,0,1,3-3v1a5,5,0,0,0,5,5h4a5,5,0,0,0,5-4.63l2.16,2.16A3,3,0,0,1,32,17.67Z"/><circle class="cls-2" cx="22" cy="22" r="22"/><rect class="cls-2" x="10" y="10" width="24" height="24"/></g></g></g></svg>