<svg xmlns="http://www.w3.org/2000/svg" viewBox="0 0 44 44"><defs><style>.cls-1{fill:#fff;}.cls-2{fill:none;}</style></defs><title>folder-import</title><g id="Слой_2" data-name="Слой 2"><g id="Слой_4" data-name="Слой 4"><g id="folder-import"><path class="cls-1" d="M29,12H22.5a1,1,0,0,1-.45-.11l-3.16-1.59A3,3,0,0,0,17.55,10H15a5,5,0,0,0-5,5V27a5,5,0,0,0,5,5h1.05a1,1,0,1,0,0-2H15a3,3,0,0,1-3-3V18h20V29.35a.62.62,0,0,1-.62.62H27.72a.32.32,0,0,0-.15.06c-.88.88-.29,1.95.55,1.95H33a1,1,0,0,0,1-1V17A5,5,0,0,0,29,12ZM12,15a3,3,0,0,1,3-3h2.55a1.1,1.1,0,0,1,.45.1l3.19,1.6A3.11,3.11,0,0,0,22.6,14H29a3,3,0,0,1,2.82,2H12V15Zm13.7,13.13a1,1,0,0,1,0,1.42l-1.63,1.63a3,3,0,0,1-4.22,0l-1.63-1.63A1,1,0,0,1,18.42,28a1.06,1.06,0,0,1,1.28.14L21,29.42V22a1,1,0,0,1,2,0v7.46l1.3-1.3a1,1,0,0,1,1.43,0Z"/><circle class="cls-2" cx="22" cy="22" r="22"/><rect class="cls-2" x="10" y="10" width="24" height="24"/></g></g></g></svg>