<svg xmlns="http://www.w3.org/2000/svg" viewBox="0 0 44 44"><defs><style>.cls-1{fill:#fff;}.cls-2{fill:none;}</style></defs><title>gear</title><g id="Слой_2" data-name="Слой 2"><g id="Слой_4" data-name="Слой 4"><g id="gear"><path class="cls-1" d="M22,18a4,4,0,1,0,4,4A4,4,0,0,0,22,18Zm0,6a2,2,0,1,1,2-2A2,2,0,0,1,22,24Z"/><path class="cls-1" d="M31.29,23.9l-.44-.26a9.1,9.1,0,0,0,0-3.29l.44-.25a3,3,0,0,0-3-5.2l-.44.26A9,9,0,0,0,25,13.51V13a3,3,0,0,0-6,0v.51a9,9,0,0,0-2.85,1.65l-.44-.26a3,3,0,1,0-3,5.2h0l.44.26a9.1,9.1,0,0,0,0,3.29l-.44.25a3,3,0,0,0,3,5.2h0l.44-.26A9,9,0,0,0,19,30.49V31a3,3,0,0,0,6,0v-.51a9,9,0,0,0,2.85-1.65l.45.26a3,3,0,1,0,3-5.2h0Zm-2.54-3.78a7.23,7.23,0,0,1,0,3.75A1,1,0,0,0,29.21,25l1.08.62a1,1,0,0,1-1,1.74h0l-1.08-.63A1,1,0,0,0,27,26.9a7,7,0,0,1-3.24,1.88,1,1,0,0,0-.75,1V31a1,1,0,0,1-2,0V29.75a1,1,0,0,0-.75-1A7,7,0,0,1,17,26.9a1,1,0,0,0-1.22-.17l-1.08.63a1,1,0,1,1-1-1.72h0L14.79,25a1,1,0,0,0,.47-1.13,7,7,0,0,1,0-3.75A1,1,0,0,0,14.79,19l-1.08-.62a1,1,0,0,1,1-1.74l1.08.63A1,1,0,0,0,17,17.1a7,7,0,0,1,3.24-1.88,1,1,0,0,0,.75-1V13a1,1,0,0,1,2,0v1.25a1,1,0,0,0,.75,1A7,7,0,0,1,27,17.1a1,1,0,0,0,1.22.16l1.08-.62a1,1,0,1,1,1,1.72h0L29.21,19a1,1,0,0,0-.46,1.13Z"/><circle class="cls-2" cx="22" cy="22" r="22"/><rect class="cls-2" x="10" y="10" width="24" height="24"/></g></g></g></svg>