<svg xmlns="http://www.w3.org/2000/svg" viewBox="0 0 44 44"><defs><style>.cls-1{fill:#fff;}.cls-2{fill:none;}</style></defs><title>git-fork</title><g id="Слой_2" data-name="Слой 2"><g id="Слой_4" data-name="Слой 4"><g id="git-fork"><path class="cls-1" d="M34,14a4.09,4.09,0,0,0-6.49-3.28,2.64,2.64,0,0,0-.81.82A4.1,4.1,0,0,0,29,17.89v1.26A1.89,1.89,0,0,1,27.08,21h-2a4,4,0,0,0-3,1.36,4,4,0,0,0-3-1.36H18a3,3,0,0,1-3-3v-.15a4,4,0,0,0,3-4.43,4,4,0,1,0-5,4.43v.17a5,5,0,0,0,5,5h1.14A1.87,1.87,0,0,1,21,24.92v1.25a4,4,0,0,0-2.73,5.39,3.72,3.72,0,0,0,2.13,2.16A4,4,0,1,0,23,26.17V24.92a1.87,1.87,0,0,1,1.87-1.87h2.94A3.15,3.15,0,0,0,31,19.9v-2A4,4,0,0,0,34,14Zm-22,.08a2,2,0,1,1,2,2A2,2,0,0,1,12,14.08Zm12,16a2,2,0,1,1-2-2A2,2,0,0,1,24,30.05Zm6-14a2,2,0,1,1,2-2A2,2,0,0,1,30,16.08Z"/><circle class="cls-2" cx="22" cy="22" r="22"/><rect class="cls-2" x="10" y="10" width="24" height="24"/></g></g></g></svg>