<svg xmlns="http://www.w3.org/2000/svg" viewBox="0 0 44 44"><defs><style>.cls-1{fill:#fff;}.cls-2{fill:none;}</style></defs><title>git-branch-filled</title><g id="Слой_2" data-name="Слой 2"><g id="Слой_4" data-name="Слой 4"><g id="git-branch-filled"><path class="cls-1" d="M34.92,13.5a4,4,0,1,0-5,4.4v2.16a1,1,0,0,1-1,1H17a5.74,5.74,0,0,0-1,.16v-3.3a4,4,0,1,0-2,0v8.25a4,4,0,1,0,2,0V24c0-.55,1-1,1-1h12a3,3,0,0,0,3-3V17.9A4,4,0,0,0,34.92,13.5Z"/><circle class="cls-2" cx="22" cy="22" r="22"/><rect class="cls-2" x="10" y="10" width="24" height="24"/></g></g></g></svg>