<svg xmlns="http://www.w3.org/2000/svg" viewBox="0 0 44 44"><defs><style>.cls-1{fill:#fff;}.cls-2{fill:none;}</style></defs><title>hashtag</title><g id="Слой_2" data-name="Слой 2"><g id="Слой_4" data-name="Слой 4"><g id="hashtag"><path class="cls-1" d="M32.94,17H28.15l.8-5.87A1,1,0,0,0,28.1,10a1,1,0,0,0-1.12.86L26.15,17H19.21L20,11.14a1,1,0,1,0-2-.27L17.2,17H12.08a1,1,0,0,0-1,.8,1,1,0,0,0,1,1.21h4.87l-.81,6h-5a1,1,0,1,0,0,2h4.79l-.8,5.87A1,1,0,0,0,15.9,34,1,1,0,0,0,17,33.13L17.85,27h6.94L24,32.86a1,1,0,1,0,2,.27L26.8,27h5.12a1,1,0,0,0,1-.8,1,1,0,0,0-1-1.21H27.07l.81-6h5a1,1,0,1,0,0-2Zm-7.88,8H18.12l.82-6h6.94Z"/><circle class="cls-2" cx="22" cy="22" r="22"/><rect class="cls-2" x="10" y="10" width="24" height="24"/></g></g></g></svg>