<svg xmlns="http://www.w3.org/2000/svg" viewBox="0 0 44 44"><defs><style>.cls-1{fill:#fff;}.cls-2{fill:none;}</style></defs><title>key</title><g id="Слой_2" data-name="Слой 2"><g id="Слой_4" data-name="Слой 4"><g id="key"><path class="cls-1" d="M17.5,34a7.5,7.5,0,0,1-2-14.72,7.34,7.34,0,0,1,3.89,0l7.9-7.91A4.55,4.55,0,0,1,30.46,10h0A3.55,3.55,0,0,1,34,13.54a4.53,4.53,0,0,1-1.33,3.2l-.67.68a2,2,0,0,1-1.42.58H29v1a2,2,0,0,1-2,2H26v1.59A2,2,0,0,1,25.41,24l-.65.65a7.3,7.3,0,0,1-.05,3.88A7.53,7.53,0,0,1,18.28,34,6.79,6.79,0,0,1,17.5,34Zm0-13a5.52,5.52,0,1,0,5.29,7,5.35,5.35,0,0,0-.1-3.31,1,1,0,0,1,.24-1L24,22.59V21a2,2,0,0,1,2-2h1V18a2,2,0,0,1,2-2h1.59l.67-.67a2.57,2.57,0,0,0,.74-1.8A1.54,1.54,0,0,0,30.44,12a2.53,2.53,0,0,0-1.79.75l-8.33,8.35a1,1,0,0,1-1,.24,5.54,5.54,0,0,0-1.8-.31ZM15,28a1,1,0,1,0,1-1A1,1,0,0,0,15,28Z"/><circle class="cls-2" cx="22" cy="22" r="22"/><rect class="cls-2" x="10" y="10" width="24" height="24"/></g></g></g></svg>