<svg xmlns="http://www.w3.org/2000/svg" viewBox="0 0 44 44"><defs><style>.cls-1{fill:#fff;}.cls-2{fill:none;}</style></defs><title>lock</title><g id="Слой_2" data-name="Слой 2"><g id="Слой_4" data-name="Слой 4"><g id="lock"><path class="cls-1" d="M29,18.43V17.06a7,7,0,1,0-14,0v1.42A5,5,0,0,0,12,23v6a5,5,0,0,0,5,5H27a5,5,0,0,0,5-5V23A5,5,0,0,0,29,18.43ZM17,17a5,5,0,1,1,10,.05V18H17ZM27,32H17a3,3,0,0,1-3-3V23a3,3,0,0,1,3-3H27a3,3,0,0,1,3,3v6A3,3,0,0,1,27,32Z"/><path class="cls-1" d="M21,25v2a1,1,0,1,0,2,0V25a1,1,0,1,0-2,0Z"/><circle class="cls-2" cx="22" cy="22" r="22"/><rect class="cls-2" x="10" y="10" width="24" height="24"/></g></g></g></svg>