<svg xmlns="http://www.w3.org/2000/svg" viewBox="0 0 44 44"><defs><style>.cls-1{fill:#fff;}.cls-2{fill:none;}</style></defs><title>logo-github</title><g id="Слой_2" data-name="Слой 2"><g id="Слой_4" data-name="Слой 4"><g id="logo-github"><g id="Слой_1-2" data-name="Слой 1-2"><path class="cls-1" d="M25.92,26.1a4.38,4.38,0,0,1,1,3.27v3.77a.78.78,0,0,0,.51.8l-.07.06h-9c.47-.16.55-.51.54-.93V30.65a6.19,6.19,0,0,1-3.49-.17,3.43,3.43,0,0,1-2-1.91,5,5,0,0,0-2-2.44c-.2-.12-.3-.39-.46-.59a2.65,2.65,0,0,1,.78-.21,3.09,3.09,0,0,1,2.4,1.56,3.46,3.46,0,0,0,1.93,1.59,3.91,3.91,0,0,0,2.63-.22A.34.34,0,0,0,19,28a3.5,3.5,0,0,1,1-1.86c-.78-.17-1.56-.3-2.3-.5a6.34,6.34,0,0,1-5-6.08,6.54,6.54,0,0,1,.71-4.16l.06-.12c.28-.38.7-.73.78-1.14s-.19-.9-.25-1.36a5.23,5.23,0,0,1,.4-2.53.59.59,0,0,1,.45-.26,5.86,5.86,0,0,1,2.58.8,8.81,8.81,0,0,1,1.08.61,1,1,0,0,0,.92.14,15.65,15.65,0,0,1,7.14,0,1.06,1.06,0,0,0,.85-.13,9,9,0,0,1,3.06-1.34c.88-.17,1-.08,1.23.68a5.81,5.81,0,0,1,0,3.15.57.57,0,0,0,.1.49,6.54,6.54,0,0,1,1.38,5.31,7.33,7.33,0,0,1-1.29,3.6,6.92,6.92,0,0,1-4.28,2.49C27.07,25.92,26.51,26,25.92,26.1Z"/></g><circle class="cls-2" cx="22" cy="22" r="22"/><rect class="cls-2" x="10" y="10" width="24" height="24"/></g></g></g></svg>