<svg xmlns="http://www.w3.org/2000/svg" viewBox="0 0 44 44"><defs><style>.cls-1{fill:#fff;}.cls-2{fill:none;}</style></defs><title>logo-flaticon</title><g id="Слой_2" data-name="Слой 2"><g id="Слой_4" data-name="Слой 4"><g id="logo-flaticon"><path class="cls-1" d="M23,18.73H17.54l-1.7-3h8.88l2.59-4.51H12.63a2.63,2.63,0,0,0-2.27,4l9.36,16.22a2.65,2.65,0,0,0,3.62.93,2.51,2.51,0,0,0,.93-.93l.3-.54-4.3-7.46Z"/><path class="cls-1" d="M33.66,12.57a2.65,2.65,0,0,0-2.28-1.31h-.64l-7,12.11,2.56,4.48,7.32-12.68a2.5,2.5,0,0,0,0-2.6h0Z"/><circle class="cls-2" cx="22" cy="22" r="22"/><rect class="cls-2" x="10" y="10" width="24" height="24"/></g></g></g></svg>