<svg xmlns="http://www.w3.org/2000/svg" viewBox="0 0 44 44"><defs><style>.cls-1{fill:#fff;}.cls-2{fill:none;}</style></defs><title>map-pointer</title><g id="Слой_2" data-name="Слой 2"><g id="Слой_4" data-name="Слой 4"><g id="map-pointer"><path class="cls-1" d="M22,16a4,4,0,1,0,4,4A4,4,0,0,0,22,16Zm0,6a2,2,0,1,1,2-2A2,2,0,0,1,22,22Z"/><path class="cls-1" d="M22,34a5.25,5.25,0,0,1-4.31-2.2C13.88,26.54,12,22.59,12,20.05a10,10,0,1,1,20.1,0c0,2.54-1.93,6.49-5.74,11.75A5.25,5.25,0,0,1,22,34Zm0-21.82a7.88,7.88,0,0,0-7.87,7.88c0,2,1.89,5.72,5.33,10.46a3.14,3.14,0,0,0,4.39.7,3.05,3.05,0,0,0,.69-.7c3.44-4.74,5.33-8.45,5.33-10.46A7.88,7.88,0,0,0,22,12.18Z"/><circle class="cls-2" cx="22" cy="22" r="22"/><rect class="cls-2" x="10" y="10" width="24" height="24"/></g></g></g></svg>