<svg xmlns="http://www.w3.org/2000/svg" viewBox="0 0 44 44"><defs><style>.cls-1{fill:#fff;}.cls-2{fill:none;}</style></defs><title>menu-burger</title><g id="Слой_2" data-name="Слой 2"><g id="Слой_4" data-name="Слой 4"><g id="menu-burger"><path class="cls-1" d="M32.5,20.5h-21A1.53,1.53,0,0,0,10,21.89a1.5,1.5,0,0,0,1.5,1.61h21A1.53,1.53,0,0,0,34,22.11,1.5,1.5,0,0,0,32.5,20.5Z"/><path class="cls-1" d="M11.5,16.52h21A1.53,1.53,0,0,0,34,15.13a1.5,1.5,0,0,0-1.5-1.61h-21A1.53,1.53,0,0,0,10,14.9,1.51,1.51,0,0,0,11.5,16.52Z"/><path class="cls-1" d="M32.5,27.48h-21A1.53,1.53,0,0,0,10,28.87a1.5,1.5,0,0,0,1.5,1.61h21A1.53,1.53,0,0,0,34,29.1,1.51,1.51,0,0,0,32.5,27.48Z"/><circle class="cls-2" cx="22" cy="22" r="22"/><rect class="cls-2" x="10" y="10" width="24" height="24"/></g></g></g></svg>