<svg xmlns="http://www.w3.org/2000/svg" viewBox="0 0 44 44"><defs><style>.cls-1{fill:#fff;}.cls-2{fill:none;}</style></defs><title>pen-line</title><g id="Слой_2" data-name="Слой 2"><g id="Слой_4" data-name="Слой 4"><g id="pen-line"><path class="cls-1" d="M34,24.18a1,1,0,0,1-1,1.27H26a1,1,0,1,0,0,2h3a3,3,0,1,1,0,6H11a1,1,0,1,1,0-2H29a1,1,0,0,0,1-.74,1,1,0,0,0-1-1.27H26a3,3,0,1,1,0-6h7A1,1,0,0,1,34,24.18Zm-23.66,5a1,1,0,0,1-.27-.94l1.63-7a4.17,4.17,0,0,1,2.78-3l3.7-1.16,6.74-6.72a3.08,3.08,0,0,1,4.24,0h0a3,3,0,0,1,0,4.24L22.4,21.29,21.24,25a4.15,4.15,0,0,1-3,2.78l-7,1.64a.91.91,0,0,1-.23,0,1,1,0,0,1-.71-.29ZM20,18l1.41,1.41,6.29-6.29a1,1,0,0,0,0-1.42h0a1,1,0,0,0-1.41,0L20,18Zm-6.36,3.63-.84,3.58,2.52-2.51a1,1,0,0,1,1.41,1.41L14.2,26.66l3.58-.84a2.12,2.12,0,0,0,1.54-1.43l1-3.19-2.08-2.08-3.19,1a2.14,2.14,0,0,0-1.43,1.54Z"/><circle class="cls-2" cx="22" cy="22" r="22"/><rect class="cls-2" x="10" y="10" width="24" height="24"/></g></g></g></svg>