<svg xmlns="http://www.w3.org/2000/svg" viewBox="0 0 44 44"><defs><style>.cls-1{fill:#fff;}.cls-2{fill:none;}</style></defs><title>pen</title><g id="Слой_2" data-name="Слой 2"><g id="Слой_4" data-name="Слой 4"><g id="pen"><path class="cls-1" d="M34,13.44a3.63,3.63,0,0,0-1.34-2.64,3.75,3.75,0,0,0-5,.36L26,12.83a5,5,0,0,0-6.31.62l-3,3a1,1,0,1,0,1.42,1.41l3-3a3.09,3.09,0,0,1,3.42-.57L12.06,26.78a3.63,3.63,0,0,0-.61,4.34l-1.16,1.16a1,1,0,0,0,0,1.41A1,1,0,0,0,11,34a1,1,0,0,0,.71-.29l1.16-1.16a3.63,3.63,0,0,0,4.34-.61L32.93,16.19A3.64,3.64,0,0,0,34,13.43ZM15.79,30.51a1.68,1.68,0,0,1-2.32,0,1.64,1.64,0,0,1,0-2.32l12.61-12.6,2.32,2.32ZM31.52,14.78l-1.71,1.71-2.32-2.32,1.6-1.6A1.88,1.88,0,0,1,30.41,12a1.52,1.52,0,0,1,1,.34,1.63,1.63,0,0,1,.13,2.43Z"/><circle class="cls-2" cx="22" cy="22" r="22"/><rect class="cls-2" x="10" y="10" width="24" height="24"/></g></g></g></svg>