<svg xmlns="http://www.w3.org/2000/svg" viewBox="0 0 44 44"><defs><style>.cls-1{fill:#fff;}.cls-2{fill:none;}</style></defs><title>pin</title><g id="Слой_2" data-name="Слой 2"><g id="Слой_4" data-name="Слой 4"><g id="pin"><path class="cls-1" d="M11.53,34a1,1,0,0,0,.7-.29l6.62-6.62,1.25,1.29A5.19,5.19,0,0,0,23.7,30,4,4,0,0,0,25,29.76a3.64,3.64,0,0,0,2.44-3.13,8.53,8.53,0,0,0-.22-3L27,22.56a1,1,0,0,1,.27-.94L28.89,20a.37.37,0,0,1,.24-.1.19.19,0,0,1,.17.07,3.08,3.08,0,0,0,4,.43,3,3,0,0,0,.7-4.18,3.05,3.05,0,0,0-.32-.38l-4.93-4.93a3.08,3.08,0,0,0-3.93-.4,3,3,0,0,0-.71,4.19,3.9,3.9,0,0,0,.33.38l.07.07a.31.31,0,0,1,0,.44l-1.6,1.6a1,1,0,0,1-.95.26l-.82-.21A8.64,8.64,0,0,0,18,17a3.83,3.83,0,0,0-3.25,2.58,4,4,0,0,0,.92,4.2l1.76,1.82-6.64,6.64a1,1,0,0,0,0,1.42A1,1,0,0,0,11.53,34Zm5.13-13.7A1.87,1.87,0,0,1,18.24,19q.35,0,.69,0a6.35,6.35,0,0,1,1.68.22l.83.21a3,3,0,0,0,2.86-.79L25.9,17a2.31,2.31,0,0,0,0-3.26l-.08-.08a1,1,0,0,1,0-1.41l.13-.12a1.11,1.11,0,0,1,1.36.19l4.92,4.93h0a1,1,0,0,1,0,1.41l-.14.12a1.1,1.1,0,0,1-1.37-.2,2.23,2.23,0,0,0-1.58-.68,2.44,2.44,0,0,0-1.67.69L25.9,20.21a3,3,0,0,0-.8,2.8l.21,1a6.54,6.54,0,0,1,.19,2.37,1.65,1.65,0,0,1-1.12,1.44,2.78,2.78,0,0,1-2.85-.9l-4.4-4.55A2,2,0,0,1,16.66,20.29Z"/><circle class="cls-2" cx="22" cy="22" r="22"/><rect class="cls-2" x="10" y="10" width="24" height="24"/></g></g></g></svg>