<svg xmlns="http://www.w3.org/2000/svg" viewBox="0 0 44 44"><defs><style>.cls-1{fill:#fff;}.cls-2{fill:none;}</style></defs><title>printer</title><g id="Слой_2" data-name="Слой 2"><g id="Слой_4" data-name="Слой 4"><g id="printer"><path class="cls-1" d="M29,16V14a4,4,0,0,0-4-4H19a4,4,0,0,0-4,4v2a5,5,0,0,0-5,5v5a5,5,0,0,0,5,5,3,3,0,0,0,3,3h8a3,3,0,0,0,3-3,5,5,0,0,0,5-5V21A5,5,0,0,0,29,16ZM17,14a2,2,0,0,1,2-2h6a2,2,0,0,1,2,2v2H17ZM27,31a1,1,0,0,1-1,1H18a1,1,0,0,1-1-1V27a1,1,0,0,1,1-1h8a1,1,0,0,1,1,1Zm5-5a3,3,0,0,1-3,3V27a3,3,0,0,0-3-3H18a3,3,0,0,0-3,3v2a3,3,0,0,1-3-3V21a3,3,0,0,1,3-3H29a3,3,0,0,1,3,3Z"/><path class="cls-1" d="M28,20H26a1,1,0,0,0,0,2h2a1,1,0,0,0,0-2Z"/><circle class="cls-2" cx="22" cy="22" r="22"/><rect class="cls-2" x="10" y="10" width="24" height="24"/></g></g></g></svg>