<svg xmlns="http://www.w3.org/2000/svg" viewBox="0 0 44 44"><defs><style>.cls-1{fill:#fff;}.cls-2{fill:none;}</style></defs><title>qa-bubbles</title><g id="Слой_2" data-name="Слой 2"><g id="Слой_4" data-name="Слой 4"><g id="qa-bubbles"><path class="cls-1" d="M29,14H27.83A5,5,0,0,0,23,10H15a5,5,0,0,0-5,5V27.85a2.14,2.14,0,0,0,1.14,1.89,2.11,2.11,0,0,0,1,.26,2.13,2.13,0,0,0,1.19-.36l2.95-2A5,5,0,0,0,21,31h5.7l4,2.65A2.16,2.16,0,0,0,34,31.85V19a5,5,0,0,0-5-5ZM12.2,28a.14.14,0,0,1-.15,0,.15.15,0,0,1-.08-.14V15a3,3,0,0,1,3-3h8a3,3,0,0,1,3,3v7a3,3,0,0,1-3,3H17a1,1,0,0,0-.57.18L12.2,28ZM32,31.83a.14.14,0,0,1-.08.13.12.12,0,0,1-.15,0l-4.19-2.8A1,1,0,0,0,27,29H21a3,3,0,0,1-2.85-2H23a5,5,0,0,0,5-5V16h1a3,3,0,0,1,3,3V31.83ZM16,17a3,3,0,0,1,1.08-2.3A3,3,0,0,1,19.53,14a3,3,0,0,1,.91,5.57c-.45.25-.45.32-.45.38a1,1,0,0,1-2,0,2.44,2.44,0,0,1,1.48-2.13A1,1,0,0,0,20,16.79a1,1,0,0,0-1.63-.58A1,1,0,0,0,18,17a1,1,0,0,1-2,0Zm4,6a1,1,0,0,1-2,0,1,1,0,0,1,2,0Z"/><circle class="cls-2" cx="22" cy="22" r="22"/><rect class="cls-2" x="10" y="10" width="24" height="24"/></g></g></g></svg>