<svg xmlns="http://www.w3.org/2000/svg" viewBox="0 0 44 44"><defs><style>.cls-1{fill:#fff;}.cls-2{fill:none;}</style></defs><title>rain-drops-filled</title><g id="Слой_2" data-name="Слой 2"><g id="Слой_4" data-name="Слой 4"><g id="rain-drops-filled"><path class="cls-1" d="M23.12,34a6,6,0,0,1-4.24-1.76,6,6,0,0,1,0-8.49l4.24-4.49,4.27,4.52a6,6,0,0,1,0,8.46h0A6,6,0,0,1,23.12,34Zm-9-12a5,5,0,0,1-3.53-1.47,5,5,0,0,1,0-7.07L14.12,10l3.53,3.45A5,5,0,0,1,14.12,22Zm15-2a4,4,0,0,1-2.83-1.18,4,4,0,0,1,0-5.65L29.11,10,32,13.2a4,4,0,0,1,0,5.62h0A3.93,3.93,0,0,1,29.13,20Z"/><circle class="cls-2" cx="22" cy="22" r="22"/><rect class="cls-2" x="10" y="10" width="24" height="24"/></g></g></g></svg>