<svg xmlns="http://www.w3.org/2000/svg" viewBox="0 0 44 44"><defs><style>.cls-1{fill:#fff;}.cls-2{fill:none;}</style></defs><title>rain-drops</title><g id="Слой_2" data-name="Слой 2"><g id="Слой_4" data-name="Слой 4"><g id="rain-drops"><path class="cls-1" d="M23.12,34.17a5.93,5.93,0,0,1-4.24-1.76,6,6,0,0,1,0-8.49l4.24-4.5,4.27,4.52a6.05,6.05,0,0,1,0,8.47h0A6,6,0,0,1,23.12,34.17Zm0-11.83-2.8,3a4,4,0,0,0,0,5.68A4.09,4.09,0,0,0,26,31h0a4,4,0,0,0,0-5.66Zm-9-.17a5,5,0,0,1-3.53-8.54l3.53-3.46,3.53,3.45a5,5,0,0,1,0,7.08,5,5,0,0,1-3.54,1.46Zm0-9.2L12,15.05a3,3,0,0,0,4.25,4.23h0a3,3,0,0,0,0-4.24Zm15,7.2A3.93,3.93,0,0,1,26.3,19a4,4,0,0,1,0-5.66l2.81-3.12L32,13.37A4,4,0,0,1,32,19h0a3.92,3.92,0,0,1-2.83,1.17Zm0-7-1.37,1.52a2,2,0,0,0,2.79,2.87h0a2,2,0,0,0,0-2.83Z"/><circle class="cls-2" cx="22" cy="22" r="22"/><rect class="cls-2" x="10" y="10" width="24" height="24"/></g></g></g></svg>