<svg xmlns="http://www.w3.org/2000/svg" viewBox="0 0 44 44"><defs><style>.cls-1{fill:#fff;}.cls-2{fill:none;}</style></defs><title>school</title><g id="Слой_2" data-name="Слой 2"><g id="Слой_4" data-name="Слой 4"><g id="school"><path class="cls-1" d="M29,15H24.32A4.07,4.07,0,0,0,23,14.39V14l3.53-1.65A1,1,0,0,0,26.85,11a1.12,1.12,0,0,0-.32-.33l-3.2-1.5a1.65,1.65,0,0,0-2.18.79,1.69,1.69,0,0,0-.15.7v3.75a4.07,4.07,0,0,0-1.32.61H15a5,5,0,0,0-5,5V30a3,3,0,0,0,3,3H31a3,3,0,0,0,3-3V20A5,5,0,0,0,29,15Zm2.81,4H29.65a3,3,0,0,1-2.12-.88L26.41,17H29A3,3,0,0,1,31.81,19ZM15,17h2.59l-1.12,1.12a3,3,0,0,1-2.12.88H12.19A3,3,0,0,1,15,17Zm8,14H21V28a1,1,0,0,1,2,0Zm8,0H25V28a3,3,0,0,0-6,0v3H13a1,1,0,0,1-1-1V21h2.35a5,5,0,0,0,3.53-1.46l2.71-2.71a2,2,0,0,1,2.82,0l2.71,2.71A5,5,0,0,0,29.65,21H32v9A1,1,0,0,1,31,31ZM17,24a1,1,0,0,1-1,1H15a1,1,0,0,1,0-2h1A1,1,0,0,1,17,24Zm0,4a1,1,0,0,1-1,1H15a1,1,0,0,1,0-2h1A1,1,0,0,1,17,28Zm13-4a1,1,0,0,1-1,1H28a1,1,0,0,1,0-2h1A1,1,0,0,1,30,24Zm0,4a1,1,0,0,1-1,1H28a1,1,0,0,1,0-2h1A1,1,0,0,1,30,28Zm-6-7a2,2,0,1,1-2-2A2,2,0,0,1,24,21Z"/><circle class="cls-2" cx="22" cy="22" r="22"/><rect class="cls-2" x="10" y="10" width="24" height="24"/></g></g></g></svg>