<svg xmlns="http://www.w3.org/2000/svg" viewBox="0 0 44 44"><defs><style>.cls-1{fill:#fff;}.cls-2{fill:none;}</style></defs><title>server</title><g id="Слой_2" data-name="Слой 2"><g id="Слой_4" data-name="Слой 4"><g id="server"><path class="cls-1" d="M34,22a4.47,4.47,0,0,0-1.71-3.5,4.48,4.48,0,0,0-2.79-8h-15a4.48,4.48,0,0,0-2.79,8,4.44,4.44,0,0,0-.77,6.24,4.61,4.61,0,0,0,.77.76,4.48,4.48,0,0,0,2.79,8h15a4.48,4.48,0,0,0,2.79-8A4.47,4.47,0,0,0,34,22ZM12,15a2.44,2.44,0,0,1,1-1.92,4,4,0,0,1,1.54-.57H15v1a1,1,0,1,0,2,0v-1h2v1a1,1,0,0,0,1,1,1,1,0,0,0,1-1v-1h8.47A2.49,2.49,0,0,1,32,15a2.53,2.53,0,0,1-2.5,2.52h-15A2.53,2.53,0,0,1,12,15ZM32.07,28.66a2.51,2.51,0,0,1-2.49,2.87H14.49a2.51,2.51,0,1,1,0-5H15v1a1,1,0,1,0,2,0v-1h2v1a1,1,0,1,0,2,0v-1h8.55A2.51,2.51,0,0,1,32.07,28.66ZM14.51,24.51A2.5,2.5,0,0,1,12,22a2.33,2.33,0,0,1,1-1.83,5.62,5.62,0,0,1,1.47-.69H15v1a1,1,0,1,0,2,0v-1h2v1a1,1,0,0,0,1,1,1,1,0,0,0,1-1v-1h8.47A2.53,2.53,0,0,1,32,22a2.5,2.5,0,0,1-2.5,2.5Z"/><circle class="cls-2" cx="22" cy="22" r="22"/><rect class="cls-2" x="10" y="10" width="24" height="24"/></g></g></g></svg>