<svg xmlns="http://www.w3.org/2000/svg" viewBox="0 0 44 44"><defs><style>.cls-1{fill:#fff;}.cls-2{fill:none;}</style></defs><title>shapes</title><g id="Слой_2" data-name="Слой 2"><g id="Слой_4" data-name="Слой 4"><g id="shapes"><path class="cls-1" d="M32.5,12.39h-10a1,1,0,0,0-1,1v3.27L19.1,12.5a2,2,0,0,0-2.73-.74,2,2,0,0,0-.74.74h0l-6,10.39a1,1,0,0,0,0,1,1,1,0,0,0,.87.5h4.29a7,7,0,1,0,13.71,2,6.72,6.72,0,0,0-.29-2H32.5a1,1,0,0,0,1-1v-10A1,1,0,0,0,32.5,12.39Zm-20.27,10,5.13-8.89,3.43,5.89a7,7,0,0,0-5,3Zm9.27,9a5,5,0,1,1,5-5A5,5,0,0,1,21.5,31.38Zm10-9H27.24a7,7,0,0,0-3.74-2.71V14.39h8Z"/><circle class="cls-2" cx="22" cy="22" r="22"/><rect class="cls-2" x="10" y="10" width="24" height="24"/></g></g></g></svg>