<svg xmlns="http://www.w3.org/2000/svg" viewBox="0 0 44 44"><defs><style>.cls-1{fill:#fff;}.cls-2{fill:none;}</style></defs><title>share (2)</title><g id="Слой_2" data-name="Слой 2"><g id="Слой_4" data-name="Слой 4"><g id="share"><path class="cls-1" d="M28.47,24.66a4.65,4.65,0,0,0-3.84,2l-6.5-2.94a4.56,4.56,0,0,0,0-3.48l6.49-3a4.64,4.64,0,1,0-.83-2.64,5.16,5.16,0,0,0,.08.79L17,18.6a4.66,4.66,0,1,0,0,6.82l6.92,3.12a4.13,4.13,0,0,0-.08.78,4.66,4.66,0,1,0,4.66-4.66Zm0-12.65a2.67,2.67,0,1,1-2.67,2.67h0A2.67,2.67,0,0,1,28.47,12ZM13.82,24.66A2.66,2.66,0,1,1,16.48,22h0A2.66,2.66,0,0,1,13.82,24.66ZM28.47,32a2.67,2.67,0,1,1,2.66-2.67h0A2.67,2.67,0,0,1,28.47,32Z"/><circle class="cls-2" cx="22" cy="22" r="22"/><rect class="cls-2" x="10" y="10" width="24" height="24"/></g></g></g></svg>