<svg xmlns="http://www.w3.org/2000/svg" viewBox="0 0 44 44"><defs><style>.cls-1{fill:#fff;}.cls-2{fill:none;}</style></defs><title>shield-check</title><g id="Слой_2" data-name="Слой 2"><g id="Слой_4" data-name="Слой 4"><g id="shield-check"><path class="cls-1" d="M28.58,12.14l-6.26-2.09a1,1,0,0,0-.64,0l-6.26,2.09A5,5,0,0,0,12,16.88V22c0,7.56,9.2,11.74,9.59,11.91a1,1,0,0,0,.82,0C22.8,33.74,32,29.56,32,22V16.88A5,5,0,0,0,28.58,12.14ZM30,22c0,5.45-6.32,9-8,9.89C20.32,31,14,27.47,14,22V16.88A3,3,0,0,1,16.05,14l5.95-2L28,14A3,3,0,0,1,30,16.88Z"/><path class="cls-1" d="M25.3,18.3l-4.19,4.2-2.24-2.34a1,1,0,0,0-1.48,1.35s0,0,0,0l2.3,2.4a1.92,1.92,0,0,0,1.35.6h0A1.89,1.89,0,0,0,22.45,24l4.27-4.27A1,1,0,0,0,25.3,18.3Z"/><circle class="cls-2" cx="22" cy="22" r="22"/><rect class="cls-2" x="10" y="10" width="24" height="24"/></g></g></g></svg>