<svg xmlns="http://www.w3.org/2000/svg" viewBox="0 0 44 44"><defs><style>.cls-1{fill:#fff;}.cls-2{fill:none;}</style></defs><title>square-console</title><g id="Слой_2" data-name="Слой 2"><g id="Слой_4" data-name="Слой 4"><g id="square-console"><path class="cls-1" d="M15.37,28.45a1,1,0,0,1-.7-.29,1,1,0,0,1,0-1.41l4-4a1,1,0,0,0,0-1.42l-4-4a1,1,0,0,1,1.41-1.41l4,4a3,3,0,0,1,0,4.24l-4,4a1,1,0,0,1-.71.29ZM34,29V15a5,5,0,0,0-5-5H15a5,5,0,0,0-5,5V29a5,5,0,0,0,5,5H29A5,5,0,0,0,34,29ZM29,12a3,3,0,0,1,3,3V29a3,3,0,0,1-3,3H15a3,3,0,0,1-3-3V15a3,3,0,0,1,3-3Zm1,15a1,1,0,0,0-1-1H22a1,1,0,0,0,0,2h7A1,1,0,0,0,30,27Z"/><circle class="cls-2" cx="22" cy="22" r="22"/><rect class="cls-2" x="10" y="10" width="24" height="24"/></g></g></g></svg>