<svg xmlns="http://www.w3.org/2000/svg" viewBox="0 0 44 44"><defs><style>.cls-1{fill:#fff;}.cls-2{fill:none;}</style></defs><title>square-grid</title><g id="Слой_2" data-name="Слой 2"><g id="Слой_4" data-name="Слой 4"><g id="square-grid"><path class="cls-1" d="M29,10H15a5,5,0,0,0-5,5V29a5,5,0,0,0,5,5H29a5,5,0,0,0,5-5V15A5,5,0,0,0,29,10Zm3,5v6H23V12h6A3,3,0,0,1,32,15ZM15,12h6v9H12V15A3,3,0,0,1,15,12ZM12,29V23h9v9H15A3,3,0,0,1,12,29Zm17,3H23V23h9v6A3,3,0,0,1,29,32Z"/><circle class="cls-2" cx="22" cy="22" r="22"/><rect class="cls-2" x="10" y="10" width="24" height="24"/></g></g></g></svg>