<svg xmlns="http://www.w3.org/2000/svg" viewBox="0 0 44 44"><defs><style>.cls-1{fill:#fff;}.cls-2{fill:none;}</style></defs><title>square-check-filled</title><g id="Слой_2" data-name="Слой 2"><g id="Слой_4" data-name="Слой 4"><g id="square-check-filled"><path class="cls-1" d="M29,10H15a5,5,0,0,0-5,5V29a5,5,0,0,0,5,5H29a5,5,0,0,0,5-5V15A5,5,0,0,0,29,10Zm1.05,8.2L20.9,27.34a2,2,0,0,1-2.8,0h0l-3.87-3.87a1,1,0,0,1,0-1.4,1,1,0,0,1,1.4,0l3.87,3.87,9.15-9.14a1,1,0,0,1,1.4,0A1,1,0,0,1,30.05,18.2Z"/><circle class="cls-2" cx="22" cy="22" r="22"/><rect class="cls-2" x="10" y="10" width="24" height="24"/></g></g></g></svg>