<svg xmlns="http://www.w3.org/2000/svg" viewBox="0 0 44 44"><defs><style>.cls-1{fill:#fff;}.cls-2{fill:none;}</style></defs><title>sticky-note-plus</title><g id="Слой_2" data-name="Слой 2"><g id="Слой_4" data-name="Слой 4"><g id="sticky-note-plus"><path class="cls-1" d="M22.94,23v3a1,1,0,0,1-2,0V23h-3a1,1,0,1,1,0-2h3V18a1,1,0,1,1,2,0v3h3a1,1,0,1,1,0,2ZM29,10a5,5,0,0,1,5,5v9.93a5.93,5.93,0,0,1-1.76,4.24l-3.07,3.07A5.93,5.93,0,0,1,24.93,34H15a5,5,0,0,1-5-5V15a5,5,0,0,1,5-5ZM25,32V28a3,3,0,0,1,3-3h4V15a3,3,0,0,0-3-3H15a3,3,0,0,0-3,3V29a3,3,0,0,0,3,3Zm5.81-4.26a4.29,4.29,0,0,0,.6-.75H28a1,1,0,0,0-1,1v3.42a3.93,3.93,0,0,0,.76-.6l3.08-3.07Z"/><circle class="cls-2" cx="22" cy="22" r="22"/><rect class="cls-2" x="10" y="10" width="24" height="24"/></g></g></g></svg>