<svg xmlns="http://www.w3.org/2000/svg" viewBox="0 0 44 44"><defs><style>.cls-1{fill:#fff;}.cls-2{fill:none;}</style></defs><title>sticky-note</title><g id="Слой_2" data-name="Слой 2"><g id="Слой_4" data-name="Слой 4"><g id="sticky-note"><path class="cls-1" d="M29,10H15a5,5,0,0,0-5,5V29a5,5,0,0,0,5,5H26.34a5,5,0,0,0,3.54-1.46l2.66-2.66A5,5,0,0,0,34,26.34V15A5,5,0,0,0,29,10ZM15,32a3,3,0,0,1-3-3V15a3,3,0,0,1,3-3H29a3,3,0,0,1,3,3V25H28a3,3,0,0,0-3,3v4Zm13.46-.88a3,3,0,0,1-1.46.8V28a1,1,0,0,1,1-1h3.93a3,3,0,0,1-.8,1.46l-2.66,2.66Z"/><circle class="cls-2" cx="22" cy="22" r="22"/><rect class="cls-2" x="10" y="10" width="24" height="24"/></g></g></g></svg>