<svg xmlns="http://www.w3.org/2000/svg" viewBox="0 0 44 44"><defs><style>.cls-1{fill:#fff;}.cls-2{fill:none;}</style></defs><title>sticky-note-pen</title><g id="Слой_2" data-name="Слой 2"><g id="Слой_4" data-name="Слой 4"><g id="sticky-note-pen"><path class="cls-1" d="M28.62,10.91,16.43,23.11A5,5,0,0,0,15,26.64V28a1,1,0,0,0,1,1h1.34a5,5,0,0,0,3.54-1.46L33,15.33a3.13,3.13,0,0,0,0-4.42A3.2,3.2,0,0,0,28.62,10.91Zm3,3L19.45,26.14a3.08,3.08,0,0,1-2.12.88H17v-.35a3.08,3.08,0,0,1,.88-2.12L30.05,12.36a1.16,1.16,0,0,1,1.59,0A1.12,1.12,0,0,1,31.64,14Z"/><path class="cls-1" d="M33.2,19A1,1,0,0,0,32,20v5H28a3,3,0,0,0-3,3v4H15a3,3,0,0,1-3-3V13.05a1,1,0,0,1,1-1H24.45a.34.34,0,0,0,.25-.11A1.06,1.06,0,0,0,24.1,10H15c-1.41,0-3.25-.06-4.16.88S10,13.65,10,15V29a5,5,0,0,0,5,5H26.28a5.06,5.06,0,0,0,3.57-1.46l2.67-2.66A5,5,0,0,0,34,26.34V20A1,1,0,0,0,33.2,19ZM28.43,31.14a3,3,0,0,1-1.46.8V28a1,1,0,0,1,1-1h3.92a3,3,0,0,1-.8,1.46Z"/><circle class="cls-2" cx="22" cy="22" r="22"/><rect class="cls-2" x="10" y="10" width="24" height="24"/></g></g></g></svg>