<svg xmlns="http://www.w3.org/2000/svg" viewBox="0 0 44 44"><defs><style>.cls-1{fill:#fff;}.cls-2{fill:none;}</style></defs><title>sup-down</title><g id="Слой_2" data-name="Слой 2"><g id="Слой_4" data-name="Слой 4"><g id="sup-down"><path class="cls-1" d="M33.71,14.5a1,1,0,0,1-1,1h-13a1,1,0,0,1,0-2h13A1,1,0,0,1,33.71,14.5Zm-4,4h-10a1,1,0,0,0,0,2h10a1,1,0,0,0,0-2Zm-3,5h-7a1,1,0,0,0,0,2h7a1,1,0,0,0,0-2Zm-3,5h-4a1,1,0,0,0,0,2h4a1,1,0,0,0,0-2Zm-6.3,4.29-1.7,1.71v-20a1,1,0,0,0-2,0v20L12,32.79a1,1,0,1,0-1.42,1.42l2.71,2.7a2,2,0,0,0,2.83,0l2.71-2.7a1,1,0,0,0-1.42-1.42Z"/><circle class="cls-2" cx="22" cy="22" r="22"/><rect class="cls-2" x="10" y="10" width="24" height="24"/></g></g></g></svg>