<svg xmlns="http://www.w3.org/2000/svg" viewBox="0 0 44 44"><defs><style>.cls-1{fill:#fff;}.cls-2{fill:none;}</style></defs><title>table</title><g id="Слой_2" data-name="Слой 2"><g id="Слой_4" data-name="Слой 4"><g id="table"><path class="cls-1" d="M29,12H15a5,5,0,0,0-5,5V27a5,5,0,0,0,5,5H29a5,5,0,0,0,5-5V17A5,5,0,0,0,29,12ZM15,14H29a3,3,0,0,1,3,3H12A3,3,0,0,1,15,14ZM12,27V19h5V30H15A3,3,0,0,1,12,27Zm17,3H19V19H32v8A3,3,0,0,1,29,30Z"/><circle class="cls-2" cx="22" cy="22" r="22"/><rect class="cls-2" x="10" y="10" width="24" height="24"/></g></g></g></svg>