<svg xmlns="http://www.w3.org/2000/svg" viewBox="0 0 44 44"><defs><style>.cls-1{fill:#fff;}.cls-2{fill:none;}</style></defs><title>unlock</title><g id="Слой_2" data-name="Слой 2"><g id="Слой_4" data-name="Слой 4"><g id="unlock"><path class="cls-1" d="M27,18H17V17a5,5,0,0,1,9.37-2.42,1,1,0,1,0,1.75-1A7,7,0,0,0,15,17v1.43A5,5,0,0,0,12,23v6a5,5,0,0,0,5,5H27a5,5,0,0,0,5-5V23A5,5,0,0,0,27,18Zm3,11a3,3,0,0,1-3,3H17a3,3,0,0,1-3-3V23a3,3,0,0,1,3-3H27a3,3,0,0,1,3,3Z"/><path class="cls-1" d="M22,24a1,1,0,0,0-1,1v2a1,1,0,0,0,2,0V25A1,1,0,0,0,22,24Z"/><circle class="cls-2" cx="22" cy="22" r="22"/><rect class="cls-2" x="10" y="10" width="24" height="24"/></g></g></g></svg>