<svg xmlns="http://www.w3.org/2000/svg" viewBox="0 0 44 44"><defs><style>.cls-1{fill:#fff;}.cls-2{fill:none;}</style></defs><title>user-heart</title><g id="Слой_2" data-name="Слой 2"><g id="Слой_4" data-name="Слой 4"><g id="user-heart"><path class="cls-1" d="M20.46,20.91a6,6,0,1,0-6-6A6,6,0,0,0,20.46,20.91Zm0-10a4,4,0,1,1-4,4A4,4,0,0,1,20.46,10.91Z"/><path class="cls-1" d="M20.46,22.91a9,9,0,0,0-9,9,1,1,0,0,0,2,0,7,7,0,0,1,14,0,1,1,0,0,0,2,0A9,9,0,0,0,20.46,22.91Z"/><path class="cls-1" d="M33.46,16.78a2.11,2.11,0,0,0-2,2.2,2,2,0,1,0-4,0c0,1.73,2.26,3.76,3.38,4.66a1,1,0,0,0,1.24,0c1.12-.9,3.38-2.93,3.38-4.66A2.11,2.11,0,0,0,33.46,16.78Z"/><circle class="cls-2" cx="22" cy="22" r="22"/><rect class="cls-2" x="10" y="10" width="24" height="24"/></g></g></g></svg>