<svg xmlns="http://www.w3.org/2000/svg" viewBox="0 0 44 44"><defs><style>.cls-1{fill:#fff;}.cls-2{fill:none;}</style></defs><title>user-plus</title><g id="Слой_2" data-name="Слой 2"><g id="Слой_4" data-name="Слой 4"><g id="user-plus"><path class="cls-1" d="M34.63,20.35h-2v-2a1,1,0,0,0-2,0v2h-2a1,1,0,0,0,0,2h2v2a1,1,0,0,0,2,0v-2h2a1,1,0,0,0,0-2Z"/><path class="cls-1" d="M20.63,21.35a6,6,0,1,0-6-6A6,6,0,0,0,20.63,21.35Zm0-10a4,4,0,1,1-4,4A4,4,0,0,1,20.63,11.35Z"/><path class="cls-1" d="M20.63,23.35a9,9,0,0,0-9,9,1,1,0,0,0,2,0,7,7,0,0,1,14,0,1,1,0,0,0,2,0A9,9,0,0,0,20.63,23.35Z"/><circle class="cls-2" cx="22" cy="22" r="22"/><rect class="cls-2" x="10" y="10" width="24" height="24"/></g></g></g></svg>