<svg xmlns="http://www.w3.org/2000/svg" viewBox="0 0 44 44"><defs><style>.cls-1{fill:#fff;}.cls-2{fill:none;}</style></defs><title>user</title><g id="Слой_2" data-name="Слой 2"><g id="Слой_4" data-name="Слой 4"><g id="user"><path class="cls-1" d="M22,21.5a6,6,0,1,0-6-6A6,6,0,0,0,22,21.5Zm0-10a4,4,0,1,1-4,4A4,4,0,0,1,22,11.5Z"/><path class="cls-1" d="M22,23.5a9,9,0,0,0-9,9,1,1,0,0,0,2,0,7,7,0,0,1,14,0,1,1,0,0,0,2,0A9,9,0,0,0,22,23.5Z"/><circle class="cls-2" cx="22" cy="22" r="22"/><rect class="cls-2" x="10" y="10" width="24" height="24"/></g></g></g></svg>