<svg xmlns="http://www.w3.org/2000/svg" viewBox="0 0 44 44"><defs><style>.cls-1{fill:#fff;}.cls-2{fill:none;}</style></defs><title>window-maximize</title><g id="Слой_2" data-name="Слой 2"><g id="Слой_4" data-name="Слой 4"><g id="window-maximize"><path class="cls-1" d="M29,11H15a5,5,0,0,0-5,5V28a5,5,0,0,0,5,5H29a5,5,0,0,0,5-5V16A5,5,0,0,0,29,11ZM15,13H29a3,3,0,0,1,3,3v2H12V16A3,3,0,0,1,15,13ZM29,31H15a3,3,0,0,1-3-3V20H32v8A3,3,0,0,1,29,31Z"/><circle class="cls-2" cx="22" cy="22" r="22"/><rect class="cls-2" x="10" y="10" width="24" height="24"/></g></g></g></svg>