<svg xmlns="http://www.w3.org/2000/svg" viewBox="0 0 44 44"><defs><style>.cls-1{fill:#fff;}.cls-2{fill:none;}</style></defs><title>world</title><g id="Слой_2" data-name="Слой 2"><g id="Слой_4" data-name="Слой 4"><g id="world"><path class="cls-1" d="M22,10A12,12,0,1,0,34,22,12,12,0,0,0,22,10ZM32,22a10,10,0,0,1-1.66,5.51l-1.19-1.2A.47.47,0,0,1,29,26V25a3,3,0,0,0-3-3H23a1,1,0,0,1-1-1v-.5a.5.5,0,0,1,.5-.5A2.5,2.5,0,0,0,25,17.5v-1a.5.5,0,0,1,.5-.5h1.38a2.51,2.51,0,0,0,1.77-.73l.37-.38A10,10,0,0,1,32,22ZM12.05,23l3.16,3.16a3,3,0,0,0,2.12.88H20a1,1,0,0,1,1,1V32A10,10,0,0,1,12.05,23Zm11,9V28a3,3,0,0,0-3-3H17.33a1,1,0,0,1-.71-.29l-4.46-4.46a10,10,0,0,1,11.56-8.1,10.18,10.18,0,0,1,3.74,1.48l-.23.22a.47.47,0,0,1-.35.15H25.5A2.5,2.5,0,0,0,23,16.5v1a.5.5,0,0,1-.5.5A2.5,2.5,0,0,0,20,20.5V21a3,3,0,0,0,3,3h3a1,1,0,0,1,1,1v1a2.51,2.51,0,0,0,.73,1.77l1.34,1.34A10,10,0,0,1,23,32Z"/><circle class="cls-2" cx="22" cy="22" r="22"/><rect class="cls-2" x="10" y="10" width="24" height="24"/></g></g></g></svg>